<svg width="69" height="69" viewBox="0 0 69 69" fill="none" xmlns="http://www.w3.org/2000/svg">
<rect opacity="0.2" width="68.64" height="68.64" rx="13.0743" fill="#91F532"/>
<g clip-path="url(#clip0_2519_7133)">
<path opacity="0.5" d="M11.8425 56.7972C11.3077 56.2627 11.3077 55.3954 11.8425 54.8606L22.0774 44.6257C22.6122 44.0909 23.4794 44.0909 24.0143 44.6257C24.5491 45.1606 24.5491 46.0275 24.0143 46.5623L13.7795 56.7972C13.2446 57.332 12.3774 57.332 11.8425 56.7972Z" fill="#F67109"/>
<path d="M56.8923 29.9099L57.2006 12.8334C57.204 12.6494 57.1702 12.4667 57.1013 12.2961C57.0324 12.1255 56.9299 11.9705 56.7998 11.8404C56.6697 11.7103 56.5147 11.6078 56.3441 11.539C56.1735 11.4701 55.9908 11.4363 55.8068 11.4397L38.7295 11.7472C38.4607 11.752 38.1994 11.8358 37.9779 11.9881C37.7564 12.1404 37.5847 12.3545 37.4841 12.6038C37.3835 12.853 37.3584 13.1264 37.4121 13.3897C37.4657 13.6531 37.5957 13.8949 37.7858 14.0849L41.4725 17.7716L21.7486 37.4953C21.4919 37.7522 21.3477 38.1005 21.3477 38.4637C21.3477 38.8269 21.4919 39.1753 21.7486 39.4322L29.2076 46.8908C29.7424 47.4257 30.6093 47.4257 31.1441 46.8908L50.8681 27.1669L54.5549 30.8536C54.7449 31.0437 54.9866 31.1737 55.25 31.2274C55.5133 31.281 55.7866 31.256 56.0359 31.1553C56.2851 31.0547 56.4992 30.883 56.6515 30.6615C56.8037 30.44 56.8875 30.1786 56.8923 29.9099Z" fill="#F67109"/>
<path opacity="0.5" d="M12.3386 48.8412C11.8038 48.3063 11.8038 47.4391 12.3386 46.9043L18.3456 40.8973C18.8805 40.3624 19.7474 40.3624 20.2822 40.8973C20.8171 41.4321 20.8171 42.2989 20.2822 42.8339L14.2753 48.8412C13.7404 49.3757 12.8732 49.3757 12.3386 48.8412ZM19.7973 56.2998C19.2624 55.7649 19.2624 54.8977 19.7973 54.3629L25.8046 48.3559C26.3395 47.821 27.2063 47.821 27.7411 48.3559C28.276 48.8908 28.2761 49.7576 27.7411 50.2925L21.7339 56.2998C21.199 56.8346 20.3321 56.8346 19.7973 56.2998Z" fill="#F67109"/>
</g>
<defs>
<clipPath id="clip0_2519_7133">
<rect width="45.76" height="45.76" fill="white" transform="translate(11.4414 11.4404)"/>
</clipPath>
</defs>
</svg>
