<svg width="14" height="17" viewBox="0 0 14 17" fill="none" xmlns="http://www.w3.org/2000/svg">
<path d="M7.00138 0.0294189C4.35432 0.0294189 2.23667 2.14707 2.23667 4.79413V6.91177C1.33667 6.91177 0.648438 7.60001 0.648438 8.50001V15.3824C0.648438 16.2824 1.33667 16.9706 2.23667 16.9706H11.7661C12.6661 16.9706 13.3543 16.2824 13.3543 15.3824V8.50001C13.3543 7.60001 12.6661 6.91177 11.7661 6.91177V4.79413C11.7661 2.14707 9.64844 0.0294189 7.00138 0.0294189ZM12.2955 8.50001V15.3824C12.2955 15.7 12.0837 15.9118 11.7661 15.9118H2.23667C1.91903 15.9118 1.70726 15.7 1.70726 15.3824V8.50001C1.70726 8.18236 1.91903 7.9706 2.23667 7.9706H11.7661C12.0837 7.9706 12.2955 8.18236 12.2955 8.50001ZM3.2955 6.91177V4.79413C3.2955 2.72942 4.93667 1.08824 7.00138 1.08824C9.06608 1.08824 10.7073 2.72942 10.7073 4.79413V6.91177H3.2955Z" fill="#C4C4C4"/>
<path d="M7.0023 9.55884C6.1023 9.55884 5.41406 10.2471 5.41406 11.1471C5.41406 11.8353 5.83759 12.4177 6.47289 12.6294V13.7941C6.47289 14.1118 6.68465 14.3235 7.0023 14.3235C7.31994 14.3235 7.53171 14.1118 7.53171 13.7941V12.6294C8.167 12.4177 8.59053 11.8353 8.59053 11.1471C8.59053 10.2471 7.9023 9.55884 7.0023 9.55884ZM7.0023 11.6765C6.68465 11.6765 6.47289 11.4647 6.47289 11.1471C6.47289 10.8294 6.68465 10.6177 7.0023 10.6177C7.31994 10.6177 7.53171 10.8294 7.53171 11.1471C7.53171 11.4647 7.31994 11.6765 7.0023 11.6765Z" fill="#C4C4C4"/>
</svg>
