<svg width="48" height="48" viewBox="0 0 48 48" fill="none" xmlns="http://www.w3.org/2000/svg">
<path d="M23.8003 -6.38095e-05C10.6552 -6.32349e-05 -0.00104303 10.6561 -0.00104245 23.8012C-0.00104188 36.9463 10.6552 47.6025 23.8003 47.6025C36.9454 47.6025 47.6016 36.9463 47.6016 23.8012C47.6016 10.6561 36.9454 -6.43841e-05 23.8003 -6.38095e-05Z" fill="#282828"/>
<path fill-rule="evenodd" clip-rule="evenodd" d="M34.9465 23.9868L25.5066 33.6076C24.7178 34.4114 23.4274 34.4114 22.6387 33.6076C21.85 32.8037 21.85 31.4886 22.6387 30.6848L27.1831 26.0534L13.606 26.0534C12.4906 26.0534 11.5781 25.1235 11.5781 23.9867C11.5781 22.8499 12.4906 21.92 13.606 21.92L27.1828 21.92L22.6386 17.2887C21.8498 16.4849 21.8498 15.1698 22.6386 14.366C23.4273 13.5621 24.7177 13.5621 25.5064 14.366L32.0787 21.064L34.9465 23.9868Z" fill="white"/>
</svg>
