<svg width="140" height="140" viewBox="0 0 37 37" fill="none" xmlns="http://www.w3.org/2000/svg">
<path opacity="0.4" d="M36.2489 14.8035V28.3335C36.3474 29.1781 36.2535 30.034 35.9743 30.8371C35.695 31.6403 35.2376 32.3698 34.6364 32.971C34.0352 33.5723 33.3056 34.0297 32.5025 34.3089C31.6994 34.5882 30.8435 34.6821 29.9989 34.5835H9.9989C9.15433 34.6821 8.29842 34.5882 7.49529 34.3089C6.69216 34.0297 5.96264 33.5723 5.36139 32.971C4.76014 32.3698 4.30276 31.6403 4.0235 30.8371C3.74425 30.034 3.65037 29.1781 3.7489 28.3335V11.6669C3.65037 10.8223 3.74425 9.96639 4.0235 9.16326C4.30276 8.36013 4.76014 7.63061 5.36139 7.02936C5.96264 6.42811 6.69216 5.97073 7.49529 5.69147C8.29842 5.41222 9.15433 5.31834 9.9989 5.41687H24.6656C24.7393 5.4188 24.8117 5.43702 24.8776 5.47024C24.9435 5.50345 25.0012 5.55083 25.0466 5.60898C25.092 5.66712 25.1239 5.7346 25.1402 5.80656C25.1564 5.87852 25.1566 5.95318 25.1406 6.0252C24.7473 7.97258 25.1428 9.99643 26.2402 11.6525C27.3376 13.3086 29.0473 14.4616 30.9939 14.8585C32.5346 15.1665 34.1332 14.9829 35.5639 14.3335C35.6402 14.3031 35.7228 14.292 35.8044 14.3011C35.886 14.3102 35.9641 14.3393 36.0318 14.3858C36.0995 14.4322 36.1547 14.4946 36.1926 14.5675C36.2305 14.6404 36.2498 14.7214 36.2489 14.8035Z" fill="#EEEEEE"/>
<path d="M33.6033 23.6035L26.1833 16.1835C25.8691 15.8704 25.4436 15.6947 25 15.6947C24.5564 15.6947 24.1309 15.8704 23.8167 16.1835L15.5833 24.4168C15.4276 24.5695 15.2181 24.655 15 24.655C14.7819 24.655 14.5724 24.5695 14.4167 24.4168L12.85 22.8502C12.5357 22.5371 12.1102 22.3613 11.6667 22.3613C11.2231 22.3613 10.7976 22.5371 10.4833 22.8502L6.39667 26.9368C6.30287 27.0305 6.25012 27.1576 6.25 27.2902V28.3335C6.25 30.9668 7.36667 32.0835 10 32.0835H30C32.6333 32.0835 33.75 30.9668 33.75 28.3335V23.9568C33.7499 23.8243 33.6971 23.6972 33.6033 23.6035ZM13.3333 17.0835C13.0597 17.0845 12.7886 17.0316 12.5355 16.9278C12.2824 16.824 12.0522 16.6714 11.858 16.4786C11.4659 16.0893 11.2445 15.5602 11.2425 15.0077C11.2405 14.4551 11.4581 13.9244 11.8474 13.5323C12.2367 13.1402 12.7658 12.9188 13.3183 12.9168H13.3333C13.8859 12.9168 14.4158 13.1363 14.8065 13.527C15.1972 13.9177 15.4167 14.4476 15.4167 15.0002C15.4167 15.5527 15.1972 16.0826 14.8065 16.4733C14.4158 16.864 13.8859 17.0835 13.3333 17.0835ZM35.8833 6.61683L33.3833 4.11683C33.1487 3.88316 32.8311 3.75195 32.5 3.75195C32.1689 3.75195 31.8513 3.88316 31.6167 4.11683L29.1167 6.61683C28.8959 6.85379 28.7757 7.1672 28.7814 7.49104C28.7871 7.81487 28.9183 8.12385 29.1473 8.35287C29.3763 8.58189 29.6853 8.71308 30.0091 8.71879C30.333 8.7245 30.6464 8.6043 30.8833 8.3835L31.25 8.0185V11.6668C31.25 11.9984 31.3817 12.3163 31.6161 12.5507C31.8505 12.7851 32.1685 12.9168 32.5 12.9168C32.8315 12.9168 33.1495 12.7851 33.3839 12.5507C33.6183 12.3163 33.75 11.9984 33.75 11.6668V8.0185L34.1167 8.3835C34.3536 8.6043 34.667 8.7245 34.9909 8.71879C35.3147 8.71308 35.6237 8.58189 35.8527 8.35287C36.0817 8.12385 36.2129 7.81487 36.2186 7.49104C36.2243 7.1672 36.1041 6.85379 35.8833 6.61683Z" fill="#F5E74C"/>
</svg>
