<svg width="242" height="69" viewBox="0 0 242 69" fill="none" xmlns="http://www.w3.org/2000/svg">
<rect x="1" y="1" width="240" height="67" rx="11" fill="black" stroke="#939393" stroke-width="2"/>
<path d="M58.4519 35.4832C58.4718 33.9347 58.8831 32.4165 59.6475 31.0697C60.4119 29.7229 61.5045 28.5914 62.8237 27.7803C61.9857 26.5834 60.8801 25.5984 59.5948 24.9036C58.3094 24.2087 56.8798 23.8231 55.4194 23.7774C52.3041 23.4504 49.2839 25.6416 47.6964 25.6416C46.0782 25.6416 43.6339 23.8099 41.0019 23.864C39.2995 23.919 37.6403 24.4141 36.186 25.301C34.7318 26.1879 33.5321 27.4363 32.7038 28.9248C29.1159 35.1367 31.7921 44.2662 35.2291 49.2875C36.9487 51.7463 38.9584 54.4928 41.588 54.3954C44.1613 54.2887 45.1223 52.7545 48.2285 52.7545C51.3058 52.7545 52.2075 54.3954 54.8905 54.3335C57.6517 54.2887 59.3914 51.8638 61.0507 49.3817C62.2862 47.6297 63.2369 45.6934 63.8676 43.6445C62.2634 42.966 60.8944 41.8303 59.9314 40.379C58.9683 38.9277 58.4537 37.225 58.4519 35.4832Z" fill="white"/>
<path d="M53.3824 20.4758C54.8879 18.6684 55.6296 16.3454 55.45 14C53.1499 14.2416 51.0252 15.3409 49.4993 17.0789C48.7533 17.928 48.1819 18.9157 47.8178 19.9857C47.4537 21.0558 47.3041 22.1871 47.3775 23.3149C48.528 23.3268 49.6662 23.0774 50.7063 22.5856C51.7465 22.0938 52.6614 21.3724 53.3824 20.4758Z" fill="white"/>
<path d="M88.5176 35.9092L82.4385 54H78.1758L86.1445 32.6719H88.8691L88.5176 35.9092ZM93.6006 54L87.4922 35.9092L87.126 32.6719H89.8652L97.8779 54H93.6006ZM93.3223 46.0752V49.2539H81.8818V46.0752H93.3223ZM103.269 41.1973V60.0938H99.3867V38.1504H102.976L103.269 41.1973ZM113.449 45.9141V46.2217C113.449 47.374 113.312 48.4434 113.039 49.4297C112.775 50.4062 112.385 51.2607 111.867 51.9932C111.35 52.7158 110.705 53.2822 109.934 53.6924C109.172 54.0928 108.293 54.293 107.297 54.293C106.32 54.293 105.471 54.1074 104.748 53.7363C104.025 53.3555 103.415 52.8184 102.917 52.125C102.419 51.4316 102.019 50.626 101.716 49.708C101.423 48.7803 101.203 47.7695 101.057 46.6758V45.6943C101.203 44.5322 101.423 43.4775 101.716 42.5303C102.019 41.5732 102.419 40.748 102.917 40.0547C103.415 39.3516 104.021 38.8096 104.733 38.4287C105.456 38.0479 106.301 37.8574 107.268 37.8574C108.273 37.8574 109.157 38.0479 109.919 38.4287C110.69 38.8096 111.34 39.3564 111.867 40.0693C112.395 40.7822 112.79 41.6318 113.054 42.6182C113.317 43.6045 113.449 44.7031 113.449 45.9141ZM109.567 46.2217V45.9141C109.567 45.2109 109.504 44.5615 109.377 43.9658C109.25 43.3604 109.055 42.833 108.791 42.3838C108.527 41.9248 108.186 41.5684 107.766 41.3145C107.346 41.0605 106.838 40.9336 106.242 40.9336C105.646 40.9336 105.134 41.0312 104.704 41.2266C104.274 41.4219 103.923 41.7002 103.649 42.0615C103.376 42.4229 103.161 42.8525 103.005 43.3506C102.858 43.8389 102.761 44.3809 102.712 44.9766V47.4082C102.8 48.1309 102.971 48.7803 103.225 49.3564C103.479 49.9326 103.85 50.3916 104.338 50.7334C104.836 51.0752 105.48 51.2461 106.271 51.2461C106.867 51.2461 107.375 51.1143 107.795 50.8506C108.215 50.5869 108.557 50.2256 108.82 49.7666C109.084 49.2979 109.274 48.7607 109.392 48.1553C109.509 47.5498 109.567 46.9053 109.567 46.2217ZM120.144 41.1973V60.0938H116.262V38.1504H119.851L120.144 41.1973ZM130.324 45.9141V46.2217C130.324 47.374 130.188 48.4434 129.914 49.4297C129.65 50.4062 129.26 51.2607 128.742 51.9932C128.225 52.7158 127.58 53.2822 126.809 53.6924C126.047 54.0928 125.168 54.293 124.172 54.293C123.195 54.293 122.346 54.1074 121.623 53.7363C120.9 53.3555 120.29 52.8184 119.792 52.125C119.294 51.4316 118.894 50.626 118.591 49.708C118.298 48.7803 118.078 47.7695 117.932 46.6758V45.6943C118.078 44.5322 118.298 43.4775 118.591 42.5303C118.894 41.5732 119.294 40.748 119.792 40.0547C120.29 39.3516 120.896 38.8096 121.608 38.4287C122.331 38.0479 123.176 37.8574 124.143 37.8574C125.148 37.8574 126.032 38.0479 126.794 38.4287C127.565 38.8096 128.215 39.3564 128.742 40.0693C129.27 40.7822 129.665 41.6318 129.929 42.6182C130.192 43.6045 130.324 44.7031 130.324 45.9141ZM126.442 46.2217V45.9141C126.442 45.2109 126.379 44.5615 126.252 43.9658C126.125 43.3604 125.93 42.833 125.666 42.3838C125.402 41.9248 125.061 41.5684 124.641 41.3145C124.221 41.0605 123.713 40.9336 123.117 40.9336C122.521 40.9336 122.009 41.0312 121.579 41.2266C121.149 41.4219 120.798 41.7002 120.524 42.0615C120.251 42.4229 120.036 42.8525 119.88 43.3506C119.733 43.8389 119.636 44.3809 119.587 44.9766V47.4082C119.675 48.1309 119.846 48.7803 120.1 49.3564C120.354 49.9326 120.725 50.3916 121.213 50.7334C121.711 51.0752 122.355 51.2461 123.146 51.2461C123.742 51.2461 124.25 51.1143 124.67 50.8506C125.09 50.5869 125.432 50.2256 125.695 49.7666C125.959 49.2979 126.149 48.7607 126.267 48.1553C126.384 47.5498 126.442 46.9053 126.442 46.2217ZM152.077 48.4629C152.077 48.0527 152.014 47.6865 151.887 47.3643C151.77 47.0322 151.55 46.7344 151.228 46.4707C150.915 46.1973 150.471 45.9336 149.895 45.6797C149.328 45.416 148.596 45.1426 147.697 44.8594C146.701 44.5469 145.773 44.1953 144.914 43.8047C144.055 43.4141 143.298 42.96 142.644 42.4424C141.999 41.9248 141.496 41.3291 141.135 40.6553C140.773 39.9717 140.593 39.1807 140.593 38.2822C140.593 37.4033 140.778 36.6025 141.149 35.8799C141.53 35.1572 142.067 34.5371 142.761 34.0195C143.454 33.4922 144.27 33.0869 145.207 32.8037C146.154 32.5205 147.199 32.3789 148.342 32.3789C149.924 32.3789 151.291 32.667 152.443 33.2432C153.605 33.8193 154.504 34.6006 155.139 35.5869C155.773 36.5732 156.091 37.6816 156.091 38.9121H152.077C152.077 38.248 151.936 37.6621 151.652 37.1543C151.379 36.6465 150.959 36.2461 150.393 35.9531C149.836 35.6602 149.133 35.5137 148.283 35.5137C147.463 35.5137 146.779 35.6357 146.232 35.8799C145.695 36.124 145.29 36.4561 145.017 36.876C144.753 37.2959 144.621 37.7646 144.621 38.2822C144.621 38.6729 144.714 39.0244 144.899 39.3369C145.085 39.6396 145.363 39.9277 145.734 40.2012C146.105 40.4648 146.564 40.7139 147.111 40.9482C147.668 41.1729 148.312 41.3975 149.045 41.6221C150.217 41.9736 151.242 42.3643 152.121 42.7939C153.01 43.2236 153.747 43.7119 154.333 44.2588C154.929 44.8057 155.373 45.4209 155.666 46.1045C155.969 46.7881 156.12 47.5645 156.12 48.4336C156.12 49.3516 155.939 50.1719 155.578 50.8945C155.217 51.6172 154.699 52.2324 154.025 52.7402C153.352 53.248 152.541 53.6338 151.594 53.8975C150.656 54.1611 149.606 54.293 148.444 54.293C147.409 54.293 146.384 54.1562 145.368 53.8828C144.362 53.5996 143.449 53.1797 142.629 52.623C141.809 52.0566 141.154 51.3438 140.666 50.4844C140.178 49.6152 139.934 48.5996 139.934 47.4375H143.977C143.977 48.1113 144.084 48.6875 144.299 49.166C144.523 49.6348 144.836 50.0205 145.236 50.3232C145.646 50.6162 146.125 50.8311 146.672 50.9678C147.219 51.1045 147.81 51.1729 148.444 51.1729C149.265 51.1729 149.938 51.0605 150.466 50.8359C151.003 50.6016 151.403 50.2793 151.667 49.8691C151.94 49.459 152.077 48.9902 152.077 48.4629ZM166.433 38.1504V40.9336H157.351V38.1504H166.433ZM159.782 34.2539H163.664V49.4297C163.664 49.8984 163.728 50.2598 163.854 50.5137C163.981 50.7676 164.172 50.9385 164.426 51.0264C164.68 51.1143 164.982 51.1582 165.334 51.1582C165.588 51.1582 165.822 51.1436 166.037 51.1143C166.252 51.085 166.433 51.0557 166.579 51.0264L166.594 53.9268C166.271 54.0342 165.905 54.1221 165.495 54.1904C165.095 54.2588 164.641 54.293 164.133 54.293C163.264 54.293 162.502 54.1465 161.848 53.8535C161.193 53.5508 160.686 53.0674 160.324 52.4033C159.963 51.7295 159.782 50.8408 159.782 49.7373V34.2539ZM167.941 46.2363V45.9287C167.941 44.7666 168.107 43.6973 168.439 42.7207C168.771 41.7344 169.255 40.8799 169.89 40.1572C170.524 39.4346 171.301 38.873 172.219 38.4727C173.137 38.0625 174.182 37.8574 175.354 37.8574C176.545 37.8574 177.6 38.0625 178.518 38.4727C179.445 38.873 180.227 39.4346 180.861 40.1572C181.496 40.8799 181.979 41.7344 182.312 42.7207C182.644 43.6973 182.81 44.7666 182.81 45.9287V46.2363C182.81 47.3887 182.644 48.458 182.312 49.4443C181.979 50.4209 181.496 51.2754 180.861 52.0078C180.227 52.7305 179.45 53.292 178.532 53.6924C177.614 54.0928 176.564 54.293 175.383 54.293C174.211 54.293 173.161 54.0928 172.233 53.6924C171.306 53.292 170.524 52.7305 169.89 52.0078C169.255 51.2754 168.771 50.4209 168.439 49.4443C168.107 48.458 167.941 47.3887 167.941 46.2363ZM171.809 45.9287V46.2363C171.809 46.9297 171.877 47.5791 172.014 48.1846C172.15 48.79 172.36 49.3223 172.644 49.7812C172.927 50.2402 173.293 50.6016 173.742 50.8652C174.201 51.1191 174.748 51.2461 175.383 51.2461C176.008 51.2461 176.545 51.1191 176.994 50.8652C177.443 50.6016 177.81 50.2402 178.093 49.7812C178.386 49.3223 178.601 48.79 178.737 48.1846C178.874 47.5791 178.942 46.9297 178.942 46.2363V45.9287C178.942 45.2451 178.874 44.6055 178.737 44.0098C178.601 43.4043 178.386 42.8721 178.093 42.4131C177.81 41.9443 177.438 41.5781 176.979 41.3145C176.53 41.041 175.988 40.9043 175.354 40.9043C174.729 40.9043 174.191 41.041 173.742 41.3145C173.293 41.5781 172.927 41.9443 172.644 42.4131C172.36 42.8721 172.15 43.4043 172.014 44.0098C171.877 44.6055 171.809 45.2451 171.809 45.9287ZM189.489 41.3877V54H185.622V38.1504H189.284L189.489 41.3877ZM194.309 38.0479L194.25 41.6514C194.035 41.6123 193.791 41.583 193.518 41.5635C193.254 41.5439 193.005 41.5342 192.771 41.5342C192.175 41.5342 191.652 41.6172 191.203 41.7832C190.754 41.9395 190.378 42.1689 190.075 42.4717C189.782 42.7744 189.558 43.1455 189.401 43.585C189.245 44.0146 189.157 44.5029 189.138 45.0498L188.303 44.9473C188.303 43.9414 188.405 43.0088 188.61 42.1494C188.815 41.29 189.113 40.5381 189.504 39.8936C189.895 39.249 190.383 38.751 190.969 38.3994C191.564 38.0381 192.248 37.8574 193.02 37.8574C193.234 37.8574 193.464 37.877 193.708 37.916C193.962 37.9453 194.162 37.9893 194.309 38.0479ZM203.259 54.293C202.058 54.293 200.979 54.0977 200.021 53.707C199.064 53.3164 198.249 52.7744 197.575 52.0811C196.911 51.3779 196.398 50.5625 196.037 49.6348C195.686 48.6973 195.51 47.6914 195.51 46.6172V46.0312C195.51 44.8105 195.686 43.7021 196.037 42.7061C196.389 41.7002 196.887 40.8359 197.531 40.1133C198.176 39.3906 198.947 38.834 199.846 38.4434C200.744 38.0527 201.735 37.8574 202.819 37.8574C203.942 37.8574 204.934 38.0479 205.793 38.4287C206.652 38.7998 207.37 39.3271 207.946 40.0107C208.522 40.6943 208.957 41.5146 209.25 42.4717C209.543 43.4189 209.689 44.4688 209.689 45.6211V47.2471H197.268V44.5811H205.881V44.2881C205.861 43.6729 205.744 43.1113 205.529 42.6035C205.314 42.0859 204.982 41.6758 204.533 41.373C204.084 41.0605 203.503 40.9043 202.79 40.9043C202.214 40.9043 201.711 41.0312 201.281 41.2852C200.861 41.5293 200.51 41.8809 200.227 42.3398C199.953 42.7891 199.748 43.3262 199.611 43.9512C199.475 44.5762 199.406 45.2695 199.406 46.0312V46.6172C199.406 47.2812 199.494 47.8965 199.67 48.4629C199.855 49.0293 200.124 49.5225 200.476 49.9424C200.837 50.3525 201.267 50.6748 201.765 50.9092C202.272 51.1338 202.849 51.2461 203.493 51.2461C204.304 51.2461 205.036 51.0898 205.69 50.7773C206.354 50.4551 206.931 49.9814 207.419 49.3564L209.367 51.3779C209.035 51.8662 208.586 52.335 208.02 52.7842C207.463 53.2334 206.789 53.5996 205.998 53.8828C205.207 54.1562 204.294 54.293 203.259 54.293Z" fill="white"/>
<path d="M82.2041 22H79.9043L79.9189 20.418H82.2041C82.8242 20.418 83.3442 20.2812 83.7642 20.0078C84.1841 19.7295 84.5015 19.3315 84.7163 18.814C84.9312 18.2915 85.0386 17.6665 85.0386 16.939V16.3896C85.0386 15.8281 84.9775 15.3325 84.8555 14.9028C84.7334 14.4731 84.5527 14.1118 84.3135 13.8188C84.0791 13.5259 83.7886 13.3037 83.4419 13.1523C83.0952 13.001 82.6973 12.9253 82.248 12.9253H79.8604V11.3359H82.248C82.9609 11.3359 83.6104 11.4556 84.1963 11.6948C84.7871 11.9341 85.2974 12.2783 85.7271 12.7275C86.1616 13.1719 86.4937 13.7041 86.7231 14.3242C86.9575 14.9443 87.0747 15.6377 87.0747 16.4043V16.939C87.0747 17.7007 86.9575 18.394 86.7231 19.019C86.4937 19.6392 86.1616 20.1714 85.7271 20.6157C85.2974 21.0601 84.7847 21.4019 84.189 21.6411C83.5933 21.8804 82.9316 22 82.2041 22ZM81.0322 11.3359V22H79.0181V11.3359H81.0322ZM88.2979 18.1182V17.9644C88.2979 17.3833 88.3809 16.8486 88.5469 16.3604C88.7129 15.8672 88.9546 15.4399 89.272 15.0786C89.5894 14.7173 89.9775 14.4365 90.4365 14.2363C90.8955 14.0312 91.418 13.9287 92.0039 13.9287C92.5996 13.9287 93.127 14.0312 93.5859 14.2363C94.0498 14.4365 94.4404 14.7173 94.7578 15.0786C95.0752 15.4399 95.3169 15.8672 95.4829 16.3604C95.6489 16.8486 95.7319 17.3833 95.7319 17.9644V18.1182C95.7319 18.6943 95.6489 19.229 95.4829 19.7222C95.3169 20.2104 95.0752 20.6377 94.7578 21.0039C94.4404 21.3652 94.0522 21.646 93.5933 21.8462C93.1343 22.0464 92.6094 22.1465 92.0186 22.1465C91.4326 22.1465 90.9077 22.0464 90.4438 21.8462C89.98 21.646 89.5894 21.3652 89.272 21.0039C88.9546 20.6377 88.7129 20.2104 88.5469 19.7222C88.3809 19.229 88.2979 18.6943 88.2979 18.1182ZM90.2314 17.9644V18.1182C90.2314 18.4648 90.2656 18.7896 90.334 19.0923C90.4023 19.395 90.5073 19.6611 90.6489 19.8906C90.7905 20.1201 90.9736 20.3008 91.1982 20.4326C91.4277 20.5596 91.7012 20.623 92.0186 20.623C92.3311 20.623 92.5996 20.5596 92.8242 20.4326C93.0488 20.3008 93.2319 20.1201 93.3735 19.8906C93.52 19.6611 93.6274 19.395 93.6958 19.0923C93.7642 18.7896 93.7983 18.4648 93.7983 18.1182V17.9644C93.7983 17.6226 93.7642 17.3027 93.6958 17.0049C93.6274 16.7021 93.52 16.436 93.3735 16.2065C93.2319 15.9722 93.0464 15.7891 92.8169 15.6572C92.5923 15.5205 92.3213 15.4521 92.0039 15.4521C91.6914 15.4521 91.4229 15.5205 91.1982 15.6572C90.9736 15.7891 90.7905 15.9722 90.6489 16.2065C90.5073 16.436 90.4023 16.7021 90.334 17.0049C90.2656 17.3027 90.2314 17.6226 90.2314 17.9644ZM99.3428 20.0957L101.079 14.0752H102.309L101.943 16.1553L100.192 22H99.1304L99.3428 20.0957ZM98.3833 14.0752L99.687 20.1104L99.8042 22H98.5811L96.501 14.0752H98.3833ZM103.92 20.0225L105.195 14.0752H107.07L105.004 22H103.781L103.92 20.0225ZM102.5 14.0752L104.221 20.0371L104.448 22H103.386L101.621 16.1553L101.262 14.0752H102.5ZM110.109 15.7671V22H108.176V14.0752H109.992L110.109 15.7671ZM109.802 17.752H109.23C109.235 17.1758 109.313 16.6533 109.465 16.1846C109.616 15.7158 109.829 15.313 110.102 14.9761C110.38 14.6392 110.71 14.3804 111.091 14.1997C111.472 14.019 111.896 13.9287 112.365 13.9287C112.746 13.9287 113.09 13.9824 113.398 14.0898C113.706 14.1973 113.969 14.3682 114.189 14.6025C114.414 14.8369 114.584 15.1445 114.702 15.5254C114.824 15.9014 114.885 16.3652 114.885 16.917V22H112.937V16.9023C112.937 16.541 112.883 16.2554 112.775 16.0454C112.673 15.8354 112.521 15.6865 112.321 15.5986C112.126 15.5107 111.884 15.4668 111.596 15.4668C111.298 15.4668 111.037 15.5278 110.812 15.6499C110.593 15.7671 110.407 15.9307 110.256 16.1406C110.109 16.3506 109.997 16.5923 109.919 16.8657C109.841 17.1392 109.802 17.4346 109.802 17.752ZM118.642 10.75V22H116.701V10.75H118.642ZM120.144 18.1182V17.9644C120.144 17.3833 120.227 16.8486 120.393 16.3604C120.559 15.8672 120.8 15.4399 121.118 15.0786C121.435 14.7173 121.823 14.4365 122.282 14.2363C122.741 14.0312 123.264 13.9287 123.85 13.9287C124.445 13.9287 124.973 14.0312 125.432 14.2363C125.896 14.4365 126.286 14.7173 126.604 15.0786C126.921 15.4399 127.163 15.8672 127.329 16.3604C127.495 16.8486 127.578 17.3833 127.578 17.9644V18.1182C127.578 18.6943 127.495 19.229 127.329 19.7222C127.163 20.2104 126.921 20.6377 126.604 21.0039C126.286 21.3652 125.898 21.646 125.439 21.8462C124.98 22.0464 124.455 22.1465 123.864 22.1465C123.278 22.1465 122.753 22.0464 122.29 21.8462C121.826 21.646 121.435 21.3652 121.118 21.0039C120.8 20.6377 120.559 20.2104 120.393 19.7222C120.227 19.229 120.144 18.6943 120.144 18.1182ZM122.077 17.9644V18.1182C122.077 18.4648 122.111 18.7896 122.18 19.0923C122.248 19.395 122.353 19.6611 122.495 19.8906C122.636 20.1201 122.819 20.3008 123.044 20.4326C123.273 20.5596 123.547 20.623 123.864 20.623C124.177 20.623 124.445 20.5596 124.67 20.4326C124.895 20.3008 125.078 20.1201 125.219 19.8906C125.366 19.6611 125.473 19.395 125.542 19.0923C125.61 18.7896 125.644 18.4648 125.644 18.1182V17.9644C125.644 17.6226 125.61 17.3027 125.542 17.0049C125.473 16.7021 125.366 16.436 125.219 16.2065C125.078 15.9722 124.892 15.7891 124.663 15.6572C124.438 15.5205 124.167 15.4521 123.85 15.4521C123.537 15.4521 123.269 15.5205 123.044 15.6572C122.819 15.7891 122.636 15.9722 122.495 16.2065C122.353 16.436 122.248 16.7021 122.18 17.0049C122.111 17.3027 122.077 17.6226 122.077 17.9644ZM133.349 20.3154V16.6606C133.349 16.3921 133.303 16.1602 133.21 15.9648C133.117 15.7695 132.976 15.6182 132.785 15.5107C132.595 15.4033 132.353 15.3496 132.06 15.3496C131.801 15.3496 131.574 15.3936 131.379 15.4814C131.188 15.5693 131.042 15.6938 130.939 15.855C130.837 16.0112 130.786 16.1919 130.786 16.397H128.845C128.845 16.0698 128.923 15.7598 129.079 15.4668C129.235 15.1689 129.458 14.9053 129.746 14.6758C130.039 14.4414 130.388 14.2583 130.793 14.1265C131.203 13.9946 131.662 13.9287 132.17 13.9287C132.771 13.9287 133.305 14.0312 133.774 14.2363C134.248 14.4365 134.619 14.7393 134.887 15.1445C135.161 15.5498 135.297 16.0601 135.297 16.6753V20.1323C135.297 20.5278 135.322 20.8672 135.371 21.1504C135.424 21.4287 135.502 21.6704 135.605 21.8755V22H133.635C133.542 21.7998 133.471 21.5459 133.422 21.2383C133.374 20.9258 133.349 20.6182 133.349 20.3154ZM133.62 17.1733L133.635 18.3232H132.412C132.109 18.3232 131.843 18.355 131.613 18.4185C131.384 18.4771 131.196 18.5649 131.049 18.6821C130.903 18.7944 130.793 18.9312 130.72 19.0923C130.646 19.2485 130.61 19.4268 130.61 19.627C130.61 19.8223 130.654 19.998 130.742 20.1543C130.834 20.3105 130.966 20.4351 131.137 20.5278C131.313 20.6157 131.518 20.6597 131.752 20.6597C132.094 20.6597 132.392 20.5913 132.646 20.4546C132.9 20.313 133.098 20.1421 133.239 19.9419C133.381 19.7417 133.457 19.5513 133.466 19.3706L134.023 20.2056C133.955 20.4058 133.852 20.6182 133.715 20.8428C133.579 21.0674 133.403 21.2773 133.188 21.4727C132.973 21.668 132.714 21.8291 132.412 21.9561C132.109 22.083 131.757 22.1465 131.357 22.1465C130.844 22.1465 130.385 22.0439 129.98 21.8389C129.575 21.6338 129.255 21.353 129.021 20.9966C128.786 20.6401 128.669 20.2349 128.669 19.7808C128.669 19.3608 128.747 18.9897 128.903 18.6675C129.06 18.3452 129.292 18.0742 129.599 17.8545C129.907 17.6299 130.288 17.4614 130.742 17.3491C131.201 17.2319 131.726 17.1733 132.316 17.1733H133.62ZM141.794 20.3154V10.75H143.742V22H141.984L141.794 20.3154ZM136.704 18.1328V17.979C136.704 17.3735 136.772 16.8242 136.909 16.3311C137.05 15.833 137.255 15.4058 137.524 15.0493C137.792 14.6929 138.117 14.417 138.498 14.2217C138.884 14.0264 139.321 13.9287 139.809 13.9287C140.283 13.9287 140.695 14.0239 141.047 14.2144C141.403 14.4048 141.706 14.6758 141.955 15.0273C142.209 15.3789 142.412 15.7964 142.563 16.2798C142.714 16.7583 142.824 17.2856 142.893 17.8618V18.2793C142.824 18.8408 142.714 19.356 142.563 19.8247C142.412 20.2935 142.209 20.7036 141.955 21.0552C141.706 21.4019 141.403 21.6704 141.047 21.8608C140.69 22.0513 140.273 22.1465 139.794 22.1465C139.311 22.1465 138.876 22.0464 138.491 21.8462C138.11 21.646 137.785 21.3652 137.517 21.0039C137.253 20.6426 137.05 20.2178 136.909 19.7295C136.772 19.2412 136.704 18.709 136.704 18.1328ZM138.645 17.979V18.1328C138.645 18.4746 138.674 18.7944 138.732 19.0923C138.791 19.3901 138.886 19.6538 139.018 19.8833C139.15 20.1079 139.318 20.2837 139.523 20.4106C139.733 20.5376 139.987 20.6011 140.285 20.6011C140.666 20.6011 140.979 20.5181 141.223 20.3521C141.472 20.1812 141.665 19.9492 141.801 19.6562C141.938 19.3584 142.026 19.0239 142.065 18.6528V17.5029C142.045 17.21 141.994 16.939 141.911 16.6899C141.833 16.4409 141.721 16.2261 141.574 16.0454C141.433 15.8647 141.257 15.7231 141.047 15.6206C140.837 15.5181 140.588 15.4668 140.3 15.4668C140.002 15.4668 139.748 15.5327 139.538 15.6646C139.328 15.7915 139.157 15.9697 139.025 16.1992C138.894 16.4287 138.796 16.6948 138.732 16.9976C138.674 17.3003 138.645 17.6274 138.645 17.979ZM148.884 18.1182V17.9644C148.884 17.3833 148.967 16.8486 149.133 16.3604C149.299 15.8672 149.541 15.4399 149.858 15.0786C150.175 14.7173 150.563 14.4365 151.022 14.2363C151.481 14.0312 152.004 13.9287 152.59 13.9287C153.186 13.9287 153.713 14.0312 154.172 14.2363C154.636 14.4365 155.026 14.7173 155.344 15.0786C155.661 15.4399 155.903 15.8672 156.069 16.3604C156.235 16.8486 156.318 17.3833 156.318 17.9644V18.1182C156.318 18.6943 156.235 19.229 156.069 19.7222C155.903 20.2104 155.661 20.6377 155.344 21.0039C155.026 21.3652 154.638 21.646 154.179 21.8462C153.72 22.0464 153.195 22.1465 152.604 22.1465C152.019 22.1465 151.494 22.0464 151.03 21.8462C150.566 21.646 150.175 21.3652 149.858 21.0039C149.541 20.6377 149.299 20.2104 149.133 19.7222C148.967 19.229 148.884 18.6943 148.884 18.1182ZM150.817 17.9644V18.1182C150.817 18.4648 150.852 18.7896 150.92 19.0923C150.988 19.395 151.093 19.6611 151.235 19.8906C151.376 20.1201 151.56 20.3008 151.784 20.4326C152.014 20.5596 152.287 20.623 152.604 20.623C152.917 20.623 153.186 20.5596 153.41 20.4326C153.635 20.3008 153.818 20.1201 153.959 19.8906C154.106 19.6611 154.213 19.395 154.282 19.0923C154.35 18.7896 154.384 18.4648 154.384 18.1182V17.9644C154.384 17.6226 154.35 17.3027 154.282 17.0049C154.213 16.7021 154.106 16.436 153.959 16.2065C153.818 15.9722 153.632 15.7891 153.403 15.6572C153.178 15.5205 152.907 15.4521 152.59 15.4521C152.277 15.4521 152.009 15.5205 151.784 15.6572C151.56 15.7891 151.376 15.9722 151.235 16.2065C151.093 16.436 150.988 16.7021 150.92 17.0049C150.852 17.3027 150.817 17.6226 150.817 17.9644ZM159.621 15.7671V22H157.688V14.0752H159.504L159.621 15.7671ZM159.313 17.752H158.742C158.747 17.1758 158.825 16.6533 158.977 16.1846C159.128 15.7158 159.34 15.313 159.614 14.9761C159.892 14.6392 160.222 14.3804 160.603 14.1997C160.983 14.019 161.408 13.9287 161.877 13.9287C162.258 13.9287 162.602 13.9824 162.91 14.0898C163.217 14.1973 163.481 14.3682 163.701 14.6025C163.925 14.8369 164.096 15.1445 164.213 15.5254C164.335 15.9014 164.396 16.3652 164.396 16.917V22H162.448V16.9023C162.448 16.541 162.395 16.2554 162.287 16.0454C162.185 15.8354 162.033 15.6865 161.833 15.5986C161.638 15.5107 161.396 15.4668 161.108 15.4668C160.81 15.4668 160.549 15.5278 160.324 15.6499C160.104 15.7671 159.919 15.9307 159.768 16.1406C159.621 16.3506 159.509 16.5923 159.431 16.8657C159.353 17.1392 159.313 17.4346 159.313 17.752ZM173.588 14.0752V15.4668H169.047V14.0752H173.588ZM170.263 12.127H172.204V19.7148C172.204 19.9492 172.236 20.1299 172.299 20.2568C172.363 20.3838 172.458 20.4692 172.585 20.5132C172.712 20.5571 172.863 20.5791 173.039 20.5791C173.166 20.5791 173.283 20.5718 173.391 20.5571C173.498 20.5425 173.588 20.5278 173.662 20.5132L173.669 21.9634C173.508 22.0171 173.325 22.061 173.12 22.0952C172.919 22.1294 172.692 22.1465 172.438 22.1465C172.004 22.1465 171.623 22.0732 171.296 21.9268C170.969 21.7754 170.715 21.5337 170.534 21.2017C170.354 20.8647 170.263 20.4204 170.263 19.8687V12.127ZM176.774 10.75V22H174.833V10.75H176.774ZM176.467 17.752H175.896C175.896 17.2002 175.969 16.6924 176.115 16.2285C176.262 15.7646 176.469 15.3618 176.738 15.02C177.006 14.6733 177.326 14.4048 177.697 14.2144C178.073 14.0239 178.488 13.9287 178.942 13.9287C179.333 13.9287 179.687 13.9849 180.004 14.0972C180.327 14.2046 180.603 14.3779 180.832 14.6172C181.062 14.8564 181.237 15.1689 181.359 15.5547C181.486 15.9355 181.55 16.3994 181.55 16.9463V22H179.602V16.9316C179.602 16.5654 179.548 16.2773 179.44 16.0674C179.333 15.8525 179.179 15.6987 178.979 15.606C178.784 15.5132 178.542 15.4668 178.254 15.4668C177.941 15.4668 177.673 15.5278 177.448 15.6499C177.224 15.7671 177.038 15.9307 176.892 16.1406C176.75 16.3506 176.643 16.5923 176.569 16.8657C176.501 17.1392 176.467 17.4346 176.467 17.752ZM186.816 22.1465C186.215 22.1465 185.676 22.0488 185.197 21.8535C184.719 21.6582 184.311 21.3872 183.974 21.0405C183.642 20.689 183.386 20.2812 183.205 19.8174C183.029 19.3486 182.941 18.8457 182.941 18.3086V18.0156C182.941 17.4053 183.029 16.8511 183.205 16.353C183.381 15.8501 183.63 15.418 183.952 15.0566C184.274 14.6953 184.66 14.417 185.109 14.2217C185.559 14.0264 186.054 13.9287 186.596 13.9287C187.158 13.9287 187.653 14.0239 188.083 14.2144C188.513 14.3999 188.872 14.6636 189.16 15.0054C189.448 15.3472 189.665 15.7573 189.812 16.2358C189.958 16.7095 190.031 17.2344 190.031 17.8105V18.6235H183.82V17.2905H188.127V17.144C188.117 16.8364 188.059 16.5557 187.951 16.3018C187.844 16.043 187.678 15.8379 187.453 15.6865C187.229 15.5303 186.938 15.4521 186.582 15.4521C186.293 15.4521 186.042 15.5156 185.827 15.6426C185.617 15.7646 185.441 15.9404 185.3 16.1699C185.163 16.3945 185.061 16.6631 184.992 16.9756C184.924 17.2881 184.89 17.6348 184.89 18.0156V18.3086C184.89 18.6406 184.934 18.9482 185.021 19.2314C185.114 19.5146 185.249 19.7612 185.424 19.9712C185.605 20.1763 185.82 20.3374 186.069 20.4546C186.323 20.5669 186.611 20.623 186.933 20.623C187.338 20.623 187.705 20.5449 188.032 20.3887C188.364 20.2275 188.652 19.9907 188.896 19.6782L189.87 20.689C189.704 20.9331 189.479 21.1675 189.196 21.3921C188.918 21.6167 188.581 21.7998 188.186 21.9414C187.79 22.0781 187.333 22.1465 186.816 22.1465Z" fill="white"/>
</svg>
