<svg width="242" height="70" viewBox="0 0 242 70" fill="none" xmlns="http://www.w3.org/2000/svg">
<rect x="1" y="1.5" width="240" height="67" rx="11" fill="black" stroke="#939393" stroke-width="2"/>
<path d="M82.6768 43.9697V52.2754C82.3643 52.6758 81.8711 53.1104 81.1973 53.5791C80.5332 54.0479 79.6641 54.4531 78.5898 54.7949C77.5156 55.127 76.1973 55.293 74.6348 55.293C73.2773 55.293 72.0371 55.0684 70.9141 54.6191C69.791 54.1602 68.8242 53.4912 68.0137 52.6123C67.2031 51.7334 66.5781 50.6592 66.1387 49.3896C65.6992 48.1201 65.4795 46.6699 65.4795 45.0391V43.6328C65.4795 42.002 65.6846 40.5518 66.0947 39.2822C66.5146 38.0127 67.1104 36.9385 67.8818 36.0596C68.6631 35.1807 69.5957 34.5117 70.6797 34.0527C71.7734 33.5938 72.9941 33.3643 74.3418 33.3643C76.1484 33.3643 77.6328 33.6621 78.7949 34.2578C79.9668 34.8535 80.8652 35.6738 81.4902 36.7188C82.1152 37.7539 82.5059 38.9453 82.6621 40.293H78.7363C78.6289 39.5508 78.4141 38.9014 78.0918 38.3447C77.7695 37.7783 77.3105 37.3389 76.7148 37.0264C76.1289 36.7041 75.3672 36.543 74.4297 36.543C73.6387 36.543 72.9404 36.6992 72.335 37.0117C71.7295 37.3242 71.2217 37.7783 70.8115 38.374C70.4014 38.9697 70.0889 39.707 69.874 40.5859C69.6689 41.4648 69.5664 42.4707 69.5664 43.6035V45.0391C69.5664 46.1816 69.6836 47.1973 69.918 48.0859C70.1523 48.9648 70.4893 49.707 70.9287 50.3125C71.3779 50.9082 71.9297 51.3623 72.584 51.6748C73.248 51.9775 74 52.1289 74.8398 52.1289C75.6016 52.1289 76.2314 52.0654 76.7295 51.9385C77.2373 51.8018 77.6426 51.6406 77.9453 51.4551C78.248 51.2695 78.4824 51.0889 78.6484 50.9131V46.9141H74.415V43.9697H82.6768ZM85.5039 47.2363V46.9287C85.5039 45.7666 85.6699 44.6973 86.002 43.7207C86.334 42.7344 86.8174 41.8799 87.4521 41.1572C88.0869 40.4346 88.8633 39.873 89.7812 39.4727C90.6992 39.0625 91.7441 38.8574 92.916 38.8574C94.1074 38.8574 95.1621 39.0625 96.0801 39.4727C97.0078 39.873 97.7891 40.4346 98.4238 41.1572C99.0586 41.8799 99.542 42.7344 99.874 43.7207C100.206 44.6973 100.372 45.7666 100.372 46.9287V47.2363C100.372 48.3887 100.206 49.458 99.874 50.4443C99.542 51.4209 99.0586 52.2754 98.4238 53.0078C97.7891 53.7305 97.0127 54.292 96.0947 54.6924C95.1768 55.0928 94.127 55.293 92.9453 55.293C91.7734 55.293 90.7236 55.0928 89.7959 54.6924C88.8682 54.292 88.0869 53.7305 87.4521 53.0078C86.8174 52.2754 86.334 51.4209 86.002 50.4443C85.6699 49.458 85.5039 48.3887 85.5039 47.2363ZM89.3711 46.9287V47.2363C89.3711 47.9297 89.4395 48.5791 89.5762 49.1846C89.7129 49.79 89.9229 50.3223 90.2061 50.7812C90.4893 51.2402 90.8555 51.6016 91.3047 51.8652C91.7637 52.1191 92.3105 52.2461 92.9453 52.2461C93.5703 52.2461 94.1074 52.1191 94.5566 51.8652C95.0059 51.6016 95.3721 51.2402 95.6553 50.7812C95.9482 50.3223 96.1631 49.79 96.2998 49.1846C96.4365 48.5791 96.5049 47.9297 96.5049 47.2363V46.9287C96.5049 46.2451 96.4365 45.6055 96.2998 45.0098C96.1631 44.4043 95.9482 43.8721 95.6553 43.4131C95.3721 42.9443 95.001 42.5781 94.542 42.3145C94.0928 42.041 93.5508 41.9043 92.916 41.9043C92.291 41.9043 91.7539 42.041 91.3047 42.3145C90.8555 42.5781 90.4893 42.9443 90.2061 43.4131C89.9229 43.8721 89.7129 44.4043 89.5762 45.0098C89.4395 45.6055 89.3711 46.2451 89.3711 46.9287ZM102.496 47.2363V46.9287C102.496 45.7666 102.662 44.6973 102.994 43.7207C103.326 42.7344 103.81 41.8799 104.444 41.1572C105.079 40.4346 105.855 39.873 106.773 39.4727C107.691 39.0625 108.736 38.8574 109.908 38.8574C111.1 38.8574 112.154 39.0625 113.072 39.4727C114 39.873 114.781 40.4346 115.416 41.1572C116.051 41.8799 116.534 42.7344 116.866 43.7207C117.198 44.6973 117.364 45.7666 117.364 46.9287V47.2363C117.364 48.3887 117.198 49.458 116.866 50.4443C116.534 51.4209 116.051 52.2754 115.416 53.0078C114.781 53.7305 114.005 54.292 113.087 54.6924C112.169 55.0928 111.119 55.293 109.938 55.293C108.766 55.293 107.716 55.0928 106.788 54.6924C105.86 54.292 105.079 53.7305 104.444 53.0078C103.81 52.2754 103.326 51.4209 102.994 50.4443C102.662 49.458 102.496 48.3887 102.496 47.2363ZM106.363 46.9287V47.2363C106.363 47.9297 106.432 48.5791 106.568 49.1846C106.705 49.79 106.915 50.3223 107.198 50.7812C107.481 51.2402 107.848 51.6016 108.297 51.8652C108.756 52.1191 109.303 52.2461 109.938 52.2461C110.562 52.2461 111.1 52.1191 111.549 51.8652C111.998 51.6016 112.364 51.2402 112.647 50.7812C112.94 50.3223 113.155 49.79 113.292 49.1846C113.429 48.5791 113.497 47.9297 113.497 47.2363V46.9287C113.497 46.2451 113.429 45.6055 113.292 45.0098C113.155 44.4043 112.94 43.8721 112.647 43.4131C112.364 42.9443 111.993 42.5781 111.534 42.3145C111.085 42.041 110.543 41.9043 109.908 41.9043C109.283 41.9043 108.746 42.041 108.297 42.3145C107.848 42.5781 107.481 42.9443 107.198 43.4131C106.915 43.8721 106.705 44.4043 106.568 45.0098C106.432 45.6055 106.363 46.2451 106.363 46.9287ZM130.255 39.1504H133.771V54.5166C133.771 55.9521 133.458 57.168 132.833 58.1641C132.218 59.1699 131.354 59.9316 130.24 60.4492C129.127 60.9766 127.833 61.2402 126.358 61.2402C125.724 61.2402 125.035 61.1523 124.293 60.9766C123.561 60.8008 122.853 60.5225 122.169 60.1416C121.495 59.7705 120.934 59.2871 120.484 58.6914L122.228 56.4062C122.755 57.0215 123.351 57.4854 124.015 57.7979C124.679 58.1201 125.396 58.2812 126.168 58.2812C126.949 58.2812 127.613 58.1348 128.16 57.8418C128.717 57.5586 129.142 57.1387 129.435 56.582C129.737 56.0352 129.889 55.3613 129.889 54.5605V42.7686L130.255 39.1504ZM119.547 47.2656V46.958C119.547 45.7471 119.693 44.6484 119.986 43.6621C120.279 42.666 120.699 41.8115 121.246 41.0986C121.803 40.3857 122.472 39.834 123.253 39.4434C124.044 39.0527 124.933 38.8574 125.919 38.8574C126.964 38.8574 127.843 39.0479 128.556 39.4287C129.278 39.8096 129.874 40.3516 130.343 41.0547C130.821 41.7578 131.192 42.5928 131.456 43.5596C131.729 44.5166 131.939 45.5713 132.086 46.7236V47.5586C131.949 48.6816 131.729 49.7119 131.427 50.6494C131.134 51.5869 130.743 52.4072 130.255 53.1104C129.767 53.8037 129.161 54.3408 128.438 54.7217C127.716 55.1025 126.866 55.293 125.89 55.293C124.913 55.293 124.034 55.0928 123.253 54.6924C122.472 54.292 121.803 53.7305 121.246 53.0078C120.699 52.2852 120.279 51.4355 119.986 50.459C119.693 49.4824 119.547 48.418 119.547 47.2656ZM123.414 46.958V47.2656C123.414 47.9492 123.482 48.5889 123.619 49.1846C123.756 49.7803 123.966 50.3076 124.249 50.7666C124.532 51.2158 124.889 51.5674 125.318 51.8213C125.748 52.0752 126.261 52.2021 126.856 52.2021C127.657 52.2021 128.312 52.0361 128.819 51.7041C129.337 51.3623 129.728 50.8984 129.991 50.3125C130.265 49.7168 130.44 49.0479 130.519 48.3057V46.0059C130.47 45.4199 130.362 44.8779 130.196 44.3799C130.04 43.8818 129.82 43.4521 129.537 43.0908C129.254 42.7295 128.893 42.4463 128.453 42.2412C128.014 42.0361 127.491 41.9336 126.886 41.9336C126.3 41.9336 125.787 42.0654 125.348 42.3291C124.908 42.583 124.547 42.9395 124.264 43.3984C123.98 43.8574 123.766 44.3896 123.619 44.9951C123.482 45.6006 123.414 46.2549 123.414 46.958ZM141.358 32.5V55H137.477V32.5H141.358ZM152.169 55.293C150.968 55.293 149.889 55.0977 148.932 54.707C147.975 54.3164 147.159 53.7744 146.485 53.0811C145.821 52.3779 145.309 51.5625 144.947 50.6348C144.596 49.6973 144.42 48.6914 144.42 47.6172V47.0312C144.42 45.8105 144.596 44.7021 144.947 43.7061C145.299 42.7002 145.797 41.8359 146.441 41.1133C147.086 40.3906 147.857 39.834 148.756 39.4434C149.654 39.0527 150.646 38.8574 151.729 38.8574C152.853 38.8574 153.844 39.0479 154.703 39.4287C155.562 39.7998 156.28 40.3271 156.856 41.0107C157.433 41.6943 157.867 42.5146 158.16 43.4717C158.453 44.4189 158.6 45.4688 158.6 46.6211V48.2471H146.178V45.5811H154.791V45.2881C154.771 44.6729 154.654 44.1113 154.439 43.6035C154.225 43.0859 153.893 42.6758 153.443 42.373C152.994 42.0605 152.413 41.9043 151.7 41.9043C151.124 41.9043 150.621 42.0312 150.191 42.2852C149.771 42.5293 149.42 42.8809 149.137 43.3398C148.863 43.7891 148.658 44.3262 148.521 44.9512C148.385 45.5762 148.316 46.2695 148.316 47.0312V47.6172C148.316 48.2812 148.404 48.8965 148.58 49.4629C148.766 50.0293 149.034 50.5225 149.386 50.9424C149.747 51.3525 150.177 51.6748 150.675 51.9092C151.183 52.1338 151.759 52.2461 152.403 52.2461C153.214 52.2461 153.946 52.0898 154.601 51.7773C155.265 51.4551 155.841 50.9814 156.329 50.3564L158.277 52.3779C157.945 52.8662 157.496 53.335 156.93 53.7842C156.373 54.2334 155.699 54.5996 154.908 54.8828C154.117 55.1562 153.204 55.293 152.169 55.293ZM177.159 47.2217H171.666V44.0576H177.159C178.058 44.0576 178.785 43.9111 179.342 43.6182C179.908 43.3154 180.323 42.9053 180.587 42.3877C180.851 41.8604 180.982 41.2598 180.982 40.5859C180.982 39.9316 180.851 39.3213 180.587 38.7549C180.323 38.1885 179.908 37.7295 179.342 37.3779C178.785 37.0264 178.058 36.8506 177.159 36.8506H172.984V55H168.956V33.6719H177.159C178.819 33.6719 180.235 33.9697 181.407 34.5654C182.589 35.1514 183.487 35.9668 184.103 37.0117C184.728 38.0469 185.04 39.2285 185.04 40.5566C185.04 41.9336 184.728 43.1201 184.103 44.1162C183.487 45.1123 182.589 45.8789 181.407 46.416C180.235 46.9531 178.819 47.2217 177.159 47.2217ZM192.013 32.5V55H188.131V32.5H192.013ZM204.435 51.6309V44.3213C204.435 43.7842 204.342 43.3203 204.156 42.9297C203.971 42.5391 203.688 42.2363 203.307 42.0215C202.926 41.8066 202.442 41.6992 201.856 41.6992C201.339 41.6992 200.885 41.7871 200.494 41.9629C200.113 42.1387 199.82 42.3877 199.615 42.71C199.41 43.0225 199.308 43.3838 199.308 43.7939H195.426C195.426 43.1396 195.582 42.5195 195.895 41.9336C196.207 41.3379 196.651 40.8105 197.228 40.3516C197.813 39.8828 198.512 39.5166 199.322 39.2529C200.143 38.9893 201.061 38.8574 202.076 38.8574C203.277 38.8574 204.347 39.0625 205.284 39.4727C206.231 39.873 206.974 40.4785 207.511 41.2891C208.058 42.0996 208.331 43.1201 208.331 44.3506V51.2646C208.331 52.0557 208.38 52.7344 208.478 53.3008C208.585 53.8574 208.741 54.3408 208.946 54.751V55H205.006C204.82 54.5996 204.679 54.0918 204.581 53.4766C204.483 52.8516 204.435 52.2363 204.435 51.6309ZM204.977 45.3467L205.006 47.6465H202.56C201.954 47.6465 201.422 47.71 200.963 47.8369C200.504 47.9541 200.128 48.1299 199.835 48.3643C199.542 48.5889 199.322 48.8623 199.176 49.1846C199.029 49.4971 198.956 49.8535 198.956 50.2539C198.956 50.6445 199.044 50.9961 199.22 51.3086C199.405 51.6211 199.669 51.8701 200.011 52.0557C200.362 52.2314 200.772 52.3193 201.241 52.3193C201.925 52.3193 202.521 52.1826 203.028 51.9092C203.536 51.626 203.932 51.2842 204.215 50.8838C204.498 50.4834 204.649 50.1025 204.669 49.7412L205.782 51.4111C205.646 51.8115 205.44 52.2363 205.167 52.6855C204.894 53.1348 204.542 53.5547 204.112 53.9453C203.683 54.3359 203.165 54.6582 202.56 54.9121C201.954 55.166 201.251 55.293 200.45 55.293C199.425 55.293 198.507 55.0879 197.696 54.6777C196.886 54.2676 196.246 53.7061 195.777 52.9932C195.309 52.2803 195.074 51.4697 195.074 50.5615C195.074 49.7217 195.23 48.9795 195.543 48.335C195.855 47.6904 196.319 47.1484 196.935 46.709C197.55 46.2598 198.312 45.9229 199.22 45.6982C200.138 45.4639 201.188 45.3467 202.369 45.3467H204.977ZM216.227 53.2422L220.475 39.1504H224.62L218.263 57.4023C218.116 57.793 217.926 58.2178 217.691 58.6768C217.467 59.1357 217.164 59.5703 216.783 59.9805C216.402 60.4004 215.924 60.7422 215.348 61.0059C214.781 61.2695 214.093 61.4014 213.282 61.4014C212.931 61.4014 212.618 61.377 212.345 61.3281C212.071 61.2793 211.783 61.2158 211.48 61.1377V58.2373C211.578 58.2471 211.69 58.252 211.817 58.252C211.954 58.2617 212.071 58.2666 212.169 58.2666C212.735 58.2666 213.204 58.1982 213.575 58.0615C213.946 57.9346 214.244 57.7246 214.469 57.4316C214.703 57.1484 214.898 56.7773 215.055 56.3184L216.227 53.2422ZM214.132 39.1504L217.721 50.8252L218.351 54.9121L215.685 55.3955L209.957 39.1504H214.132Z" fill="white"/>
<path d="M73.3384 17.4849V21.6377C73.1821 21.8379 72.9355 22.0552 72.5986 22.2896C72.2666 22.5239 71.832 22.7266 71.2949 22.8975C70.7578 23.0635 70.0986 23.1465 69.3174 23.1465C68.6387 23.1465 68.0186 23.0342 67.457 22.8096C66.8955 22.5801 66.4121 22.2456 66.0068 21.8062C65.6016 21.3667 65.2891 20.8296 65.0693 20.1948C64.8496 19.5601 64.7397 18.835 64.7397 18.0195V17.3164C64.7397 16.501 64.8423 15.7759 65.0474 15.1411C65.2573 14.5063 65.5552 13.9692 65.9409 13.5298C66.3315 13.0903 66.7979 12.7559 67.3398 12.5264C67.8867 12.2969 68.4971 12.1821 69.1709 12.1821C70.0742 12.1821 70.8164 12.3311 71.3975 12.6289C71.9834 12.9268 72.4326 13.3369 72.7451 13.8594C73.0576 14.377 73.2529 14.9727 73.3311 15.6465H71.3682C71.3145 15.2754 71.207 14.9507 71.0459 14.6724C70.8848 14.3892 70.6553 14.1694 70.3574 14.0132C70.0645 13.8521 69.6836 13.7715 69.2148 13.7715C68.8193 13.7715 68.4702 13.8496 68.1675 14.0059C67.8647 14.1621 67.6108 14.3892 67.4058 14.687C67.2007 14.9849 67.0444 15.3535 66.937 15.793C66.8345 16.2324 66.7832 16.7354 66.7832 17.3018V18.0195C66.7832 18.5908 66.8418 19.0986 66.959 19.543C67.0762 19.9824 67.2446 20.3535 67.4644 20.6562C67.689 20.9541 67.9648 21.1812 68.292 21.3374C68.624 21.4888 69 21.5645 69.4199 21.5645C69.8008 21.5645 70.1157 21.5327 70.3647 21.4692C70.6187 21.4009 70.8213 21.3203 70.9727 21.2275C71.124 21.1348 71.2412 21.0444 71.3242 20.9565V18.957H69.2075V17.4849H73.3384ZM78.6558 23.1465C78.0552 23.1465 77.5156 23.0488 77.0371 22.8535C76.5586 22.6582 76.1509 22.3872 75.814 22.0405C75.4819 21.689 75.2256 21.2812 75.0449 20.8174C74.8691 20.3486 74.7812 19.8457 74.7812 19.3086V19.0156C74.7812 18.4053 74.8691 17.8511 75.0449 17.353C75.2207 16.8501 75.4697 16.418 75.792 16.0566C76.1143 15.6953 76.5 15.417 76.9492 15.2217C77.3984 15.0264 77.894 14.9287 78.436 14.9287C78.9976 14.9287 79.4932 15.0239 79.9229 15.2144C80.3525 15.3999 80.7114 15.6636 80.9995 16.0054C81.2876 16.3472 81.5049 16.7573 81.6514 17.2358C81.7979 17.7095 81.8711 18.2344 81.8711 18.8105V19.6235H75.6602V18.2905H79.9668V18.144C79.957 17.8364 79.8984 17.5557 79.791 17.3018C79.6836 17.043 79.5176 16.8379 79.293 16.6865C79.0684 16.5303 78.7778 16.4521 78.4214 16.4521C78.1333 16.4521 77.8818 16.5156 77.667 16.6426C77.457 16.7646 77.2812 16.9404 77.1396 17.1699C77.0029 17.3945 76.9004 17.6631 76.832 17.9756C76.7637 18.2881 76.7295 18.6348 76.7295 19.0156V19.3086C76.7295 19.6406 76.7734 19.9482 76.8613 20.2314C76.9541 20.5146 77.0884 20.7612 77.2642 20.9712C77.4448 21.1763 77.6597 21.3374 77.9087 21.4546C78.1626 21.5669 78.4507 21.623 78.7729 21.623C79.1782 21.623 79.5444 21.5449 79.8716 21.3887C80.2036 21.2275 80.4917 20.9907 80.7358 20.6782L81.71 21.689C81.5439 21.9331 81.3193 22.1675 81.0361 22.3921C80.7578 22.6167 80.4209 22.7998 80.0254 22.9414C79.6299 23.0781 79.1733 23.1465 78.6558 23.1465ZM86.9175 15.0752V16.4668H82.3765V15.0752H86.9175ZM83.5923 13.127H85.5332V20.7148C85.5332 20.9492 85.5649 21.1299 85.6284 21.2568C85.6919 21.3838 85.7871 21.4692 85.9141 21.5132C86.041 21.5571 86.1924 21.5791 86.3682 21.5791C86.4951 21.5791 86.6123 21.5718 86.7197 21.5571C86.8271 21.5425 86.9175 21.5278 86.9907 21.5132L86.998 22.9634C86.8369 23.0171 86.6538 23.061 86.4487 23.0952C86.2485 23.1294 86.0215 23.1465 85.7676 23.1465C85.333 23.1465 84.9521 23.0732 84.625 22.9268C84.2979 22.7754 84.0439 22.5337 83.8633 22.2017C83.6826 21.8647 83.5923 21.4204 83.5923 20.8687V13.127ZM93.9927 15.0752V23H92.0518V15.0752H93.9927ZM91.9199 13.0024C91.9199 12.7144 92.0176 12.4751 92.2129 12.2847C92.4131 12.0942 92.6816 11.999 93.0186 11.999C93.3555 11.999 93.6216 12.0942 93.8169 12.2847C94.0171 12.4751 94.1172 12.7144 94.1172 13.0024C94.1172 13.2856 94.0171 13.5225 93.8169 13.7129C93.6216 13.9033 93.3555 13.9985 93.0186 13.9985C92.6816 13.9985 92.4131 13.9033 92.2129 13.7129C92.0176 13.5225 91.9199 13.2856 91.9199 13.0024ZM99.5884 15.0752V16.4668H95.0474V15.0752H99.5884ZM96.2632 13.127H98.2041V20.7148C98.2041 20.9492 98.2358 21.1299 98.2993 21.2568C98.3628 21.3838 98.458 21.4692 98.585 21.5132C98.7119 21.5571 98.8633 21.5791 99.0391 21.5791C99.166 21.5791 99.2832 21.5718 99.3906 21.5571C99.498 21.5425 99.5884 21.5278 99.6616 21.5132L99.6689 22.9634C99.5078 23.0171 99.3247 23.061 99.1196 23.0952C98.9194 23.1294 98.6924 23.1465 98.4385 23.1465C98.0039 23.1465 97.623 23.0732 97.2959 22.9268C96.9688 22.7754 96.7148 22.5337 96.5342 22.2017C96.3535 21.8647 96.2632 21.4204 96.2632 20.8687V13.127ZM104.269 19.1182V18.9644C104.269 18.3833 104.352 17.8486 104.518 17.3604C104.684 16.8672 104.925 16.4399 105.243 16.0786C105.56 15.7173 105.948 15.4365 106.407 15.2363C106.866 15.0312 107.389 14.9287 107.975 14.9287C108.57 14.9287 109.098 15.0312 109.557 15.2363C110.021 15.4365 110.411 15.7173 110.729 16.0786C111.046 16.4399 111.288 16.8672 111.454 17.3604C111.62 17.8486 111.703 18.3833 111.703 18.9644V19.1182C111.703 19.6943 111.62 20.229 111.454 20.7222C111.288 21.2104 111.046 21.6377 110.729 22.0039C110.411 22.3652 110.023 22.646 109.564 22.8462C109.105 23.0464 108.58 23.1465 107.989 23.1465C107.403 23.1465 106.878 23.0464 106.415 22.8462C105.951 22.646 105.56 22.3652 105.243 22.0039C104.925 21.6377 104.684 21.2104 104.518 20.7222C104.352 20.229 104.269 19.6943 104.269 19.1182ZM106.202 18.9644V19.1182C106.202 19.4648 106.236 19.7896 106.305 20.0923C106.373 20.395 106.478 20.6611 106.62 20.8906C106.761 21.1201 106.944 21.3008 107.169 21.4326C107.398 21.5596 107.672 21.623 107.989 21.623C108.302 21.623 108.57 21.5596 108.795 21.4326C109.02 21.3008 109.203 21.1201 109.344 20.8906C109.491 20.6611 109.598 20.395 109.667 20.0923C109.735 19.7896 109.769 19.4648 109.769 19.1182V18.9644C109.769 18.6226 109.735 18.3027 109.667 18.0049C109.598 17.7021 109.491 17.436 109.344 17.2065C109.203 16.9722 109.017 16.7891 108.788 16.6572C108.563 16.5205 108.292 16.4521 107.975 16.4521C107.662 16.4521 107.394 16.5205 107.169 16.6572C106.944 16.7891 106.761 16.9722 106.62 17.2065C106.478 17.436 106.373 17.7021 106.305 18.0049C106.236 18.3027 106.202 18.6226 106.202 18.9644ZM115.006 16.7671V23H113.072V15.0752H114.889L115.006 16.7671ZM114.698 18.752H114.127C114.132 18.1758 114.21 17.6533 114.361 17.1846C114.513 16.7158 114.725 16.313 114.999 15.9761C115.277 15.6392 115.606 15.3804 115.987 15.1997C116.368 15.019 116.793 14.9287 117.262 14.9287C117.643 14.9287 117.987 14.9824 118.294 15.0898C118.602 15.1973 118.866 15.3682 119.085 15.6025C119.31 15.8369 119.481 16.1445 119.598 16.5254C119.72 16.9014 119.781 17.3652 119.781 17.917V23H117.833V17.9023C117.833 17.541 117.779 17.2554 117.672 17.0454C117.569 16.8354 117.418 16.6865 117.218 16.5986C117.022 16.5107 116.781 16.4668 116.493 16.4668C116.195 16.4668 115.934 16.5278 115.709 16.6499C115.489 16.7671 115.304 16.9307 115.152 17.1406C115.006 17.3506 114.894 17.5923 114.815 17.8657C114.737 18.1392 114.698 18.4346 114.698 18.752Z" fill="white"/>
<path d="M34.1273 33.5805L17.1562 51.5933C17.1569 51.5971 17.1582 51.6002 17.1588 51.6039C17.6793 53.5597 19.4657 55 21.586 55C22.4335 55 23.2293 54.7709 23.9117 54.3686L23.9659 54.3368L43.069 43.3136L34.1273 33.5805Z" fill="#EB3131"/>
<path d="M51.2973 30.513L51.2811 30.5019L43.0338 25.7208L33.7422 33.9889L43.0661 43.3115L51.2699 38.578C52.7082 37.8015 53.6846 36.2853 53.6846 34.5367C53.6846 32.8008 52.7213 31.292 51.2973 30.513Z" fill="#F6B60B"/>
<path d="M17.1556 17.4057C17.0536 17.7819 17 18.176 17 18.5852V50.4146C17 50.823 17.053 51.2184 17.1563 51.5933L34.7114 34.0413L17.1556 17.4057Z" fill="#5778C5"/>
<path d="M34.2531 34.499L43.0373 25.7174L23.9558 14.6543C23.2623 14.2389 22.4528 13.9992 21.5866 13.9992C19.4664 13.9992 17.6775 15.442 17.1569 17.4002C17.1562 17.4022 17.1563 17.4034 17.1563 17.4052L34.2531 34.499Z" fill="#3BAD49"/>
</svg>
