<svg width="148" height="26" viewBox="0 0 148 26" fill="none" xmlns="http://www.w3.org/2000/svg">
<g clip-path="url(#clip0_6254_20)">
<path d="M113.064 11.3922C113.064 13.1823 113.064 14.8137 113.064 16.445C113.064 17.7299 113.053 19.0148 113.072 20.2991C113.077 20.6805 112.95 20.8204 112.565 20.8036C111.997 20.7796 111.428 20.7809 110.86 20.8036C110.515 20.8172 110.382 20.7233 110.383 20.3509C110.395 16.0299 110.395 11.7083 110.383 7.38732C110.382 7.02011 110.507 6.93722 110.856 6.92945C113.039 6.87958 113.031 6.87699 114.277 8.65343C116.045 11.1721 117.826 13.6823 119.602 16.195C119.657 16.2721 119.724 16.3401 119.795 16.4237C119.992 16.2494 119.899 16.0441 119.899 15.8706C119.906 13.0871 119.914 10.3036 119.895 7.52008C119.893 7.07581 119.991 6.8867 120.475 6.9275C120.98 6.97025 121.493 6.95082 122.002 6.93268C122.339 6.92038 122.496 7.00975 122.495 7.38538C122.486 11.7063 122.487 16.028 122.494 20.3489C122.494 20.6669 122.402 20.8327 122.062 20.7984C122.024 20.7945 121.983 20.7925 121.945 20.7984C120.443 21.0516 119.467 20.5238 118.614 19.1832C116.976 16.6069 115.1 14.1796 113.321 11.6914C113.278 11.6319 113.225 11.5794 113.064 11.3929V11.3922Z" fill="#F6E709"/>
<path d="M81.7039 13.8114C81.7039 11.7085 81.7143 9.60505 81.6954 7.5022C81.6915 7.08124 81.7933 6.92322 82.2486 6.92581C85.3463 6.94395 88.4441 6.94071 91.5419 6.9284C91.9202 6.92711 92.065 7.02555 92.0415 7.4193C92.0089 7.96266 92.0089 8.51056 92.0415 9.05391C92.0663 9.46257 91.9307 9.58497 91.5171 9.58108C89.3802 9.5623 87.2426 9.58562 85.1063 9.5623C84.6327 9.55712 84.4403 9.66268 84.4729 10.1691C84.5166 10.8478 84.5094 11.533 84.4742 12.2124C84.452 12.6444 84.5773 12.7784 85.0261 12.7732C86.9275 12.7486 88.8296 12.781 90.7311 12.7506C91.2294 12.7428 91.3834 12.8859 91.3384 13.3678C91.2966 13.812 91.3031 14.2647 91.3377 14.7103C91.369 15.1125 91.2027 15.198 90.8328 15.1947C88.9314 15.1798 87.0286 15.2064 85.1278 15.1759C84.6145 15.1675 84.4579 15.297 84.4716 15.821C84.5094 17.3001 84.4742 18.7806 84.4918 20.2605C84.4964 20.6561 84.3914 20.8271 83.9641 20.8038C83.3973 20.7727 82.8259 20.7708 82.259 20.8038C81.8135 20.8304 81.6915 20.6698 81.6954 20.2371C81.715 18.0954 81.7046 15.9531 81.7046 13.8114H81.7039Z" fill="#F6E709"/>
<path d="M102.055 14.9979C102.055 13.2467 102.045 11.4961 102.062 9.74496C102.066 9.36998 101.962 9.23528 101.57 9.2437C100.493 9.26701 99.4151 9.23657 98.3382 9.25924C97.9514 9.26701 97.8072 9.14137 97.8274 8.76057C97.8496 8.33378 97.8594 7.90246 97.8248 7.47762C97.7876 7.02363 97.9801 6.92519 98.4034 6.92778C101.087 6.94397 103.771 6.9362 106.454 6.9362C107.14 6.9362 107.825 6.94721 108.511 6.93167C108.834 6.92455 108.982 7.02946 108.961 7.36558C108.922 7.96399 109.198 8.71782 108.855 9.12C108.52 9.51117 107.749 9.22362 107.17 9.24694C106.545 9.27219 105.915 9.27996 105.29 9.24305C104.85 9.21714 104.729 9.35315 104.732 9.79289C104.752 12.6528 104.742 15.5127 104.742 18.3726C104.742 18.9756 104.714 19.5805 104.752 20.1815C104.782 20.6491 104.662 20.8544 104.15 20.8077C103.664 20.763 103.169 20.7702 102.682 20.8064C102.204 20.8414 102.035 20.6924 102.043 20.1944C102.072 18.4633 102.054 16.7316 102.054 15.0005L102.055 14.9979Z" fill="#F6E709"/>
<path d="M96.3775 13.8664C96.3775 15.968 96.3644 18.0695 96.3873 20.1711C96.3925 20.6406 96.2842 20.8465 95.7748 20.8051C95.2686 20.7643 94.7546 20.7669 94.2477 20.8051C93.782 20.8401 93.6548 20.6814 93.6567 20.2196C93.6757 16.6396 93.6672 13.0588 93.6672 9.47875C93.6672 8.81688 93.6913 8.15436 93.6587 7.49442C93.6378 7.07217 93.7448 6.89213 94.2053 6.9271C94.7311 6.96661 95.2647 6.96402 95.7911 6.92775C96.2457 6.89666 96.3944 7.02943 96.3886 7.50479C96.3618 9.62512 96.3768 11.7467 96.3768 13.8677L96.3775 13.8664Z" fill="#F6E709"/>
<path d="M130.082 9.56815C128.536 9.56815 126.99 9.55779 125.444 9.57528C125.062 9.57981 124.926 9.46842 124.947 9.0792C124.979 8.51706 124.976 7.95103 124.949 7.38889C124.931 7.02104 125.073 6.93231 125.423 6.93361C128.554 6.94462 131.686 6.94462 134.817 6.93361C135.169 6.93231 135.31 7.03593 135.296 7.39666C135.273 7.95945 135.269 8.52483 135.296 9.08697C135.316 9.48461 135.149 9.57852 134.779 9.57463C133.213 9.55909 131.648 9.56815 130.082 9.56751L130.082 9.56815Z" fill="#91F532"/>
<path d="M142.786 9.56848C141.24 9.56848 139.693 9.55941 138.147 9.57495C137.775 9.57884 137.62 9.48558 137.643 9.086C137.677 8.50443 137.664 7.91962 137.647 7.33675C137.638 7.03237 137.75 6.93458 138.054 6.93523C141.226 6.943 144.397 6.94429 147.568 6.93458C147.919 6.93328 148.001 7.08289 147.993 7.39116C147.979 7.95459 147.969 8.51932 147.995 9.08211C148.014 9.47328 147.861 9.57949 147.484 9.5756C145.918 9.55876 144.352 9.56848 142.786 9.56848Z" fill="#91F532"/>
<path d="M130.084 18.1593C131.65 18.1593 133.217 18.169 134.783 18.1521C135.159 18.1483 135.315 18.2512 135.296 18.6437C135.269 19.2065 135.272 19.7719 135.296 20.3347C135.311 20.6999 135.165 20.8003 134.816 20.799C131.683 20.7893 128.55 20.7886 125.417 20.8003C125.062 20.8016 124.932 20.698 124.949 20.3372C124.975 19.7745 124.98 19.2084 124.948 18.6463C124.925 18.2564 125.062 18.147 125.445 18.1515C126.991 18.169 128.539 18.1586 130.085 18.1586L130.084 18.1593Z" fill="#91F533"/>
<path d="M142.851 18.1584C144.378 18.1584 145.906 18.1733 147.433 18.1487C147.874 18.1416 148.025 18.2724 147.997 18.7102C147.964 19.2529 147.977 19.7995 147.994 20.3435C148.004 20.6602 147.907 20.7988 147.564 20.7982C144.392 20.7897 141.219 20.7904 138.047 20.7982C137.734 20.7988 137.639 20.6829 137.647 20.3869C137.662 19.804 137.676 19.2186 137.643 18.637C137.619 18.2342 137.781 18.1481 138.15 18.1519C139.717 18.1675 141.284 18.1584 142.85 18.1584H142.851Z" fill="#91F533"/>
<path d="M130.077 15.1041C128.551 15.1041 127.025 15.0867 125.499 15.1151C125.05 15.1236 124.919 14.985 124.949 14.5556C124.985 14.053 124.97 13.5453 124.954 13.0408C124.945 12.7487 125.033 12.6283 125.35 12.6289C128.538 12.638 131.727 12.6367 134.917 12.6302C135.194 12.6302 135.303 12.7254 135.296 13.0019C135.282 13.5071 135.267 14.0142 135.3 14.5167C135.33 14.9668 135.192 15.1249 134.714 15.1151C133.169 15.0854 131.623 15.1041 130.077 15.1041Z" fill="#91F533"/>
<path d="M142.856 15.1038C141.33 15.1038 139.803 15.0773 138.278 15.1181C137.734 15.133 137.652 14.9549 137.645 14.4601C137.638 13.929 137.638 13.872 137.651 13.0036C137.644 12.7309 137.743 12.6292 138.024 12.6299C141.214 12.6364 144.403 12.6357 147.593 12.6312C147.847 12.6312 148.002 12.6804 147.995 12.9796C147.982 13.543 147.975 14.1078 147.998 14.6699C148.014 15.0565 147.821 15.1109 147.495 15.109C145.949 15.098 144.403 15.1038 142.857 15.1038H142.856Z" fill="#91F533"/>
<path d="M76 7.64053H71.0869V4.92783H66.1739V3H61.2343V11.9808V16.0282V17.5907H49V20.2889H61.2343V25H66.1739V23.0722H71.0869V20.3595H76V7.64053Z" fill="#F6E709"/>
<path d="M53 13.309H42.8623L34.6926 0L29.7856 18.5436L25.581 12.6607H14.2399V11.9784V3.11829H9.47741V5.02212H4.73871V7.70106H0V20.2617H4.73871V22.9407H9.47741V24.8445H14.2399V15.9754V15.3253H23.6204L31.2469 26L35.9655 8.16719L40.7591 15.9736H53V13.309Z" fill="#F6E709"/>
</g>
<defs>
<clipPath id="clip0_6254_20">
<rect width="148" height="26" fill="white"/>
</clipPath>
</defs>
</svg>
