<svg width="212" height="213" viewBox="0 0 212 213" fill="none" xmlns="http://www.w3.org/2000/svg">
<g clip-path="url(#clip0_1180_12340)">
<path d="M21.1797 21.6217H42.3556V42.7976H21.1797V21.6217ZM148.235 0.445801V11.0338H137.647V21.6217H148.235V63.9735H158.823V74.5615H148.235V85.1495H169.411V63.9735H201.175V74.5615H211.763V0.445801H148.235ZM201.175 53.3856H158.823V11.0338H201.175V53.3856Z" fill="black"/>
<path d="M169.407 21.6216H190.583V42.7976H169.407V21.6216ZM21.1759 169.853H42.3518V191.029H21.1759V169.853ZM148.231 148.677H158.819V159.265H148.231V148.677ZM95.2916 201.617H105.88V212.205H95.2916V201.617ZM105.88 159.265H116.468V169.853H105.88V159.265ZM105.88 180.441H116.468V191.029H105.88V180.441ZM201.171 127.501H211.759V138.089H201.171V127.501ZM0 127.501H10.588V138.089H0V127.501ZM0 74.5614H10.588V85.1494H0V74.5614ZM116.468 11.0337V21.6216H95.2916V32.2096H127.055V11.0337H116.468Z" fill="black"/>
<path d="M201.173 85.1494V95.7374H179.997V106.325H148.233V95.7374H137.645V106.325H116.469V116.913H148.233V127.501H116.469V116.913H105.881V127.501H95.2931V116.913H84.7051V127.501H74.1172V138.089H95.2931V148.677H105.881V138.089H127.057V148.677H116.469V159.265H127.057V180.441H137.645V191.029H148.233V180.441H179.997V159.265H190.585V148.677H179.997V127.501H158.821V116.913H179.997V127.501H190.585V116.913H201.173V106.325H211.761V85.1494H201.173ZM169.409 138.089V169.853H137.645V138.089H169.409ZM137.645 63.9735H127.057V74.5614H116.469V95.7374H127.057V85.1494H137.645V74.5614H148.233V63.9735H137.645ZM116.469 201.617H137.645V212.205H116.469V201.617ZM84.7051 11.0337H95.2931V21.6216H84.7051V11.0337Z" fill="black"/>
<path d="M169.407 85.1491H179.995V95.737H169.407V85.1491ZM179.995 74.5611H190.583V85.1491H179.995V74.5611ZM42.3518 127.501H52.9398V138.089H42.3518V127.501ZM63.5277 201.617V159.265H74.1157V138.089H63.5277V148.677H31.7639V138.089H10.588V148.677H0V212.205H84.7037V201.617H63.5277ZM52.9398 201.617H10.588V159.265H52.9398V201.617ZM63.5277 63.9731H74.1157V74.5611H63.5277V63.9731Z" fill="black"/>
<path d="M74.1157 0.445801H0V63.9735H10.588V74.5615H21.1759V63.9735H31.7639V74.5615H42.3518V63.9735H63.5277V42.7976H74.1157V32.2097H63.5277V11.0338H84.7037V0.445801H74.1157ZM52.9398 53.3856H10.588V11.0338H52.9398V53.3856ZM127.055 32.2097H137.643V42.7976H127.055V32.2097ZM105.88 0.445801H116.468V11.0338H105.88V0.445801Z" fill="black"/>
<path d="M127.055 63.9728V53.3848H116.468V42.7969H105.88V53.3848H84.7037V42.7969H74.1157V63.9728H84.7037V85.1487H52.9398V74.5607H42.3518V85.1487H10.588V95.7367H31.7639V106.325H0V116.913H31.7639V127.501H42.3518V116.913H52.9398V127.501H63.5277V116.913H84.7037V106.325H74.1157V95.7367H95.2916V106.325H116.468V95.7367H105.88V85.1487H95.2916V63.9728H127.055ZM63.5277 106.325H42.3518V95.7367H63.5277V106.325ZM95.2916 169.852V148.676H84.7037V159.264H74.1157V169.852H84.7037V180.44H74.1157V191.028H95.2916V180.44H105.88V169.852H95.2916ZM190.583 191.028V180.44H179.995V191.028H148.231V201.616H169.407V212.204H179.995V201.616H201.171V212.204H211.759V191.028H190.583ZM201.171 148.676V159.264H190.583V169.852H211.759V148.676H201.171Z" fill="black"/>
</g>
<defs>
<clipPath id="clip0_1180_12340">
<rect width="211.759" height="211.759" fill="white" transform="translate(0 0.445801)"/>
</clipPath>
</defs>
</svg>
