<svg width="18" height="19" viewBox="0 0 18 19" fill="none" xmlns="http://www.w3.org/2000/svg">
<g clip-path="url(#clip0_1180_12151)">
<path d="M8.87174 9.17067C10.0629 9.17067 11.0942 8.74342 11.9372 7.90048C12.7798 7.05772 13.2072 6.02652 13.2072 4.83521C13.2072 3.64426 12.78 2.61296 11.937 1.76988C11.0941 0.927218 10.0628 0.5 8.87174 0.5C7.6804 0.5 6.64916 0.927218 5.8064 1.77002C4.96363 2.61282 4.53624 3.64416 4.53624 4.83521C4.53624 6.02652 4.9636 7.05786 5.80643 7.90066C6.64948 8.74332 7.68082 9.17067 8.8717 9.17067H8.87174ZM6.55238 2.51586C7.19904 1.86916 7.95767 1.55483 8.87174 1.55483C9.78566 1.55483 10.5444 1.86916 11.1912 2.51586C11.8379 3.16266 12.1524 3.9214 12.1524 4.83518C12.1524 5.74924 11.8379 6.50787 11.1912 7.15468C10.5444 7.80152 9.78566 8.11585 8.87174 8.11585C7.95792 8.11585 7.19936 7.80138 6.55238 7.15468C5.90554 6.50802 5.59107 5.74927 5.59107 4.83521C5.59107 3.9214 5.90554 3.16266 6.55238 2.51586ZM16.4576 14.3411C16.4333 13.9904 16.3842 13.6077 16.3118 13.2038C16.2387 12.7967 16.1447 12.4119 16.032 12.0602C15.9156 11.6967 15.7575 11.3377 15.5618 10.9937C15.359 10.6367 15.1206 10.3257 14.8531 10.0699C14.5733 9.80225 14.2308 9.58706 13.8348 9.43006C13.4401 9.27396 13.0027 9.19486 12.5348 9.19486C12.3511 9.19486 12.1734 9.27024 11.8302 9.49369C11.5862 9.65254 11.3416 9.81028 11.0962 9.96689C10.8604 10.1171 10.5409 10.2579 10.1464 10.3854C9.76147 10.5099 9.37064 10.5731 8.98473 10.5731C8.59913 10.5731 8.20827 10.5099 7.82306 10.3854C7.42896 10.258 7.10939 10.1173 6.87398 9.96703C6.60082 9.79248 6.35367 9.63319 6.13929 9.49351C5.79638 9.2701 5.61866 9.19468 5.43494 9.19468C4.9669 9.19468 4.52967 9.27393 4.13511 9.43023C3.73932 9.58692 3.39669 9.80211 3.11667 10.07C2.84917 10.326 2.61077 10.6368 2.40806 10.9937C2.21266 11.3377 2.05446 11.6965 1.93799 12.0603C1.82549 12.412 1.73144 12.7967 1.65839 13.2038C1.58586 13.6072 1.53686 13.99 1.51253 14.3415C1.48862 14.6852 1.47656 15.043 1.47656 15.4044C1.47656 16.344 1.77525 17.1047 2.36426 17.6657C2.94599 18.2193 3.71559 18.5 4.65173 18.5H13.3189C14.2547 18.5 15.0243 18.2193 15.6062 17.6657C16.1953 17.1051 16.494 16.3442 16.494 15.4043C16.4939 15.0416 16.4817 14.6839 16.4576 14.3411ZM14.8789 16.9014C14.4945 17.2673 13.9842 17.4451 13.3187 17.4451H4.65176C3.98615 17.4451 3.47582 17.2673 3.09157 16.9016C2.71462 16.5427 2.53142 16.0529 2.53142 15.4044C2.53142 15.0671 2.54253 14.7341 2.56482 14.4144C2.58648 14.1008 2.63085 13.7562 2.69666 13.3901C2.76159 13.0285 2.84424 12.6892 2.94258 12.382C3.03693 12.0874 3.16561 11.7957 3.32518 11.5147C3.47748 11.2469 3.65269 11.0172 3.84605 10.8321C4.02693 10.6589 4.25492 10.5172 4.52351 10.4109C4.77193 10.3125 5.05114 10.2587 5.35422 10.2506C5.39113 10.2703 5.45695 10.3078 5.5635 10.3772C5.78035 10.5186 6.03027 10.6798 6.3066 10.8562C6.61808 11.0548 7.01932 11.2342 7.49875 11.3889C7.98886 11.5474 8.48874 11.6279 8.9849 11.6279C9.4811 11.6279 9.98109 11.5474 10.471 11.3891C10.9508 11.234 11.3519 11.0548 11.6638 10.856C11.9466 10.6753 12.1895 10.5187 12.4063 10.3772C12.5129 10.3079 12.5787 10.2703 12.6156 10.2506C12.9188 10.2587 13.198 10.3125 13.4466 10.4109C13.7151 10.5172 13.943 10.659 14.1239 10.8321C14.3173 11.017 14.4925 11.2468 14.6448 11.5149C14.8045 11.7957 14.9333 12.0875 15.0275 12.3818C15.126 12.6895 15.2088 13.0286 15.2736 13.3899C15.3392 13.7568 15.3837 14.1015 15.4054 14.4146V14.4149C15.4278 14.7333 15.4391 15.0662 15.4392 15.4044C15.4391 16.0531 15.2559 16.5428 14.8789 16.9014H14.8789Z" fill="#C4C4C4"/>
</g>
<defs>
<clipPath id="clip0_1180_12151">
<rect width="18" height="18" fill="white" transform="translate(0 0.5)"/>
</clipPath>
</defs>
</svg>
