<svg width="148" height="149" viewBox="0 0 148 149" fill="none" xmlns="http://www.w3.org/2000/svg">
<path d="M143.067 96.6737H138.133V76.9303C138.133 74.9667 137.354 73.0835 135.966 71.6951C134.578 70.3066 132.696 69.5266 130.733 69.5266H124.641C125.372 65.7857 125.76 61.9857 125.8 58.1741C125.8 36.5082 109.799 20.1682 88.578 20.1682C87.3754 20.1766 86.174 20.2491 84.9791 20.3853C86.134 17.707 87.7012 15.2262 89.6239 13.0334C90.9684 11.6333 91.7094 9.76083 91.6873 7.81934C91.6652 5.87786 90.8817 4.02276 89.5056 2.65372C88.1295 1.28468 86.2709 0.511276 84.3303 0.500122C82.3897 0.488968 80.5224 1.24096 79.1307 2.59409C76.5461 5.3937 74.3681 8.54319 72.6606 11.95C71.3813 10.3167 69.7813 8.9628 67.9591 7.97169C63.7441 5.93643 58.9777 5.34249 54.3925 6.28116C51.2646 6.94103 48.0158 6.7302 44.9994 5.67159C44.4334 5.43626 43.8205 5.33604 43.2091 5.37887C42.5977 5.42171 42.0047 5.60642 41.477 5.91838C40.9653 6.21995 40.5313 6.63736 40.21 7.13711C39.8888 7.63686 39.6891 8.20502 39.627 8.79597C38.9821 14.0766 40.027 19.4258 42.6117 24.0749C36.3503 27.2651 31.1144 32.1562 27.5041 38.1874C23.8939 44.2185 22.0556 51.1455 22.2 58.1741C22.2398 61.9857 22.6278 65.7857 23.3593 69.5266H17.2667C15.3041 69.5266 13.4218 70.3066 12.0341 71.6951C10.6463 73.0835 9.86667 74.9667 9.86667 76.9303V96.6737H4.93333C3.62493 96.6737 2.37012 97.1937 1.44494 98.1194C0.51976 99.045 0 100.3 0 101.61L0 111.481C0 112.79 0.51976 114.046 1.44494 114.971C2.37012 115.897 3.62493 116.417 4.93333 116.417H9.86667V136.16C9.86667 138.124 10.6463 140.007 12.0341 141.396C13.4218 142.784 15.3041 143.564 17.2667 143.564H27.1333C28.0772 143.561 29.0118 143.377 29.8861 143.021C30.3078 144.588 31.2325 145.973 32.5178 146.963C33.8032 147.953 35.378 148.493 37 148.5H46.8667C48.8293 148.5 50.7115 147.72 52.0993 146.331C53.487 144.943 54.2667 143.06 54.2667 141.096V116.417H93.7333V141.096C93.7333 143.06 94.513 144.943 95.9007 146.331C97.2885 147.72 99.1707 148.5 101.133 148.5H111C112.622 148.493 114.197 147.953 115.482 146.963C116.768 145.973 117.692 144.588 118.114 143.021C118.988 143.377 119.923 143.561 120.867 143.564H130.733C132.696 143.564 134.578 142.784 135.966 141.396C137.354 140.007 138.133 138.124 138.133 136.16V116.417H143.067C144.375 116.417 145.63 115.897 146.555 114.971C147.48 114.046 148 112.79 148 111.481V101.61C148 100.3 147.48 99.045 146.555 98.1194C145.63 97.1937 144.375 96.6737 143.067 96.6737ZM9.86667 111.481H4.93333V101.61H9.86667V111.481ZM82.6185 6.08373C82.8461 5.84802 83.1183 5.66001 83.4192 5.53066C83.7201 5.40132 84.0438 5.33324 84.3713 5.3304C84.6989 5.32755 85.0237 5.38999 85.3268 5.51408C85.63 5.63817 85.9054 5.82142 86.137 6.05314C86.3686 6.28486 86.5517 6.56041 86.6758 6.86371C86.7998 7.167 86.8622 7.49198 86.8594 7.81967C86.8565 8.14736 86.7885 8.4712 86.6592 8.77229C86.5299 9.07339 86.342 9.34571 86.1064 9.57337C81.0334 15.4245 77.9209 22.7194 77.2067 30.4322C77.1314 30.891 76.928 31.3192 76.6201 31.6675C76.3122 32.0157 75.9123 32.2699 75.4663 32.4006C75.0204 32.5314 74.5466 32.5334 74.0995 32.4066C73.6524 32.2797 73.2502 32.029 72.9393 31.6835C72.7038 31.4225 72.5267 31.1143 72.42 30.7793C72.3132 30.4443 72.2792 30.0904 72.3202 29.7412C73.1705 20.9654 76.7755 12.684 82.6185 6.08373ZM44.4271 10.7234C47.8565 11.6603 51.4518 11.818 54.9499 11.1849C58.5381 10.3742 62.2935 10.7742 65.6306 12.3226C67.6944 13.4487 69.3205 15.2356 70.2482 17.3967C69.7549 18.6932 69.31 20.0686 68.9137 21.523C65.8288 20.6294 62.6337 20.1733 59.422 20.1682C55.2825 20.1701 51.1706 20.8436 47.2465 22.1622C45.1696 18.7234 44.1863 14.7341 44.4271 10.7234ZM29.6 136.16C29.6 136.815 29.3401 137.443 28.8775 137.905C28.4149 138.368 27.7875 138.628 27.1333 138.628H17.2667C16.6125 138.628 15.9851 138.368 15.5225 137.905C15.0599 137.443 14.8 136.815 14.8 136.16V76.9303C14.8 76.2758 15.0599 75.6481 15.5225 75.1852C15.9851 74.7224 16.6125 74.4624 17.2667 74.4624H27.1333C27.7875 74.4624 28.4149 74.7224 28.8775 75.1852C29.3401 75.6481 29.6 76.2758 29.6 76.9303V136.16ZM49.3333 99.1416V141.096C49.3333 141.751 49.0735 142.378 48.6109 142.841C48.1483 143.304 47.5209 143.564 46.8667 143.564H37C36.3458 143.564 35.7184 143.304 35.2558 142.841C34.7932 142.378 34.5333 141.751 34.5333 141.096V71.9945C34.5333 71.3399 34.7932 70.7122 35.2558 70.2494C35.7184 69.7866 36.3458 69.5266 37 69.5266H46.8667C47.5209 69.5266 48.1483 69.7866 48.6109 70.2494C49.0735 70.7122 49.3333 71.3399 49.3333 71.9945V99.1416ZM93.7333 111.481H54.2667V101.61H93.7333V111.481ZM113.467 76.9303V141.096C113.467 141.751 113.207 142.378 112.744 142.841C112.282 143.304 111.654 143.564 111 143.564H101.133C100.479 143.564 99.8517 143.304 99.3891 142.841C98.9265 142.378 98.6667 141.751 98.6667 141.096V71.9945C98.6667 71.3399 98.9265 70.7122 99.3891 70.2494C99.8517 69.7866 100.479 69.5266 101.133 69.5266H111C111.654 69.5266 112.282 69.7866 112.744 70.2494C113.207 70.7122 113.467 71.3399 113.467 71.9945V76.9303ZM111 64.5907H101.133C99.1707 64.5907 97.2885 65.3708 95.9007 66.7592C94.513 68.1477 93.7333 70.0309 93.7333 71.9945V96.6737H54.2667V71.9945C54.2667 70.0309 53.487 68.1477 52.0993 66.7592C50.7115 65.3708 48.8293 64.5907 46.8667 64.5907H37C35.378 64.5977 33.8032 65.1376 32.5178 66.1275C31.2325 67.1174 30.3078 68.5024 29.8861 70.0695C29.4135 69.8813 28.9224 69.7431 28.4209 69.6574C27.6151 65.8813 27.1838 62.0349 27.1333 58.1741C26.8954 51.4338 28.7982 44.7914 32.5687 39.2006C36.3393 33.6098 41.7835 29.3582 48.1197 27.0561C51.746 25.7566 55.5701 25.0961 59.422 25.104C62.2683 25.1059 65.0992 25.5215 67.8259 26.338C67.6656 27.2634 67.525 28.2086 67.4165 29.181C67.2981 30.2187 67.4 31.2696 67.7154 32.2652C68.0309 33.2608 68.5528 34.1785 69.2471 34.9584C69.9414 35.7383 70.7924 36.3628 71.7444 36.791C72.6965 37.2193 73.7282 37.4416 74.7721 37.4436C76.5789 37.4611 78.3283 36.8089 79.6833 35.6128C81.0382 34.4167 81.9027 32.7612 82.1104 30.9653C82.3102 29.1606 82.65 27.3742 83.1267 25.6223C84.9234 25.2783 86.7486 25.1048 88.578 25.104C106.987 25.104 120.867 39.3217 120.867 58.1741C120.816 62.0349 120.385 65.8813 119.579 69.6574C119.078 69.7431 118.587 69.8813 118.114 70.0695C117.692 68.5024 116.768 67.1174 115.482 66.1275C114.197 65.1376 112.622 64.5977 111 64.5907ZM133.2 99.1416V136.16C133.2 136.815 132.94 137.443 132.478 137.905C132.015 138.368 131.388 138.628 130.733 138.628H120.867C120.212 138.628 119.585 138.368 119.122 137.905C118.66 137.443 118.4 136.815 118.4 136.16V76.9303C118.4 76.2758 118.66 75.6481 119.122 75.1852C119.585 74.7224 120.212 74.4624 120.867 74.4624H130.733C131.388 74.4624 132.015 74.7224 132.478 75.1852C132.94 75.6481 133.2 76.2758 133.2 76.9303V99.1416ZM143.067 111.481H138.133V101.61H143.067V111.481Z" fill="url(#paint0_linear_1180_17462)"/>
<defs>
<linearGradient id="paint0_linear_1180_17462" x1="74" y1="0.5" x2="74" y2="148.5" gradientUnits="userSpaceOnUse">
<stop stop-color="#91F533"/>
<stop offset="0.211608" stop-color="#91F533"/>
<stop offset="0.437445" stop-color="#91F533"/>
<stop offset="0.506796" stop-color="#F4E434"/>
<stop offset="0.657947" stop-color="#F4E434"/>
<stop offset="0.803763" stop-color="#F4E434"/>
<stop offset="1" stop-color="#F4E434"/>
</linearGradient>
</defs>
</svg>
