<svg width="152" height="153" viewBox="0 0 152 153" fill="none" xmlns="http://www.w3.org/2000/svg">
<path d="M21.7146 71.0723H29.86V79.2154H21.7146V71.0723ZM21.7146 95.5013H29.86V103.643H21.7146V95.5013ZM21.7146 46.6446H29.86V54.7877H21.7146V46.6446ZM81.4272 27.645C82.9264 27.645 84.1417 26.4296 84.1417 24.9313V14.0737C84.1417 12.5754 82.9264 11.36 81.4269 11.36H64.8706C64.2065 11.3172 63.5733 11.0641 63.0626 10.6374C62.9707 10.548 62.8855 10.452 62.8076 10.3501C62.6798 10.1991 62.569 10.0346 62.4772 9.85936C62.4172 9.73363 62.366 9.60389 62.324 9.47105C62.2811 9.37725 62.2433 9.28122 62.2106 9.18339C61.1784 4.1298 56.7322 0.5 51.5732 0.5C46.4152 0.5 41.969 4.1298 40.9368 9.18339C40.9056 9.26948 40.8697 9.35379 40.8278 9.43513C40.7769 9.60811 40.7069 9.77489 40.6191 9.93239C40.3729 10.3811 40.0035 10.7501 39.5545 10.9958C39.3969 11.0819 39.231 11.1513 39.0582 11.2024C38.895 11.2511 38.7278 11.2849 38.5586 11.3033C38.4644 11.3277 38.3686 11.3461 38.2709 11.36H21.7146C20.2154 11.36 19 12.5754 19 14.0734V24.9313C19 26.4296 20.2154 27.6447 21.7146 27.6447L81.4272 27.645ZM40.7141 16.7886H75.9986C76.7186 16.7886 77.4091 17.0745 77.9181 17.5836C78.4272 18.0927 78.7132 18.7832 78.7132 19.5031C78.7132 21.0014 77.4981 22.2165 75.9986 22.2165H40.7141C39.2149 22.2165 37.9995 21.0014 37.9995 19.5031C37.9995 19.1466 38.0697 18.7936 38.2061 18.4642C38.3425 18.1348 38.5424 17.8355 38.7945 17.5834C39.0466 17.3313 39.3459 17.1314 39.6752 16.9949C40.0046 16.8585 40.3576 16.7886 40.7141 16.7886ZM27.1431 16.7886H29.8577C31.3559 16.7886 32.571 18.0036 32.571 19.5031C32.571 21.0014 31.3559 22.2165 29.8577 22.2165H27.1431C25.6436 22.2165 24.4282 21.0014 24.4282 19.5031C24.4282 19.1466 24.4984 18.7935 24.6348 18.4641C24.7712 18.1347 24.9712 17.8354 25.2233 17.5833C25.4754 17.3312 25.7747 17.1313 26.1041 16.9948C26.4335 16.8584 26.7866 16.7885 27.1431 16.7886ZM98.2557 81.9843C98.3264 81.9843 98.3751 82.0413 98.4422 82.0597C99.1707 81.9926 99.9034 81.9404 100.647 81.9404H106.586C108.006 81.9439 109.414 82.1921 110.749 82.6757C111.021 82.7767 111.272 82.9203 111.536 83.0373C111.233 80.8147 110.725 78.6248 110.019 76.4958C107.818 70.0645 101.796 65.724 94.9982 65.6685H94.9519C93.209 65.6625 91.467 65.7587 89.7359 65.9594C89.3856 69.7154 89.2603 80.1847 98.2557 81.9843ZM103.141 61.9772V19.5031C103.141 19.1466 103.071 18.7935 102.935 18.4641C102.798 18.1347 102.598 17.8354 102.346 17.5833C102.094 17.3312 101.795 17.1313 101.465 16.9948C101.136 16.8584 100.783 16.7882 100.426 16.7883H89.57V22.2165H92.2845C95.2823 22.2165 97.7128 24.6472 97.7128 27.6447V60.4872C99.5793 60.7459 101.404 61.2467 103.141 61.9772Z" fill="#F5E74C"/>
<path d="M10.8576 147.071C7.85899 147.071 5.42823 144.641 5.42823 141.642V27.6448C5.42823 24.6473 7.85899 22.2166 10.8579 22.2166H13.5713V16.7883H2.71486C2.35833 16.7883 2.00528 16.8585 1.67588 16.9949C1.34648 17.1313 1.04718 17.3313 0.795076 17.5834C0.542971 17.8355 0.342997 18.1348 0.206577 18.4642C0.0701563 18.7936 -3.89766e-05 19.1467 1.62362e-08 19.5032V149.785C-3.89718e-05 150.142 0.0701465 150.495 0.206548 150.824C0.34295 151.153 0.542897 151.453 0.794972 151.705C1.04705 151.957 1.34631 152.157 1.67568 152.293C2.00504 152.43 2.35805 152.5 2.71456 152.5H93.3697C90.9519 150.959 88.7253 149.136 86.7365 147.07L10.8576 147.071Z" fill="#F5E74C"/>
<path d="M132.789 87.3581H126.796C126.058 87.3673 125.327 87.4882 124.625 87.7129L124.494 87.7515C122.957 88.375 121.647 89.4542 120.741 90.8439C119.835 92.2337 119.376 93.8674 119.426 95.5256L119.272 95.8373C118.729 87.8685 119.59 71.2786 134.372 62.5524C134.973 62.1775 135.403 61.5826 135.571 60.8946C135.739 60.2066 135.632 59.4802 135.272 58.8704C134.912 58.2605 134.328 57.8154 133.645 57.6302C132.961 57.4449 132.233 57.5342 131.614 57.8789C115.871 67.1699 113.605 83.8572 113.781 93.6654C113.533 92.3494 112.955 91.118 112.1 90.087C111.245 89.0559 110.143 88.259 108.895 87.7711C108.165 87.5088 107.395 87.3712 106.618 87.3641H100.637C90.0455 87.3581 81.4272 96.7027 81.4272 108.176V119.929C81.4272 137.886 94.9822 152.5 111.639 152.5H121.785C138.442 152.5 151.997 137.892 151.997 119.929V108.176C151.997 96.7027 143.38 87.3581 132.789 87.3581H132.789ZM98.59 98.0573C98.2884 98.1763 92.2848 100.456 92.2848 109.071C92.2848 110.571 91.0697 111.786 89.5703 111.786C88.0708 111.786 86.8569 110.571 86.8569 109.071C86.8569 96.4046 96.4457 93.0577 96.8551 92.9244C97.3067 92.7716 97.7905 92.7404 98.2579 92.8341C98.7254 92.9278 99.1599 93.1429 99.5177 93.4579C99.8754 93.7726 100.144 94.1758 100.296 94.6272C100.449 95.0785 100.48 95.5619 100.387 96.0291C100.293 96.4962 100.079 96.9306 99.7644 97.2886C99.45 97.6465 99.0471 97.9155 98.5959 98.0685L98.59 98.0573ZM113.998 97.707C114.034 98.0813 114.069 98.4292 114.105 98.7549C114.05 98.5791 114.014 98.398 113.998 98.2146V97.707ZM21.7148 119.929H29.8603V128.071H21.7148V119.929Z" fill="#91F532"/>
<path d="M38 50.5H84" stroke="#F5E74C" stroke-width="5" stroke-linecap="round"/>
<path d="M38 74.5H84" stroke="#F5E74C" stroke-width="5" stroke-linecap="round"/>
<path d="M38 99.5H72" stroke="#F5E74C" stroke-width="5" stroke-linecap="round"/>
<path d="M38 124.5H72" stroke="#F5E74C" stroke-width="5" stroke-linecap="round"/>
</svg>
