<svg width="34" height="23" viewBox="0 0 34 23" fill="none" xmlns="http://www.w3.org/2000/svg">
<g id="Frame 55">
<g clip-path="url(#clip0_1237_122)">
<rect y="0.5" width="34" height="22" rx="2" fill="white"/>
<g id="Group">
<path id="Vector" d="M0 0.5H34V22.4998H0V0.5Z" fill="#F0F0F0"/>
<path id="Vector_2" d="M19.125 0.5H14.875V9.43728H0V13.5622H14.875V22.4995H19.125V13.5622H34V9.43728H19.125V0.5Z" fill="#D80027"/>
<path id="Vector_3" d="M26.1495 15.3262L33.9997 19.5591V15.3262H26.1495ZM20.6953 15.3262L33.9997 22.4999V20.4714L24.4576 15.3262H20.6953ZM30.4558 22.4999L20.6953 17.2365V22.4999H30.4558Z" fill="#0052B4"/>
<path id="Vector_4" d="M20.6953 15.3262L33.9997 22.4999V20.4714L24.4576 15.3262H20.6953Z" fill="#F0F0F0"/>
<path id="Vector_5" d="M20.6953 15.3262L33.9997 22.4999V20.4714L24.4576 15.3262H20.6953Z" fill="#D80027"/>
<path id="Vector_6" d="M5.99921 15.3262L0 18.561V15.3262H5.99921ZM13.3044 16.2384V22.5H1.69276L13.3044 16.2384Z" fill="#0052B4"/>
<path id="Vector_7" d="M9.54211 15.3262L0 20.4714V22.4999L13.3044 15.3262H9.54211Z" fill="#D80027"/>
<path id="Vector_8" d="M7.85021 7.67375L0 3.44081V7.67375H7.85021ZM13.3044 7.67375L0 0.5V2.52856L9.54211 7.67375H13.3044ZM3.54384 0.5L13.3044 5.7634V0.5H3.54384Z" fill="#0052B4"/>
<path id="Vector_9" d="M13.3044 7.67375L0 0.5V2.52856L9.54211 7.67375H13.3044Z" fill="#F0F0F0"/>
<path id="Vector_10" d="M13.3044 7.67375L0 0.5V2.52856L9.54211 7.67375H13.3044Z" fill="#D80027"/>
<path id="Vector_11" d="M28.0005 7.67382L33.9997 4.43898V7.67382H28.0005ZM20.6953 6.76156V0.5H32.3069L20.6953 6.76156Z" fill="#0052B4"/>
<path id="Vector_12" d="M24.4576 7.67375L33.9997 2.52856V0.5L20.6953 7.67375H24.4576Z" fill="#D80027"/>
</g>
</g>
</g>
<defs>
<clipPath id="clip0_1237_122">
<rect y="0.5" width="34" height="22" rx="2" fill="white"/>
</clipPath>
</defs>
</svg>
