<svg width="34" height="23" viewBox="0 0 34 23" fill="none" xmlns="http://www.w3.org/2000/svg">
<g id="Group">
<path id="Vector" d="M31.4537 23H2.54635C1.14 23 0 21.8229 0 20.3709V2.62913C0 1.17712 1.14 0 2.54635 0H31.4537C32.8599 0 34 1.17706 34 2.62913V20.3709C34 21.8229 32.86 23 31.4537 23Z" fill="#006C35"/>
<path id="Vector_2" d="M7.03354 7.97711C7.09131 8.34287 7.31517 8.45764 7.50974 8.44262C7.73924 8.42505 7.94051 8.2178 7.94051 7.99888V6.74374C7.94051 6.68091 7.99231 6.62962 8.05606 6.62962C8.11981 6.62962 8.17161 6.68084 8.17161 6.74374V8.00426C8.17155 8.07883 8.19002 8.15227 8.22542 8.21814C8.26081 8.28401 8.31205 8.34028 8.37461 8.38202C8.43714 8.42388 8.50911 8.44995 8.58422 8.45795C8.65932 8.46594 8.73527 8.45561 8.80539 8.42787L8.92087 8.38228C8.93149 9.43589 8.86662 10.3619 8.86542 10.3789C8.86315 10.4101 8.86743 10.4416 8.878 10.4711C8.88857 10.5007 8.90521 10.5278 8.92686 10.5508C8.94852 10.5737 8.97473 10.592 9.00386 10.6045C9.033 10.617 9.06442 10.6234 9.09618 10.6234C9.15459 10.6233 9.2108 10.6014 9.25353 10.5621C9.29625 10.5228 9.32232 10.4689 9.32648 10.4114C9.33186 10.3372 9.40305 9.32309 9.38166 8.20022L9.45152 8.17268C9.4818 8.16079 9.51427 8.15534 9.54683 8.15669C9.57938 8.15803 9.61128 8.16614 9.64045 8.18048C9.76437 8.24166 9.90464 8.26279 10.0414 8.24086C10.1781 8.21893 10.3044 8.15506 10.4024 8.0583L10.444 8.01724C10.5354 7.92753 10.5995 7.81435 10.6291 7.69051C10.6586 7.56667 10.6525 7.43712 10.6114 7.31655L10.4146 6.73357C10.4669 6.74927 10.5231 6.74623 10.5734 6.72499C10.6236 6.70376 10.6647 6.66568 10.6893 6.61749C10.7167 6.56335 10.7212 6.50067 10.7018 6.44325C10.6824 6.38582 10.6408 6.33835 10.5859 6.31128L10.1238 6.08304C10.0829 6.06285 10.0369 6.05509 9.99156 6.06073C9.94621 6.06637 9.90358 6.08517 9.86904 6.11475C9.83451 6.14432 9.80964 6.18335 9.79756 6.22689C9.78549 6.27043 9.78676 6.31652 9.80122 6.35935L10.173 7.46103C10.1867 7.50122 10.1888 7.54439 10.1789 7.58567C10.169 7.62694 10.1477 7.66466 10.1172 7.69457L10.0757 7.73563C10.0462 7.76461 10.0083 7.78373 9.96728 7.79028C9.92625 7.79683 9.88416 7.7905 9.84697 7.77216C9.69723 7.69824 9.52669 7.68441 9.36672 7.72467C9.33425 6.99217 9.25436 6.26274 9.08423 5.75847C9.07465 5.73002 9.05948 5.70371 9.03959 5.68106C9.01971 5.65841 8.99549 5.63985 8.96833 5.62645C8.94117 5.61306 8.9116 5.60508 8.88132 5.60299C8.85103 5.6009 8.82063 5.60472 8.79184 5.61425C8.76304 5.6237 8.73642 5.63868 8.71348 5.6583C8.69055 5.67793 8.67176 5.70184 8.65819 5.72865C8.64462 5.75546 8.63654 5.78464 8.6344 5.81454C8.63227 5.84444 8.63612 5.87446 8.64575 5.90288C8.81223 6.39601 8.88475 7.14754 8.91051 7.8948L8.63386 8.00406V6.74354C8.63386 6.42887 8.37468 6.17296 8.05613 6.17296C7.73758 6.17296 7.47839 6.42887 7.47839 6.74354V7.8483L7.24265 6.69829C7.23676 6.66885 7.22503 6.64085 7.20813 6.61592C7.19123 6.59098 7.1695 6.56959 7.14418 6.553C7.11887 6.5364 7.09048 6.52492 7.06065 6.51921C7.03082 6.51351 7.00014 6.5137 6.97039 6.51977C6.94064 6.52572 6.91237 6.53739 6.88719 6.55413C6.86202 6.57087 6.84042 6.59235 6.82365 6.61733C6.80688 6.64231 6.79525 6.67031 6.78944 6.69973C6.78362 6.72915 6.78373 6.75941 6.78976 6.78879L7.03354 7.97711ZM7.47846 6.05911C7.53974 6.05909 7.5985 6.03503 7.64182 5.99223C7.68515 5.94943 7.70949 5.89139 7.70949 5.83087V5.60271C7.71001 5.57241 7.70441 5.54232 7.69304 5.51419C7.68166 5.48605 7.66472 5.46043 7.64321 5.43883C7.62171 5.41722 7.59606 5.40006 7.56777 5.38835C7.53947 5.37664 7.5091 5.37061 7.47843 5.37061C7.44775 5.37061 7.41738 5.37664 7.38909 5.38835C7.3608 5.40006 7.33515 5.41722 7.31364 5.43883C7.29213 5.46043 7.2752 5.48605 7.26382 5.51419C7.25244 5.54232 7.24685 5.57241 7.24737 5.60271V5.83087C7.24737 5.8914 7.27171 5.94946 7.31505 5.99226C7.35839 6.03506 7.41717 6.05911 7.47846 6.05911ZM9.7892 5.83087H10.0203C10.051 5.83139 10.0814 5.82586 10.1099 5.81463C10.1384 5.80339 10.1644 5.78666 10.1862 5.76542C10.2081 5.74418 10.2255 5.71885 10.2373 5.69091C10.2492 5.66297 10.2553 5.63297 10.2553 5.60267C10.2553 5.57238 10.2492 5.54238 10.2373 5.51444C10.2255 5.4865 10.2081 5.46117 10.1862 5.43993C10.1644 5.41869 10.1384 5.40196 10.1099 5.39072C10.0814 5.37948 10.051 5.37396 10.0203 5.37447H9.7892C9.72792 5.37447 9.66915 5.39852 9.62581 5.44131C9.58248 5.48411 9.55814 5.54215 9.55814 5.60267C9.55814 5.6632 9.58248 5.72124 9.62581 5.76403C9.66915 5.80683 9.72792 5.83087 9.7892 5.83087Z" fill="#F5F5F5"/>
<path id="Vector_3" d="M8.28535 8.83023L7.12995 9.51493C7.10358 9.53018 7.08053 9.55044 7.06214 9.57455C7.04375 9.59866 7.03039 9.62613 7.02282 9.65537C7.01525 9.68461 7.01364 9.71504 7.01806 9.74491C7.02248 9.77477 7.03285 9.80347 7.04858 9.82935C7.06431 9.85523 7.08508 9.87777 7.10969 9.89566C7.1343 9.91356 7.16226 9.92646 7.19195 9.93361C7.22164 9.94077 7.25247 9.94203 7.28266 9.93734C7.31284 9.93265 7.34179 9.92208 7.36782 9.90627L8.52322 9.22157C8.54959 9.20632 8.57264 9.18606 8.59103 9.16195C8.60942 9.13784 8.62278 9.11038 8.63035 9.08113C8.63792 9.05189 8.63954 9.02146 8.63511 8.99159C8.63069 8.96173 8.62032 8.93303 8.60459 8.90715C8.58886 8.88127 8.56809 8.85874 8.54348 8.84084C8.51887 8.82294 8.49091 8.81004 8.46122 8.80289C8.43154 8.79574 8.4007 8.79447 8.37052 8.79916C8.34033 8.80386 8.31138 8.81442 8.28535 8.83023Z" fill="#F5F5F5"/>
<path id="Vector_4" d="M11.4014 9.23381L11.4068 9.2302C11.4262 9.30733 11.4595 9.38196 11.5135 9.44466C11.6074 9.55386 11.7482 9.60875 11.9073 9.59577C12.133 9.5795 12.2864 9.47765 12.388 9.34616C12.4035 9.35665 12.4197 9.36622 12.4367 9.37468C12.5616 9.43686 12.7061 9.43214 12.8436 9.3617C13.1928 9.1841 13.2681 8.77315 13.2575 8.5583C13.2512 8.43303 13.1434 8.34462 13.0169 8.34213C12.9558 8.34489 12.8984 8.37133 12.857 8.4157C12.8156 8.46007 12.7936 8.51878 12.7957 8.57908C12.7958 8.58197 12.801 8.85277 12.6334 8.95331C12.606 8.91566 12.5736 8.83093 12.5614 8.76095C12.5419 8.64349 12.4326 8.56171 12.3151 8.57108C12.2572 8.57578 12.2032 8.60177 12.1638 8.6439C12.1244 8.68604 12.1025 8.74124 12.1023 8.79859C12.1023 8.83178 12.0947 9.12468 11.8658 9.14914C11.8392 9.11327 11.8388 8.96216 11.865 8.85047C11.8758 8.8057 11.8726 8.75876 11.8559 8.71581C11.8392 8.67286 11.8097 8.63589 11.7713 8.60977C11.733 8.58366 11.6875 8.5696 11.6409 8.56945C11.5943 8.56929 11.5488 8.58306 11.5102 8.60893L11.3813 8.69556C11.3201 7.37208 11.1789 5.82987 11.1772 5.81013C11.1746 5.78025 11.166 5.75119 11.1519 5.72461C11.1378 5.69803 11.1186 5.67446 11.0952 5.65526C11.0719 5.63606 11.045 5.6216 11.0159 5.61273C10.9869 5.60385 10.9564 5.60073 10.9262 5.60354C10.896 5.60625 10.8666 5.61482 10.8397 5.62876C10.8128 5.6427 10.7889 5.66173 10.7695 5.68477C10.7501 5.70781 10.7354 5.73441 10.7264 5.76304C10.7174 5.79168 10.7142 5.82178 10.7169 5.85165C10.7189 5.87276 10.8822 7.65711 10.9324 9.01974C10.9206 9.03083 10.9085 9.04296 10.8969 9.05358C10.8055 8.82607 10.6244 8.68271 10.3911 8.66093C10.0619 8.63221 9.70512 8.85349 9.57722 9.16954C9.46698 9.44145 9.53638 9.7087 9.75386 9.85017C9.91025 9.95202 10.1463 9.98409 10.443 9.88138C10.3706 10.1328 10.2386 10.3878 10.0672 10.585C9.91357 10.7617 9.65711 10.9656 9.32893 10.9565C9.13788 10.9491 8.99112 10.8874 8.88015 10.7676C8.6126 10.4789 8.63565 9.95654 8.63584 9.95097C8.63907 9.89063 8.61792 9.83149 8.57705 9.78653C8.53618 9.74157 8.47892 9.71445 8.41783 9.71113C8.28974 9.69775 8.18136 9.80052 8.17432 9.92644C8.17273 9.95536 8.13919 10.6419 8.53716 11.0736C8.73306 11.2864 8.99331 11.4003 9.31073 11.4126C9.3262 11.4132 9.34168 11.4134 9.35722 11.4134C9.74377 11.4134 10.1188 11.2262 10.4176 10.8823C10.6986 10.5591 10.8895 10.1201 10.9467 9.71257C10.946 10.4933 10.4696 11.3738 9.838 11.7617C9.56978 11.9262 9.15162 12.0746 8.6806 11.8453C8.09995 11.5622 8.16914 10.9068 8.1722 10.88C8.17597 10.8503 8.17378 10.8201 8.16574 10.7912C8.1577 10.7623 8.14397 10.7353 8.12534 10.7116C8.10671 10.688 8.08354 10.6682 8.05716 10.6533C8.03077 10.6385 8.0017 10.629 7.97158 10.6253C7.84554 10.6102 7.72933 10.6982 7.71366 10.8234C7.70848 10.8642 7.59745 11.8263 8.47614 12.2545C8.70185 12.3645 8.93786 12.4192 9.17573 12.4192C9.48126 12.4192 9.78965 12.3289 10.082 12.1493C10.851 11.6772 11.4091 10.6516 11.4091 9.71067C11.4087 9.55169 11.4061 9.39272 11.4014 9.23381ZM10.0081 9.46906C9.96676 9.44204 9.99903 9.35586 10.006 9.33874C10.0547 9.2184 10.2069 9.11432 10.3285 9.11432C10.3347 9.11432 10.341 9.11451 10.3471 9.11517C10.3766 9.11786 10.455 9.1252 10.4888 9.29749C10.4924 9.31579 10.4954 9.33448 10.4978 9.35363C10.2403 9.50297 10.0676 9.50769 10.0081 9.46906ZM7.59738 11.5681C7.54457 11.5376 7.4817 11.529 7.42251 11.5442C7.36331 11.5594 7.31259 11.597 7.28142 11.649C7.2708 11.6666 7.25672 11.6858 7.24238 11.7031C7.2397 11.6969 7.2372 11.6907 7.23487 11.6844C7.13852 11.4305 7.20711 11.0394 7.24178 10.9101C7.25741 10.8516 7.24894 10.7894 7.21822 10.7371C7.1875 10.6848 7.13703 10.6466 7.07789 10.631C6.9549 10.5998 6.8284 10.6707 6.79533 10.7924C6.77853 10.8541 6.63649 11.4082 6.8021 11.8446C6.90815 12.1236 7.07098 12.1941 7.18899 12.2036C7.19948 12.2044 7.20984 12.2049 7.22013 12.2049C7.46889 12.2049 7.63444 11.9573 7.68052 11.8788C7.7111 11.8267 7.71952 11.7647 7.70394 11.7065C7.68836 11.6482 7.65004 11.5985 7.59738 11.5681Z" fill="#F5F5F5"/>
<path id="Vector_5" d="M11.8602 7.42818C11.9103 7.42818 11.9606 7.41231 12.0028 7.37939L13.1678 6.4761C13.1839 6.46364 13.1942 6.44731 13.2059 6.43196C13.3736 6.33201 13.4872 6.15205 13.4872 5.94487C13.4872 5.6302 13.228 5.37429 12.9095 5.37429C12.5909 5.37429 12.3317 5.63013 12.3317 5.94487C12.3317 6.12096 12.4146 6.27659 12.5418 6.38133L11.7173 7.02064C11.6795 7.04996 11.6518 7.09019 11.6383 7.13575C11.6247 7.1813 11.6259 7.22989 11.6416 7.27476C11.6574 7.31962 11.6869 7.35851 11.7261 7.38602C11.7653 7.41352 11.8122 7.42826 11.8602 7.42818ZM12.9096 5.83069C12.9733 5.83069 13.0251 5.88191 13.0251 5.9448C13.0251 6.0077 12.9733 6.05892 12.9096 6.05892C12.8458 6.05892 12.7941 6.0077 12.7941 5.9448C12.7941 5.88191 12.8458 5.83069 12.9096 5.83069ZM12.6361 7.21182C12.6073 7.20227 12.5769 7.19843 12.5466 7.20052C12.5163 7.20261 12.4867 7.21058 12.4596 7.22398C12.4324 7.23737 12.4082 7.25594 12.3883 7.2786C12.3684 7.30126 12.3532 7.32758 12.3437 7.35604C12.319 7.4291 12.2072 7.80562 12.4337 8.02906C12.5216 8.11596 12.6371 8.15944 12.779 8.15925C12.8738 8.15925 12.9803 8.14009 13.0982 8.10107C13.127 8.09162 13.1536 8.07665 13.1766 8.05702C13.1995 8.03739 13.2183 8.01348 13.2318 7.98667C13.2454 7.95987 13.2535 7.93068 13.2556 7.90078C13.2578 7.87088 13.2539 7.84086 13.2443 7.81244C13.2347 7.78398 13.2196 7.75766 13.1997 7.735C13.1798 7.71234 13.1556 7.69377 13.1284 7.68037C13.1012 7.66698 13.0717 7.659 13.0414 7.65692C13.0111 7.65483 12.9807 7.65867 12.9519 7.66822C12.8228 7.71059 12.7682 7.7037 12.7632 7.70809C12.7496 7.67425 12.7586 7.57233 12.7823 7.49947C12.8015 7.44217 12.7969 7.3797 12.7694 7.32577C12.742 7.27184 12.6941 7.23085 12.6361 7.21182ZM15.2808 6.26839C15.3099 6.2768 15.3404 6.27944 15.3706 6.27619C15.4008 6.27294 15.43 6.26385 15.4566 6.24944C15.4832 6.23503 15.5067 6.21559 15.5257 6.19221C15.5447 6.16884 15.5589 6.142 15.5674 6.11322L15.7022 5.65682C15.7193 5.59872 15.7124 5.53627 15.683 5.4832C15.6535 5.43012 15.6039 5.39076 15.5451 5.37376C15.4863 5.35683 15.4231 5.36366 15.3693 5.39274C15.3156 5.42182 15.2757 5.47079 15.2585 5.52887L15.1237 5.98527C15.1152 6.01404 15.1125 6.04419 15.1158 6.074C15.1191 6.1038 15.1283 6.13267 15.1429 6.15896C15.1574 6.18526 15.1771 6.20845 15.2008 6.22723C15.2245 6.24601 15.2516 6.25999 15.2808 6.26839ZM13.9338 6.24164C13.96 6.25681 13.989 6.26673 14.019 6.27083C14.0491 6.27493 14.0797 6.27313 14.1091 6.26554C14.1384 6.25795 14.166 6.24472 14.1902 6.22659C14.2143 6.20847 14.2346 6.18581 14.2499 6.15992C14.2653 6.13405 14.2753 6.10546 14.2794 6.07577C14.2835 6.04608 14.2817 6.01588 14.274 5.98689C14.2663 5.9579 14.2529 5.93069 14.2346 5.90681C14.2163 5.88294 14.1933 5.86286 14.1671 5.84774C14.1207 5.82098 14.127 5.74543 14.1287 5.73047C14.1356 5.67053 14.1718 5.59741 14.2347 5.57799C14.2637 5.5691 14.2906 5.55465 14.314 5.53547C14.3373 5.5163 14.3565 5.49278 14.3707 5.46625C14.3848 5.43972 14.3935 5.4107 14.3962 5.38086C14.399 5.35101 14.3958 5.32092 14.3867 5.29231C14.3685 5.23452 14.3277 5.18626 14.2735 5.15809C14.2192 5.12993 14.1558 5.12416 14.0973 5.14206C13.8669 5.21289 13.699 5.42354 13.6694 5.67853C13.6421 5.91582 13.7434 6.13159 13.9338 6.24164ZM12.1008 9.9386C12.0433 9.93862 11.9878 9.95981 11.9453 9.99804C11.9028 10.0363 11.8762 10.0888 11.8708 10.1453C11.8654 10.2019 11.8815 10.2584 11.916 10.3038C11.9505 10.3492 12.0009 10.3803 12.0574 10.391C12.0696 10.4086 12.1007 10.469 12.1007 10.6232C12.1007 10.6838 12.1251 10.7418 12.1684 10.7846C12.2117 10.8274 12.2705 10.8515 12.3318 10.8515C12.3931 10.8515 12.4519 10.8274 12.4952 10.7846C12.5385 10.7418 12.5629 10.6838 12.5629 10.6232C12.563 9.94641 12.1196 9.9386 12.1008 9.9386ZM16.0211 8.9936C16.0502 8.99833 16.079 9.00056 16.1081 9.00056C16.2896 9.00056 16.473 8.91012 16.6547 8.73068C16.6762 8.70949 16.6932 8.68434 16.7048 8.65666C16.7164 8.62897 16.7224 8.5993 16.7224 8.56934C16.7224 8.53938 16.7164 8.50971 16.7048 8.48203C16.6932 8.45434 16.6762 8.42919 16.6547 8.408C16.6333 8.38682 16.6078 8.37001 16.5798 8.35854C16.5517 8.34708 16.5217 8.34118 16.4914 8.34118C16.461 8.34118 16.431 8.34708 16.4029 8.35854C16.3749 8.37001 16.3494 8.38682 16.328 8.408C16.1898 8.54462 16.1154 8.5475 16.0964 8.54324C16.0523 8.53701 16.0123 8.48015 16.0034 8.4646C15.9897 8.43789 15.9707 8.41412 15.9477 8.39463C15.9246 8.37515 15.8979 8.36034 15.8691 8.35106C15.8108 8.3323 15.7474 8.33717 15.6928 8.36459C15.6381 8.39201 15.5968 8.43974 15.5778 8.49727C15.5588 8.55481 15.5637 8.61744 15.5915 8.67139C15.6057 8.69966 15.7392 8.94835 16.0211 8.9936ZM19.949 7.38981C19.9476 7.3865 19.9463 7.38315 19.945 7.37978C19.904 7.26127 19.7732 7.1968 19.6534 7.23713C19.6245 7.24658 19.5979 7.26154 19.575 7.28116C19.552 7.30079 19.5332 7.32469 19.5196 7.3515C19.506 7.37831 19.4979 7.4075 19.4958 7.4374C19.4937 7.46731 19.4975 7.49734 19.5071 7.52577C19.5251 7.57922 19.6281 7.84759 19.8831 7.88143C19.9001 7.88366 19.9171 7.88478 19.9339 7.88478C20.094 7.88478 20.2442 7.78247 20.3808 7.58007C20.4148 7.52971 20.4271 7.46808 20.4151 7.40873C20.4031 7.34939 20.3677 7.2972 20.3167 7.26363C20.2914 7.247 20.2631 7.23545 20.2334 7.22963C20.2036 7.22381 20.1729 7.22385 20.1432 7.22973C20.1134 7.23561 20.0851 7.24723 20.0599 7.26392C20.0347 7.28061 20.0131 7.30204 19.9963 7.32698C19.978 7.35394 19.9622 7.37447 19.949 7.38981Z" fill="#F5F5F5"/>
<path id="Vector_6" d="M19.4932 11.5357C19.4932 10.5625 19.4499 9.6495 19.3898 8.84951C19.7179 9.4115 20.0131 9.97939 20.2011 10.4748C20.2227 10.5315 20.2661 10.5774 20.3219 10.6024C20.3777 10.6275 20.4413 10.6296 20.4987 10.6083C20.5561 10.587 20.6026 10.5441 20.6279 10.489C20.6533 10.4339 20.6554 10.3711 20.6339 10.3144C20.3414 9.54431 19.8157 8.62718 19.2975 7.81302C19.1712 6.58365 19.0298 5.80333 19.0273 5.78943C19.0045 5.66535 18.8844 5.58153 18.7587 5.60573C18.6984 5.61653 18.6449 5.65054 18.61 5.70028C18.5751 5.75002 18.5616 5.81141 18.5726 5.87095C18.5744 5.88085 18.6472 6.28282 18.7342 6.95932C18.5766 6.72816 18.4162 6.49877 18.2533 6.27121L18.2646 6.27475C18.2934 6.28429 18.3238 6.28813 18.3541 6.28604C18.3843 6.28395 18.4139 6.27599 18.4411 6.2626C18.4682 6.24921 18.4925 6.23065 18.5123 6.208C18.5322 6.18535 18.5474 6.15905 18.557 6.1306C18.5666 6.10217 18.5704 6.07215 18.5683 6.04226C18.5662 6.01236 18.5581 5.98318 18.5445 5.95637C18.5309 5.92957 18.5122 5.90566 18.4892 5.88603C18.4663 5.8664 18.4397 5.85143 18.4109 5.84196L17.7176 5.61373C17.6709 5.59814 17.6204 5.59778 17.5735 5.61272C17.5266 5.62766 17.4858 5.6571 17.4571 5.6967C17.4414 5.71834 17.4306 5.74208 17.4233 5.76667C17.285 5.66567 17.1075 5.5835 16.941 5.65243C16.8402 5.69368 16.7202 5.7975 16.7202 6.05846C16.7202 6.25881 16.7975 6.47544 16.8796 6.70498C17.0157 7.08563 17.1009 7.36554 16.9568 7.49907C16.8772 7.57279 16.7975 7.60066 16.72 7.58131C16.5775 7.54564 16.4364 7.3582 16.3425 7.07986C16.3383 7.06779 16.3298 7.059 16.324 7.04818C16.3726 6.69469 16.3514 6.26878 16.2535 5.7855C16.2476 5.75607 16.2359 5.72807 16.219 5.70313C16.2022 5.67818 16.1805 5.65677 16.1552 5.64014C16.1299 5.62351 16.1016 5.61197 16.0718 5.6062C16.042 5.60043 16.0113 5.60054 15.9815 5.60652C15.9518 5.61239 15.9235 5.62399 15.8983 5.64067C15.873 5.65734 15.8514 5.67877 15.8346 5.70371C15.8177 5.72865 15.8061 5.75662 15.8002 5.78603C15.7943 5.81543 15.7943 5.8457 15.8003 5.87508C15.9512 6.62031 15.9059 7.22834 15.6793 7.50137C15.5916 7.60702 15.4818 7.65602 15.3337 7.65602C15.2869 7.65602 15.2549 7.64132 15.2231 7.60519C15.0408 7.39768 15.0416 6.7282 15.1004 6.31876C15.105 6.2864 15.1026 6.25343 15.0932 6.22208C15.0839 6.19073 15.0678 6.16174 15.0461 6.13706C15.0244 6.11238 14.9976 6.09259 14.9675 6.07903C14.9374 6.06547 14.9047 6.05845 14.8716 6.05846C14.474 6.05846 14.3232 6.50502 14.1902 6.89911C14.1319 7.07232 14.0231 7.39433 13.9473 7.42778C13.8074 7.42778 13.717 7.02215 13.7162 6.74289C13.716 6.68244 13.6916 6.62452 13.6483 6.58182C13.605 6.53912 13.5463 6.51513 13.4851 6.51512H13.4847C13.4544 6.51512 13.4243 6.52103 13.3963 6.5325C13.3683 6.54396 13.3429 6.56076 13.3215 6.58193C13.3 6.60311 13.283 6.62825 13.2715 6.65591C13.2599 6.68357 13.2539 6.71321 13.2539 6.74315C13.2539 7.26953 13.4355 7.88425 13.9472 7.88425C14.3282 7.88425 14.4826 7.47422 14.6118 7.09304C14.6342 7.39611 14.7036 7.71012 14.8739 7.90405C14.9936 8.04047 15.1525 8.11241 15.3337 8.11241C15.619 8.11241 15.8619 8.00118 16.0366 7.79079C16.0683 7.75275 16.0955 7.70901 16.1224 7.66487C16.2565 7.85329 16.4212 7.97751 16.6066 8.02374C16.661 8.03732 16.7157 8.04421 16.7699 8.04421C16.9482 8.04421 17.1225 7.97154 17.2731 7.83178C17.3044 7.80279 17.3264 7.77098 17.3502 7.7397C17.4068 7.75564 17.4641 7.76508 17.521 7.76508C17.7082 7.76508 17.8884 7.69064 18.0002 7.61975C18.0515 7.58721 18.0877 7.53592 18.1008 7.47711C18.114 7.4183 18.1029 7.35674 18.0702 7.30593C18.0374 7.25506 17.9855 7.21906 17.926 7.20574C17.8664 7.19243 17.8039 7.20288 17.7521 7.23483C17.7501 7.23575 17.5957 7.32337 17.4905 7.30285C17.4908 7.05264 17.3991 6.78696 17.3154 6.55289C17.2678 6.41956 17.219 6.28301 17.1959 6.17139C17.215 6.18726 17.2336 6.20372 17.2502 6.21973C17.2717 6.24092 17.2971 6.25773 17.3252 6.2692C17.3532 6.28067 17.3832 6.28658 17.4136 6.28658C17.4439 6.28658 17.4739 6.28067 17.502 6.2692C17.53 6.25773 17.5554 6.24092 17.5769 6.21973C17.5918 6.20497 17.6005 6.18707 17.6104 6.16982C17.8499 6.4957 18.3426 7.18053 18.8494 7.9699C18.9461 8.94021 19.031 10.178 19.031 11.5356C19.031 11.5655 19.037 11.5952 19.0486 11.6229C19.0602 11.6506 19.0772 11.6758 19.0987 11.697C19.1201 11.7181 19.1456 11.735 19.1736 11.7464C19.2017 11.7579 19.2317 11.7638 19.2621 11.7638C19.2924 11.7638 19.3225 11.758 19.3505 11.7465C19.3786 11.7351 19.4041 11.7183 19.4255 11.6971C19.447 11.6759 19.464 11.6507 19.4757 11.623C19.4873 11.5954 19.4932 11.5657 19.4932 11.5357ZM19.7243 6.51492C19.7243 6.57545 19.7487 6.6335 19.792 6.6763C19.8354 6.71911 19.8941 6.74315 19.9554 6.74315C20.0167 6.74315 20.0755 6.71911 20.1188 6.6763C20.1622 6.6335 20.1865 6.57545 20.1865 6.51492C20.1865 6.24635 19.9738 5.81245 19.9311 5.72818C19.9175 5.70137 19.8987 5.67746 19.8758 5.65783C19.8528 5.63819 19.8262 5.62321 19.7974 5.61373C19.7686 5.60426 19.7382 5.60047 19.708 5.6026C19.6777 5.60473 19.6481 5.61272 19.621 5.62613C19.5939 5.63953 19.5697 5.65809 19.5498 5.68073C19.5299 5.70337 19.5147 5.72966 19.5051 5.7581C19.4955 5.78653 19.4917 5.81655 19.4939 5.84645C19.496 5.87635 19.5041 5.90553 19.5177 5.93234C19.601 6.09702 19.7243 6.39589 19.7243 6.51492ZM18.6729 11.5607C18.5596 11.5036 18.4204 11.5489 18.3627 11.6612C18.3367 11.7102 18.3045 11.7557 18.2669 11.7967C18.2567 11.706 18.2811 11.5248 18.3277 11.3746C18.3428 11.3259 18.341 11.2736 18.3225 11.226C18.304 11.1785 18.2699 11.1384 18.2257 11.1121C18.1816 11.0858 18.1298 11.0749 18.0786 11.081C18.0274 11.0872 17.9798 11.1102 17.9434 11.1462L17.4813 11.6026C17.4598 11.6238 17.4428 11.6489 17.4312 11.6766C17.4196 11.7043 17.4136 11.734 17.4136 11.7639C17.4136 11.7939 17.4196 11.8236 17.4312 11.8512C17.4428 11.8789 17.4598 11.9041 17.4813 11.9253C17.5027 11.9465 17.5282 11.9633 17.5562 11.9747C17.5842 11.9862 17.6143 11.9921 17.6446 11.9921C17.675 11.9921 17.705 11.9862 17.733 11.9747C17.7611 11.9633 17.7865 11.9465 17.808 11.9253L17.8197 11.9137C17.8397 12.0053 17.878 12.0888 17.9434 12.1535C18.03 12.2391 18.1348 12.2843 18.2437 12.2843C18.2648 12.2843 18.286 12.2825 18.3072 12.2792C18.569 12.2373 18.732 11.9523 18.7757 11.866C18.803 11.812 18.8075 11.7496 18.7882 11.6923C18.7689 11.6351 18.7274 11.5877 18.6729 11.5607Z" fill="#F5F5F5"/>
<path id="Vector_7" d="M18.5867 9.7249H16.958C16.9725 9.6681 16.9873 9.61387 17.0025 9.56245C17.652 9.42912 18.038 9.22207 18.1515 8.94583C18.1907 8.85001 18.2317 8.65634 18.0646 8.43368C17.9139 8.23306 17.7013 8.14308 17.4804 8.18761C17.152 8.25333 16.8595 8.60276 16.6495 9.16219C15.9971 9.2725 15.5796 9.50375 15.3153 9.73205C15.2215 8.79682 14.8539 8.24126 14.836 8.21483C14.8192 8.18987 14.7976 8.16844 14.7724 8.15175C14.7472 8.13505 14.7189 8.12343 14.6891 8.11755C14.6594 8.11166 14.6287 8.11163 14.599 8.11745C14.5692 8.12327 14.5409 8.13484 14.5156 8.15148C14.4646 8.18505 14.4293 8.23725 14.4172 8.29658C14.4052 8.35592 14.4175 8.41755 14.4515 8.46792C14.4557 8.47415 14.8748 9.1073 14.8748 10.1671C14.8748 11.2087 14.0338 11.9928 13.4884 11.9928C13.2289 11.9928 13.1153 11.6882 13.0654 11.4306C13.5995 11.061 14.0707 10.6332 14.1748 10.2223C14.3156 9.6662 14.1384 9.25637 14.0211 8.98518C14.0153 8.972 14.0096 8.95877 14.004 8.9455C14.0089 8.94996 14.0137 8.95462 14.0184 8.95908C14.0617 9.00186 14.1205 9.02589 14.1817 9.02588C14.243 9.02587 14.3017 9.00183 14.3451 8.95904C14.3884 8.91625 14.4127 8.85822 14.4127 8.79772C14.4127 8.73721 14.3883 8.67918 14.345 8.6364C14.21 8.50287 13.9476 8.29314 13.7092 8.39164C13.6084 8.4329 13.4883 8.53672 13.4883 8.79767C13.4883 8.91559 13.5382 9.03076 13.596 9.16448C13.7 9.40498 13.8294 9.70431 13.7263 10.1116C13.6653 10.3527 13.3655 10.6452 12.9699 10.9356C12.9275 10.8855 12.8663 10.8518 12.7951 10.8518H12.7947C12.7335 10.8519 12.6748 10.8759 12.6315 10.9187C12.5883 10.9614 12.564 11.0194 12.5639 11.0799C12.5639 11.1209 12.5658 11.1648 12.5685 11.2099C12.0739 11.5262 11.5143 11.8189 11.0818 12.0132C11.0268 12.0388 10.9843 12.0847 10.9634 12.141C10.9424 12.1973 10.9448 12.2595 10.97 12.3141C10.9951 12.3687 11.041 12.4113 11.0977 12.4328C11.1544 12.4542 11.2174 12.4527 11.2731 12.4287C11.403 12.3704 12.0197 12.0866 12.6532 11.6988C12.7699 12.0901 13.0171 12.4492 13.4882 12.4492C14.0426 12.4492 14.6715 12.0015 15.0345 11.3331C15.0783 11.4107 15.13 11.4837 15.1886 11.551C15.7703 12.2134 16.9064 12.221 16.9545 12.221C17.014 12.2205 17.0711 12.1974 17.1138 12.1564C17.1565 12.1154 17.1815 12.0597 17.1837 12.0009C17.1858 11.9421 17.1649 11.8848 17.1252 11.8409C17.0856 11.797 17.0304 11.7699 16.971 11.7652C16.9691 11.765 16.785 11.7449 16.6826 11.6268C16.6208 11.5554 16.5961 11.4574 16.607 11.327C16.6306 11.0458 17.5492 10.8356 18.3587 10.8232C18.4059 10.8224 18.4516 10.8075 18.4899 10.7804C18.5282 10.7533 18.5572 10.7152 18.573 10.6714L18.8041 10.0296C18.8165 9.99519 18.8203 9.95834 18.8152 9.92216C18.8102 9.88597 18.7964 9.85152 18.775 9.8217C18.7539 9.79177 18.7257 9.76734 18.6929 9.75048C18.6601 9.73363 18.6236 9.72485 18.5867 9.7249ZM17.5724 8.63509C17.5767 8.63424 17.5826 8.63286 17.59 8.63286C17.6121 8.63286 17.6469 8.64355 17.6934 8.70553C17.7022 8.71714 17.7303 8.75675 17.7232 8.77419C17.6967 8.83879 17.5372 8.94557 17.2047 9.0423C17.351 8.76055 17.4939 8.6507 17.5724 8.63509ZM16.1768 11.6351C15.9421 11.5597 15.7028 11.4403 15.5372 11.2511C15.3552 11.0432 15.288 10.7802 15.3321 10.4474C15.3387 10.4299 15.3539 10.3955 15.3803 10.3507C15.7057 10.3213 16.575 10.448 16.6352 10.6938C16.3671 10.8289 16.1696 11.019 16.1468 11.2892C16.1353 11.4248 16.1493 11.5395 16.1768 11.6351ZM21.1023 6.44341L20.8712 5.75871C20.834 5.64866 20.7183 5.58288 20.6037 5.6078C20.5481 5.6195 20.4988 5.65105 20.4653 5.69641C20.4318 5.74177 20.4164 5.79774 20.4221 5.85361C20.5815 7.42841 20.8831 10.4995 20.8831 10.8517C20.8831 11.1679 20.3136 11.7906 19.3933 12.2451C19.3467 12.2681 19.3093 12.3059 19.2872 12.3525C19.2651 12.3991 19.2596 12.4517 19.2716 12.5018C19.2836 12.5519 19.3124 12.5965 19.3533 12.6283C19.3942 12.6602 19.4448 12.6775 19.4969 12.6774C19.5316 12.6774 19.5669 12.6696 19.6 12.6534C20.4407 12.2382 21.3453 11.4974 21.3453 10.8517C21.3453 10.5145 21.1092 8.08838 20.9739 6.72555C21.0272 6.703 21.07 6.66148 21.0938 6.60922C21.1176 6.55696 21.1206 6.49777 21.1023 6.44341ZM23.0304 8.50274C23.0662 8.53811 23.1128 8.56089 23.1629 8.56758C23.2131 8.57426 23.2641 8.56448 23.3081 8.53973C23.3521 8.51497 23.3866 8.47664 23.4064 8.43064C23.4262 8.38463 23.4302 8.33347 23.4178 8.285C23.3764 8.12459 23.3626 7.92396 23.3845 7.84198C23.5003 7.84553 23.6077 7.7642 23.6247 7.64628C23.629 7.61661 23.6273 7.5864 23.6198 7.55736C23.6123 7.52832 23.599 7.50103 23.5808 7.47705C23.5626 7.45307 23.5398 7.43286 23.5137 7.41758C23.4876 7.40231 23.4587 7.39226 23.4287 7.38801C23.2759 7.36755 23.1417 7.41182 23.048 7.51479C22.9873 7.58168 22.9512 7.66747 22.9316 7.75974L22.664 7.49544C22.6207 7.45265 22.5619 7.42861 22.5006 7.42861C22.4394 7.42861 22.3806 7.45265 22.3373 7.49544C22.294 7.53823 22.2696 7.59626 22.2696 7.65678C22.2696 7.71729 22.294 7.77532 22.3373 7.81811L23.0304 8.50274ZM23.5503 8.74075L22.6837 9.35409C22.659 9.37154 22.6381 9.39363 22.6221 9.41908C22.606 9.44454 22.5952 9.47286 22.5903 9.50243C22.5854 9.53201 22.5864 9.56225 22.5932 9.59144C22.6001 9.62063 22.6128 9.6482 22.6305 9.67256C22.6519 9.70208 22.6801 9.72611 22.7129 9.74266C22.7456 9.75921 22.7818 9.76781 22.8186 9.76773C22.8652 9.76773 22.9122 9.75389 22.953 9.72497L23.8195 9.11162C23.8693 9.07635 23.9029 9.02299 23.9129 8.96327C23.9229 8.90356 23.9085 8.84237 23.8728 8.79315C23.7983 8.69057 23.6537 8.6667 23.5503 8.74075ZM23.4735 9.59898C23.4387 9.64312 23.4216 9.69833 23.4253 9.75412C23.4291 9.80991 23.4534 9.86241 23.4937 9.90165C23.5036 9.91818 23.5487 10.0055 23.5406 10.2302C23.5395 10.2601 23.5444 10.29 23.555 10.3181C23.5656 10.3462 23.5817 10.3719 23.6024 10.3938C23.6231 10.4158 23.6479 10.4335 23.6755 10.4459C23.7031 10.4584 23.733 10.4653 23.7633 10.4664C23.7661 10.4666 23.7689 10.4666 23.7717 10.4666C23.8315 10.4665 23.889 10.4436 23.932 10.4026C23.9751 10.3616 24.0003 10.3057 24.0025 10.2466C24.0194 9.78084 23.865 9.61059 23.7979 9.55904C23.7739 9.54062 23.7465 9.52704 23.7173 9.51907C23.688 9.51111 23.6574 9.50892 23.6273 9.51263C23.5972 9.51634 23.5681 9.52587 23.5417 9.54069C23.5153 9.55551 23.4921 9.57531 23.4735 9.59898Z" fill="#F5F5F5"/>
<path id="Vector_8" d="M25.4927 11.2792C25.5231 11.2792 25.5531 11.2733 25.5812 11.2618C25.6092 11.2503 25.6347 11.2335 25.6561 11.2123C25.6776 11.1911 25.6946 11.166 25.7062 11.1383C25.7178 11.1106 25.7238 11.0809 25.7238 11.0509C25.7238 10.7142 25.7063 10.3383 25.6777 9.94721C25.9068 10.318 26.0971 10.6599 26.2192 10.9411C26.2311 10.9687 26.2484 10.9936 26.2701 11.0146C26.2918 11.0356 26.3175 11.0521 26.3457 11.0632C26.3739 11.0744 26.404 11.0799 26.4344 11.0795C26.4647 11.0791 26.4947 11.0728 26.5226 11.061C26.5789 11.0371 26.6233 10.9922 26.646 10.936C26.6688 10.8798 26.668 10.817 26.6439 10.7614C26.4323 10.2738 26.0369 9.62795 25.5866 8.96116C25.496 8.12352 25.3776 7.30273 25.2855 6.71399C25.3363 6.7188 25.3873 6.70628 25.4298 6.67851C25.5028 6.63234 25.537 6.55213 25.5321 6.47231C25.538 6.49474 25.5444 6.51724 25.5577 6.5379C25.5592 6.54012 25.7077 6.78233 25.6419 7.09667C25.6301 7.1557 25.6424 7.21694 25.6761 7.26705C25.7098 7.31717 25.7622 7.35211 25.8219 7.36427C25.8816 7.37644 25.9437 7.36484 25.9947 7.33201C26.0458 7.29917 26.0816 7.24776 26.0945 7.18895C26.1988 6.69038 25.9578 6.30888 25.9476 6.29281C25.9146 6.24185 25.8625 6.20589 25.8026 6.19277C25.7428 6.17966 25.6802 6.19047 25.6285 6.22283C25.5552 6.26894 25.5205 6.34921 25.5253 6.42922C25.5193 6.40666 25.5126 6.38397 25.4992 6.36331L25.1092 5.76427C25.0804 5.71992 25.0369 5.68681 24.9861 5.67055C24.9353 5.65429 24.8804 5.6559 24.8307 5.67509C24.781 5.69428 24.7395 5.72987 24.7134 5.77583C24.6872 5.82178 24.678 5.87526 24.6872 5.92718C24.6905 5.94515 24.867 6.94661 25.0236 8.15369C24.8504 7.91238 24.6751 7.67263 24.4975 7.43449C24.4696 7.08919 24.4416 6.77 24.4173 6.50602C24.4497 6.49654 24.4796 6.48017 24.5049 6.45806C24.5301 6.43595 24.5502 6.40864 24.5636 6.37805C24.5771 6.34746 24.5836 6.31434 24.5826 6.281C24.5817 6.24767 24.5734 6.21494 24.5583 6.18512L24.3272 5.72872C24.303 5.68102 24.2627 5.64318 24.2132 5.62176C24.1638 5.60034 24.1083 5.5967 24.0563 5.61146C24.0044 5.62632 23.9595 5.65866 23.9292 5.70286C23.8989 5.74707 23.8853 5.80035 23.8906 5.85346C23.9182 6.12583 23.9468 6.42732 23.975 6.74402C23.8435 6.57272 23.7111 6.40207 23.5779 6.23208C23.6068 6.20756 23.6291 6.17636 23.6429 6.14126C23.6566 6.10616 23.6613 6.06825 23.6567 6.03091C23.652 5.99356 23.638 5.95794 23.616 5.9272C23.594 5.89647 23.5647 5.87159 23.5306 5.85477L23.0685 5.62654C23.0214 5.60335 22.9676 5.59673 22.9162 5.60776C22.8647 5.61878 22.8186 5.64681 22.7854 5.68721C22.7523 5.72769 22.7342 5.77813 22.7341 5.83016C22.7339 5.8822 22.7518 5.93272 22.7847 5.97335C22.7972 5.9887 23.3662 6.69307 24.0468 7.60219C24.1649 9.11003 24.2435 10.6786 24.1325 11.0074C24.1121 11.0676 24.0767 11.1385 24.0434 11.141C23.9037 11.1601 23.5704 10.8517 23.403 10.5212C23.3065 10.3309 23.1677 10.3111 23.0935 10.3143C22.8451 10.3295 22.7482 10.5994 22.5721 11.0893C22.4459 11.4403 22.289 11.8767 22.1129 12.0552C22.0175 11.94 21.8941 11.5538 21.8256 11.1567C21.8577 11.2445 21.941 11.3079 22.0409 11.3079C22.0713 11.308 22.1013 11.3021 22.1294 11.2906C22.1574 11.2792 22.1829 11.2623 22.2043 11.2412C22.2258 11.22 22.2428 11.1948 22.2544 11.1671C22.266 11.1394 22.272 11.1097 22.272 11.0798C22.272 10.7394 22.031 8.14746 21.8964 6.72697C21.9509 6.70525 21.995 6.6638 22.0197 6.61108C22.0443 6.55836 22.0477 6.49834 22.0291 6.44326L21.798 5.75856C21.78 5.70548 21.7428 5.66079 21.6936 5.63301C21.6443 5.60522 21.5865 5.59627 21.531 5.60785C21.4756 5.61944 21.4263 5.65076 21.3927 5.69585C21.3591 5.74094 21.3434 5.79666 21.3487 5.85241C21.5058 7.48047 21.8002 10.6251 21.8094 11.0591C21.8088 11.0552 21.808 11.0514 21.8074 11.0474C21.7895 10.9226 21.6716 10.8371 21.546 10.8538C21.4853 10.8624 21.4306 10.8944 21.3939 10.9429C21.3571 10.9913 21.3413 11.0521 21.35 11.112C21.4174 11.5785 21.5899 12.3806 21.987 12.5112C22.0183 12.5217 22.0606 12.531 22.1101 12.531C22.2012 12.531 22.317 12.4991 22.4353 12.3821C22.687 12.1336 22.8573 11.6598 23.0076 11.242C23.0416 11.1475 23.0818 11.0356 23.1196 10.9398C23.3316 11.2455 23.7015 11.6262 24.0763 11.5964C24.208 11.5871 24.4477 11.5171 24.5709 11.152C24.6938 10.7879 24.6452 9.51829 24.5624 8.30269C24.7579 8.57283 24.9498 8.84551 25.138 9.12066C25.2101 9.80411 25.2617 10.4888 25.2617 11.0512C25.2617 11.1117 25.2861 11.1697 25.3294 11.2124C25.3727 11.2552 25.4315 11.2792 25.4927 11.2792Z" fill="#F5F5F5"/>
<path id="Vector_9" d="M27.2461 10.079C27.0824 8.87464 26.8544 7.47948 26.7099 6.62321C26.7432 6.63129 26.7779 6.63184 26.8114 6.62481C26.8449 6.61778 26.8764 6.60336 26.9035 6.58262C26.9276 6.56445 26.9479 6.54177 26.9632 6.51586C26.9784 6.48995 26.9883 6.46133 26.9924 6.43163C26.9964 6.40193 26.9945 6.37173 26.9867 6.34277C26.9789 6.3138 26.9654 6.28664 26.947 6.26283L26.5282 5.72078C26.4967 5.68026 26.4524 5.65132 26.4024 5.63858C26.3523 5.62583 26.2994 5.63002 26.252 5.65048C26.2047 5.67093 26.1656 5.70647 26.1411 5.75142C26.1166 5.79637 26.108 5.84813 26.1168 5.89844C26.121 5.92179 26.533 8.26458 26.7879 10.1396C26.8852 10.8561 26.7431 11.4965 26.4074 11.8522C26.1917 12.0806 25.9058 12.184 25.5598 12.1641C25.4328 12.1574 25.3226 12.2519 25.3147 12.3776C25.3067 12.5033 25.4033 12.6117 25.5307 12.6196C25.5692 12.622 25.6078 12.6232 25.6464 12.6232C26.0821 12.6232 26.4603 12.4654 26.7454 12.1632C27.181 11.702 27.3635 10.9422 27.2461 10.079ZM24.704 11.5835C24.6191 11.6746 24.6256 11.8181 24.7154 11.9041C24.728 11.9161 24.743 11.9398 24.743 11.9514C24.7431 11.9578 24.7338 11.977 24.7081 12.0024C24.6757 12.0343 24.6537 12.075 24.6447 12.1193C24.6358 12.1635 24.6404 12.2095 24.6579 12.2512C24.6754 12.2929 24.705 12.3286 24.7431 12.3536C24.7811 12.3787 24.8258 12.392 24.8715 12.392C24.9306 12.392 24.9898 12.3697 25.035 12.3251C25.1815 12.1804 25.2084 12.0336 25.2051 11.9357C25.198 11.7251 25.0528 11.5892 25.0237 11.564C24.9293 11.4829 24.7889 11.4927 24.704 11.5835ZM23.8894 16.5883H22.2719V16.3601C22.2719 16.2995 22.2475 16.2415 22.2042 16.1987C22.1608 16.1559 22.1021 16.1318 22.0408 16.1318C21.9795 16.1318 21.9207 16.1559 21.8774 16.1987C21.834 16.2415 21.8097 16.2995 21.8097 16.3601V16.5883H9.5625C10.0246 17.0447 10.9489 17.273 11.6422 17.273H21.8097V17.7294C21.8097 17.7594 21.8156 17.789 21.8273 17.8167C21.8389 17.8444 21.8559 17.8696 21.8774 17.8908C21.8988 17.912 21.9243 17.9288 21.9523 17.9403C21.9804 17.9517 22.0104 17.9576 22.0408 17.9576H23.8894C24.2717 17.9576 24.5827 17.6505 24.5827 17.2729C24.5826 16.8954 24.2717 16.5883 23.8894 16.5883ZM23.8894 17.5012H22.2718V17.2729H24.1204L24.0789 17.1501C24.1029 17.186 24.1204 17.2266 24.1204 17.2729C24.1204 17.3334 24.096 17.3915 24.0527 17.4343C24.0094 17.477 23.9507 17.5011 23.8894 17.5012Z" fill="#F5F5F5"/>
</g>
</svg>
