<svg width="42" height="42" viewBox="0 0 42 42" fill="none" xmlns="http://www.w3.org/2000/svg">
<rect opacity="0.2" width="42" height="42" rx="8" fill="#F6E709"/>
<g clip-path="url(#clip0_1436_9332)">
<path opacity="0.5" d="M34.7546 7.24597C35.0818 7.573 35.0818 8.10368 34.7546 8.43093L28.492 14.6935C28.1647 15.0208 27.6341 15.0208 27.3068 14.6935C26.9795 14.3662 26.9795 13.8358 27.3068 13.5086L33.5694 7.24597C33.8966 6.91871 34.4273 6.91871 34.7546 7.24597Z" fill="#F6E709"/>
<path d="M7.18817 23.6981L6.9995 34.1471C6.99746 34.2596 7.01812 34.3714 7.06026 34.4758C7.1024 34.5802 7.16515 34.675 7.24475 34.7546C7.32436 34.8342 7.41919 34.897 7.52358 34.9391C7.62798 34.9812 7.73979 35.0019 7.85235 34.9999L18.3018 34.8117C18.4662 34.8087 18.6261 34.7575 18.7617 34.6643C18.8972 34.5711 19.0023 34.4401 19.0638 34.2876C19.1254 34.1351 19.1407 33.9678 19.1079 33.8066C19.0751 33.6455 18.9955 33.4975 18.8792 33.3813L16.6233 31.1254L28.6922 19.0568C28.8493 18.8996 28.9375 18.6864 28.9375 18.4642C28.9375 18.2419 28.8493 18.0288 28.6922 17.8716L24.1281 13.3077C23.8009 12.9804 23.2704 12.9804 22.9431 13.3077L10.8743 25.3766L8.61841 23.1207C8.50215 23.0044 8.35423 22.9248 8.19309 22.892C8.03194 22.8592 7.8647 22.8745 7.7122 22.9361C7.55971 22.9976 7.42871 23.1027 7.33553 23.2383C7.24235 23.3738 7.19107 23.5337 7.18817 23.6981Z" fill="#F6E709"/>
<path opacity="0.5" d="M34.4499 12.1149C34.7771 12.4422 34.7771 12.9729 34.4499 13.3001L30.7743 16.9757C30.447 17.303 29.9166 17.303 29.5893 16.9757C29.262 16.6485 29.262 16.118 29.5893 15.7907L33.2649 12.1149C33.5922 11.7879 34.1228 11.7879 34.4499 12.1149ZM29.886 7.55109C30.2133 7.87839 30.2133 8.40903 29.886 8.73627L26.2102 12.4119C25.8829 12.7392 25.3525 12.7392 25.0252 12.4119C24.698 12.0846 24.6979 11.5542 25.0252 11.2269L28.701 7.55109C29.0283 7.22384 29.5587 7.22384 29.886 7.55109Z" fill="#F6E709"/>
</g>
<defs>
<clipPath id="clip0_1436_9332">
<rect width="28" height="28" fill="white" transform="matrix(-1 0 0 -1 35 35)"/>
</clipPath>
</defs>
</svg>
