<svg width="140" height="139" viewBox="0 0 140 139" fill="none" xmlns="http://www.w3.org/2000/svg">
<path d="M5.86667 106.481H0.933333V96.6095H5.86667V106.481ZM78.6185 1.08373C78.8461 0.848018 79.1183 0.660006 79.4192 0.530665C79.7201 0.401324 80.0438 0.333243 80.3713 0.330396C80.6989 0.327548 81.0237 0.389991 81.3268 0.51408C81.63 0.638169 81.9054 0.82142 82.137 1.05314C82.3686 1.28486 82.5517 1.56041 82.6758 1.86371C82.7998 2.167 82.8622 2.49198 82.8594 2.81967C82.8565 3.14736 82.7885 3.4712 82.6592 3.77229C82.5299 4.07339 82.342 4.34571 82.1064 4.57337C77.0334 10.4245 73.9209 17.7194 73.2067 25.4322C73.1314 25.891 72.928 26.3192 72.6201 26.6675C72.3122 27.0157 71.9123 27.2699 71.4663 27.4006C71.0204 27.5314 70.5466 27.5334 70.0995 27.4066C69.6524 27.2797 69.2502 27.029 68.9393 26.6835C68.7038 26.4225 68.5267 26.1143 68.42 25.7793C68.3132 25.4443 68.2792 25.0904 68.3202 24.7412C69.1705 15.9654 72.7755 7.684 78.6185 1.08373ZM40.4271 5.72342C43.8565 6.66035 47.4518 6.81803 50.9499 6.18492C54.5381 5.37419 58.2935 5.77422 61.6306 7.32263C63.6944 8.44873 65.3205 10.2356 66.2482 12.3967C65.7549 13.6932 65.31 15.0686 64.9137 16.523C61.8288 15.6294 58.6337 15.1733 55.422 15.1682C51.2825 15.1701 47.1706 15.8436 43.2465 17.1622C41.1696 13.7234 40.1863 9.73414 40.4271 5.72342ZM25.6 131.16C25.6 131.815 25.3401 132.443 24.8775 132.905C24.4149 133.368 23.7875 133.628 23.1333 133.628H13.2667C12.6125 133.628 11.9851 133.368 11.5225 132.905C11.0599 132.443 10.8 131.815 10.8 131.16V71.9303C10.8 71.2758 11.0599 70.6481 11.5225 70.1852C11.9851 69.7224 12.6125 69.4624 13.2667 69.4624H23.1333C23.7875 69.4624 24.4149 69.7224 24.8775 70.1852C25.3401 70.6481 25.6 71.2758 25.6 71.9303V131.16ZM45.3333 94.1416V136.096C45.3333 136.751 45.0735 137.378 44.6109 137.841C44.1483 138.304 43.5209 138.564 42.8667 138.564H33C32.3458 138.564 31.7184 138.304 31.2558 137.841C30.7932 137.378 30.5333 136.751 30.5333 136.096V66.9945C30.5333 66.3399 30.7932 65.7122 31.2558 65.2494C31.7184 64.7866 32.3458 64.5266 33 64.5266H42.8667C43.5209 64.5266 44.1483 64.7866 44.6109 65.2494C45.0735 65.7122 45.3333 66.3399 45.3333 66.9945V94.1416ZM89.7333 106.481H50.2667V96.6095H89.7333V106.481ZM109.467 71.9303V136.096C109.467 136.751 109.207 137.378 108.744 137.841C108.282 138.304 107.654 138.564 107 138.564H97.1333C96.4791 138.564 95.8517 138.304 95.3891 137.841C94.9265 137.378 94.6667 136.751 94.6667 136.096V66.9945C94.6667 66.3399 94.9265 65.7122 95.3891 65.2494C95.8517 64.7866 96.4791 64.5266 97.1333 64.5266H107C107.654 64.5266 108.282 64.7866 108.744 65.2494C109.207 65.7122 109.467 66.3399 109.467 66.9945V71.9303ZM107 59.5907H97.1333C95.1707 59.5907 93.2885 60.3708 91.9007 61.7592C90.513 63.1477 89.7333 65.0309 89.7333 66.9945V91.6737H50.2667V66.9945C50.2667 65.0309 49.487 63.1477 48.0993 61.7592C46.7115 60.3708 44.8293 59.5907 42.8667 59.5907H33C31.378 59.5977 29.8032 60.1376 28.5178 61.1275C27.2325 62.1174 26.3078 63.5024 25.8861 65.0695C25.4135 64.8813 24.9224 64.7431 24.4209 64.6574C23.6151 60.8813 23.1838 57.0349 23.1333 53.1741C22.8954 46.4338 24.7982 39.7914 28.5687 34.2006C32.3393 28.6098 37.7835 24.3582 44.1197 22.0561C47.746 20.7566 51.5701 20.0961 55.422 20.104C58.2683 20.1059 61.0992 20.5215 63.8259 21.338C63.6656 22.2634 63.525 23.2086 63.4165 24.181C63.2981 25.2187 63.4 26.2696 63.7154 27.2652C64.0309 28.2608 64.5528 29.1785 65.2471 29.9584C65.9414 30.7383 66.7924 31.3628 67.7444 31.791C68.6965 32.2193 69.7282 32.4416 70.7721 32.4436C72.5789 32.4611 74.3283 31.8089 75.6833 30.6128C77.0382 29.4167 77.9027 27.7612 78.1104 25.9653C78.3102 24.1606 78.65 22.3742 79.1267 20.6223C80.9234 20.2783 82.7486 20.1048 84.578 20.104C102.987 20.104 116.867 34.3217 116.867 53.1741C116.816 57.0349 116.385 60.8813 115.579 64.6574C115.078 64.7431 114.587 64.8813 114.114 65.0695C113.692 63.5024 112.768 62.1174 111.482 61.1275C110.197 60.1376 108.622 59.5977 107 59.5907ZM129.2 94.1416V131.16C129.2 131.815 128.94 132.443 128.478 132.905C128.015 133.368 127.388 133.628 126.733 133.628H116.867C116.212 133.628 115.585 133.368 115.122 132.905C114.66 132.443 114.4 131.815 114.4 131.16V71.9303C114.4 71.2758 114.66 70.6481 115.122 70.1852C115.585 69.7224 116.212 69.4624 116.867 69.4624H126.733C127.388 69.4624 128.015 69.7224 128.478 70.1852C128.94 70.6481 129.2 71.2758 129.2 71.9303V94.1416ZM139.067 106.481H134.133V96.6095H139.067V106.481Z" fill="url(#paint0_linear_1180_17461)"/>
<defs>
<linearGradient id="paint0_linear_1180_17461" x1="70" y1="-4.5" x2="70" y2="143.5" gradientUnits="userSpaceOnUse">
<stop stop-color="#91F533"/>
<stop offset="0.211608" stop-color="#91F533"/>
<stop offset="0.437445" stop-color="#91F533"/>
<stop offset="0.506796" stop-color="#F4E434"/>
<stop offset="0.657947" stop-color="#F4E434"/>
<stop offset="0.803763" stop-color="#F4E434"/>
<stop offset="1" stop-color="#F4E434"/>
</linearGradient>
</defs>
</svg>
