<svg width="20" height="21" viewBox="0 0 20 21" fill="none" xmlns="http://www.w3.org/2000/svg">
<g id="Frame" clip-path="url(#clip0_1180_11417)">
<g id="Group">
<path id="Vector" d="M16.9957 7.74032C17.5282 7.01732 17.8431 6.12412 17.8431 5.15729C17.8431 2.74909 15.8909 0.796875 13.4827 0.796875C11.0745 0.796875 9.12226 2.74905 9.12226 5.15725C9.12226 6.12408 9.43714 7.01724 9.96964 7.74029C8.87886 8.70954 8.19141 10.1227 8.19141 11.6966C8.19141 14.6189 10.5604 16.9879 13.4827 16.9879C16.405 16.9879 18.774 14.619 18.774 11.6967C18.774 10.1227 18.0865 8.70954 16.9957 7.74032ZM11.1212 5.15725C11.1212 3.85307 12.1785 2.79581 13.4827 2.79581C14.7869 2.79581 15.8441 3.85303 15.8441 5.15725C15.8441 5.75264 15.6233 6.29615 15.2597 6.7115C14.7043 6.51345 14.1061 6.40533 13.4827 6.40533C12.8593 6.40533 12.2612 6.51345 11.7057 6.7115C11.3421 6.29619 11.1212 5.75264 11.1212 5.15725Z" fill="#F5E74C"/>
<path id="Vector_2" d="M15.1241 15.6516L13.078 16.8181C12.2413 17.1064 11.1678 17.2798 9.99766 17.2798C8.82715 17.2798 7.75402 17.1064 6.91691 16.8181L5.26172 15.2607L6.01922 14.548L6.91691 13.7029C7.75402 13.4146 8.82715 13.2412 9.99766 13.2412C11.1678 13.2412 12.2413 13.4146 13.078 13.7029L14.1879 14.7598L15.1241 15.6516Z" fill="#F5E74C"/>
<path id="Vector_3" d="M14.1888 14.7598L13.0789 15.3926C12.2422 15.6808 11.1687 15.8543 9.99856 15.8543C8.82805 15.8543 7.75493 15.6808 6.91783 15.3926L6.02013 14.548L6.91783 13.7029C7.75493 13.4146 8.82805 13.2412 9.99856 13.2412C11.1687 13.2412 12.2422 13.4146 13.0789 13.7029L14.1888 14.7598ZM1.9521 19.4478C1.03793 19.4478 0.296875 18.7067 0.296875 17.7926V12.7285C0.296875 11.8143 1.03797 11.0732 1.9521 11.0732C2.86628 11.0732 3.60733 11.8143 3.60733 12.7285V17.7926C3.60733 18.7068 2.86628 19.4478 1.9521 19.4478Z" fill="#F5E74C"/>
<path id="Vector_4" d="M5.2607 20.2028C4.34652 20.2028 3.60547 19.4617 3.60547 18.5475V11.9726C3.60547 11.0584 4.34656 10.3174 5.2607 10.3174C6.17487 10.3174 6.91592 11.0585 6.91592 11.9726V18.5475C6.91592 19.4617 6.17483 20.2028 5.2607 20.2028ZM18.0428 19.4473C18.957 19.4473 19.6981 18.7063 19.6981 17.7921V12.728C19.6981 11.8138 18.957 11.0728 18.0428 11.0728C17.1287 11.0728 16.3876 11.8139 16.3876 12.728V17.7921C16.3876 18.7063 17.1287 19.4473 18.0428 19.4473Z" fill="#F5E74C"/>
<path id="Vector_5" d="M14.7334 20.2028C15.6475 20.2028 16.3886 19.4617 16.3886 18.5476V11.9726C16.3886 11.0584 15.6475 10.3174 14.7334 10.3174C13.8192 10.3174 13.0781 11.0585 13.0781 11.9726V18.5476C13.0781 19.4618 13.8192 20.2028 14.7334 20.2028Z" fill="#F5E74C"/>
<path id="Vector_6" d="M6.53365 10.4909C6.47381 10.4401 6.39631 10.4151 6.31809 10.4213C6.23987 10.4275 6.16727 10.4643 6.11616 10.5239C6.06505 10.5834 6.03958 10.6608 6.04532 10.739C6.05105 10.8173 6.08753 10.8901 6.14677 10.9416C6.29553 11.069 6.41493 11.2272 6.49678 11.4052C6.57863 11.5832 6.62099 11.7768 6.62095 11.9727V18.5477C6.62095 19.2966 6.01166 19.9059 5.26271 19.9059C4.51377 19.9059 3.90448 19.2966 3.90448 18.5477V11.9728C3.90448 11.2238 4.51377 10.6145 5.26271 10.6145C5.34148 10.6145 5.41702 10.5832 5.47272 10.5275C5.52841 10.4718 5.5597 10.3963 5.5597 10.3175C5.5597 10.2388 5.52841 10.1632 5.47272 10.1075C5.41702 10.0518 5.34148 10.0205 5.26271 10.0205C4.38108 10.0205 3.6344 10.6082 3.39288 11.4123C3.03565 11.0215 2.5221 10.776 1.95222 10.776C0.875739 10.776 0 11.6518 0 12.7282V17.7924C0 18.8688 0.875739 19.7446 1.95222 19.7446C2.5221 19.7446 3.03565 19.499 3.39288 19.1083C3.6344 19.9124 4.38104 20.5 5.26271 20.5C6.33919 20.5 7.21493 19.6243 7.21493 18.5478V11.9728C7.21504 11.6912 7.1542 11.413 7.0366 11.1572C6.91899 10.9014 6.74742 10.6741 6.53365 10.4909ZM1.95226 19.1506C1.20332 19.1506 0.594021 18.5413 0.594021 17.7924V12.7282C0.594021 11.9792 1.20335 11.37 1.95226 11.37C2.70116 11.37 3.31049 11.9792 3.31049 12.7282V17.7923C3.31053 18.5413 2.70124 19.1506 1.95226 19.1506ZM19.7001 13.1715C19.8642 13.1715 19.9971 13.0385 19.9971 12.8745V12.7282C19.9971 11.6517 19.1214 10.776 18.0449 10.776C17.475 10.776 16.9615 11.0215 16.6042 11.4122C16.3627 10.6081 15.6161 10.0205 14.7344 10.0205C13.6579 10.0205 12.7822 10.8962 12.7822 11.9727V18.5477C12.7822 19.6241 13.6579 20.4999 14.7344 20.4999C15.616 20.4999 16.3627 19.9122 16.6042 19.1082C16.9615 19.4989 17.475 19.7444 18.0449 19.7444C19.1214 19.7444 19.9971 18.8687 19.9971 17.7922V13.8644C19.9971 13.7004 19.8642 13.5674 19.7001 13.5674C19.5361 13.5674 19.4031 13.7004 19.4031 13.8644V17.7922C19.4031 18.5412 18.7938 19.1505 18.0449 19.1505C17.296 19.1505 16.6867 18.5412 16.6867 17.7922V12.7282C16.6867 11.9792 17.296 11.37 18.0449 11.37C18.7938 11.37 19.4031 11.9792 19.4031 12.7282V12.8745C19.4031 12.9135 19.4108 12.9521 19.4257 12.9881C19.4406 13.0242 19.4625 13.0569 19.4901 13.0845C19.5177 13.1121 19.5504 13.134 19.5865 13.1489C19.6225 13.1638 19.6611 13.1715 19.7001 13.1715ZM16.0927 18.5477C16.0927 19.2967 15.4833 19.906 14.7344 19.906C13.9855 19.906 13.3762 19.2967 13.3762 18.5477V11.9728C13.3762 11.2238 13.9855 10.6145 14.7344 10.6145C15.4833 10.6145 16.0927 11.2238 16.0927 11.9728V18.5477ZM12.2224 13.1629C11.5285 13.0176 10.7803 12.9439 9.99871 12.9439C9.20778 12.9439 8.45032 13.0195 7.74735 13.1686C7.7092 13.1767 7.67301 13.1922 7.64086 13.2143C7.6087 13.2363 7.58121 13.2645 7.55995 13.2972C7.5387 13.3299 7.52409 13.3665 7.51697 13.4049C7.50985 13.4432 7.51035 13.4826 7.51845 13.5207C7.53481 13.5978 7.58109 13.6652 7.64713 13.7081C7.71316 13.751 7.79354 13.766 7.87059 13.7497C8.53313 13.6092 9.24914 13.538 9.99875 13.538C10.7396 13.538 11.4468 13.6074 12.1007 13.7443C12.1389 13.7523 12.1783 13.7527 12.2166 13.7454C12.2549 13.7382 12.2915 13.7235 12.3241 13.7022C12.3568 13.6808 12.3849 13.6532 12.4069 13.621C12.4289 13.5888 12.4443 13.5526 12.4523 13.5144C12.4603 13.4762 12.4607 13.4369 12.4534 13.3985C12.4462 13.3602 12.4315 13.3237 12.4101 13.291C12.3888 13.2584 12.3612 13.2303 12.329 13.2083C12.2968 13.1863 12.2606 13.1709 12.2224 13.1629ZM12.1007 16.7762C11.4467 16.9131 10.7396 16.9825 9.99871 16.9825C9.2491 16.9825 8.53309 16.9113 7.87055 16.7708C7.79407 16.7559 7.71479 16.7716 7.64981 16.8147C7.58483 16.8577 7.53935 16.9245 7.52319 17.0007C7.50702 17.0769 7.52145 17.1565 7.56338 17.2222C7.6053 17.2878 7.67136 17.3344 7.74731 17.3518C8.45028 17.5009 9.20778 17.5765 9.99867 17.5765C10.7803 17.5765 11.5285 17.5029 12.2224 17.3575C12.2995 17.3414 12.367 17.2953 12.4101 17.2294C12.4532 17.1634 12.4683 17.0831 12.4522 17.006C12.4186 16.8454 12.2612 16.7427 12.1007 16.7762Z" fill="#282828"/>
<path id="Vector_7" d="M7.9677 12.6028C7.98041 12.6806 8.02347 12.7501 8.08741 12.796C8.15135 12.842 8.23094 12.8607 8.30867 12.8481C8.34716 12.8418 8.38404 12.828 8.4172 12.8075C8.45035 12.7869 8.47914 12.7601 8.50192 12.7284C8.52469 12.6967 8.541 12.6609 8.54992 12.6229C8.55884 12.585 8.56019 12.5456 8.5539 12.5071C8.51035 12.2392 8.48848 11.9682 8.48851 11.6968C8.48851 10.2715 9.10035 8.91044 10.1671 7.96255C10.2225 7.91335 10.2575 7.84525 10.2652 7.7716C10.273 7.69795 10.2529 7.62406 10.209 7.56442C9.69249 6.86318 9.41953 6.03088 9.41953 5.15752C9.41945 2.91687 11.2424 1.09398 13.483 1.09398C15.7234 1.09398 17.5462 2.91687 17.5462 5.15752C17.5462 6.03084 17.2731 6.86314 16.7566 7.56442C16.7127 7.62407 16.6927 7.69797 16.7004 7.77163C16.7082 7.84529 16.7432 7.9134 16.7986 7.96259C17.4816 8.56938 17.9848 9.3484 18.2538 10.2154C18.2654 10.2526 18.2842 10.2872 18.3091 10.3172C18.334 10.3472 18.3646 10.372 18.3991 10.3902C18.4336 10.4084 18.4714 10.4195 18.5102 10.4231C18.5491 10.4267 18.5883 10.4226 18.6255 10.411C18.6628 10.3995 18.6974 10.3807 18.7274 10.3558C18.7573 10.3308 18.7821 10.3002 18.8003 10.2657C18.8185 10.2312 18.8296 10.1935 18.8332 10.1546C18.8368 10.1158 18.8327 10.0766 18.8211 10.0394C18.5461 9.1527 18.0523 8.34848 17.3864 7.69853C17.8804 6.94244 18.1402 6.06947 18.1402 5.15756C18.1402 2.58937 16.0509 0.5 13.483 0.5C10.9149 0.5 8.8255 2.58937 8.8255 5.15752C8.8255 6.06951 9.08531 6.94247 9.57937 7.69857C8.50551 8.74762 7.89453 10.1901 7.89453 11.6968C7.89453 12.0007 7.91914 12.3056 7.9677 12.6028Z" fill="#282828"/>
<path id="Vector_8" d="M10.8242 5.15746C10.8242 5.80121 11.058 6.42306 11.4821 6.90734C11.5214 6.95217 11.5732 6.98417 11.6308 6.99918C11.6885 7.01418 11.7493 7.0115 11.8054 6.99148C12.3432 6.7998 12.9075 6.70258 13.4827 6.70258C14.0578 6.70258 14.6221 6.7998 15.1599 6.99148C15.216 7.01149 15.2768 7.01416 15.3344 6.99916C15.3921 6.98415 15.4439 6.95216 15.4831 6.90734C15.9072 6.42306 16.141 5.80122 16.1411 5.15746C16.1411 3.6916 14.9485 2.49902 13.4826 2.49902C12.0167 2.49902 10.8242 3.6916 10.8242 5.15746ZM15.5471 5.15746C15.5471 5.59071 15.4106 6.01294 15.157 6.36422C14.6165 6.19449 14.0542 6.10855 13.4826 6.10855C12.911 6.10855 12.3487 6.19449 11.8082 6.36422C11.5546 6.01295 11.4181 5.59071 11.4182 5.15746C11.4182 4.01914 12.3443 3.09301 13.4826 3.09301C14.6209 3.09301 15.5471 4.01914 15.5471 5.15746Z" fill="#282828"/>
</g>
</g>
<defs>
<clipPath id="clip0_1180_11417">
<rect width="20" height="20" fill="white" transform="translate(0 0.5)"/>
</clipPath>
</defs>
</svg>
