<svg width="18" height="19" viewBox="0 0 18 19" fill="none" xmlns="http://www.w3.org/2000/svg">
<path d="M16.7406 4.16477L16.74 4.16421C16.7372 4.16083 16.7332 4.15971 16.7304 4.15689C16.3923 3.82898 15.9398 3.64542 15.4688 3.64502H2.53125C2.04075 3.64502 1.59694 3.84133 1.26844 4.15689C1.26619 4.15971 1.26225 4.16083 1.25944 4.16421L1.25887 4.16477C1.08329 4.33448 0.943605 4.53776 0.848134 4.76252C0.752662 4.98728 0.703349 5.22895 0.703125 5.47314V13.5265C0.70372 14.0111 0.896517 14.4758 1.23923 14.8185C1.58194 15.1612 2.04658 15.354 2.53125 15.3546H15.4688C15.9534 15.354 16.4181 15.1612 16.7608 14.8185C17.1035 14.4758 17.2963 14.0111 17.2969 13.5265V5.47314C17.2969 4.96014 17.0826 4.49721 16.7406 4.16477ZM15.4688 4.48877C15.5424 4.48877 15.6133 4.49833 15.6819 4.51352L9.63956 9.67952C9.46177 9.83311 9.23467 9.91763 8.99972 9.91763C8.76477 9.91763 8.53766 9.83311 8.35988 9.67952L2.31806 4.51352C2.38669 4.49833 2.45756 4.48877 2.53125 4.48877H15.4688ZM16.4531 13.527C16.4531 14.0698 16.0116 14.5114 15.4688 14.5114H2.53125C1.98844 14.5114 1.54688 14.0698 1.54688 13.527V5.47314C1.54688 5.32071 1.58456 5.17839 1.64644 5.04958L7.81144 10.3213C8.15625 10.6155 8.57812 10.7629 9 10.7629C9.42188 10.7629 9.84375 10.6155 10.188 10.3213L16.353 5.05014C16.4149 5.17896 16.4526 5.32183 16.4526 5.47371L16.4531 13.527Z" fill="#C4C4C4"/>
</svg>
