<svg width="22" height="18" viewBox="0 0 22 18" fill="none" xmlns="http://www.w3.org/2000/svg">
<g clip-path="url(#clip0_1180_12593)">
<path d="M13.231 14.061C16.0251 14.061 18.2902 11.6793 18.2902 8.74143C18.2902 5.80352 16.0251 3.42188 13.231 3.42188C10.4369 3.42188 8.17188 5.80352 8.17188 8.74143C8.17188 11.6793 10.4369 14.061 13.231 14.061Z" fill="#F5E74C"/>
<path d="M9.64585 9.24834C9.91624 9.24834 10.1354 9.01786 10.1354 8.73355C10.1354 8.44923 9.91624 8.21875 9.64585 8.21875C9.37545 8.21875 9.15625 8.44923 9.15625 8.73355C9.15625 9.01786 9.37545 9.24834 9.64585 9.24834Z" fill="white"/>
<path d="M19.1055 16.9735H2.78565C1.61062 16.9735 0.664062 15.9782 0.664062 14.7427V5.30476C0.664062 4.06925 1.61062 3.07398 2.78565 3.07398H5.7885L6.78402 1.49527C7.19201 0.877517 7.84481 0.5 8.56288 0.5H19.1055C20.2806 0.5 21.2271 1.49527 21.2271 2.73078V14.7427C21.2271 15.9782 20.2806 16.9735 19.1055 16.9735ZM2.78565 4.10357C2.14917 4.10357 1.64325 4.63553 1.64325 5.30476V14.7427C1.64325 15.4119 2.14917 15.9439 2.78565 15.9439H19.1055C19.742 15.9439 20.2479 15.4119 20.2479 14.7427V2.73078C20.2479 2.06155 19.742 1.52959 19.1055 1.52959H8.56288C8.18753 1.52959 7.82849 1.73551 7.61633 2.06155L6.47394 3.86333C6.3597 4.01777 6.21282 4.10357 6.04962 4.10357H2.78565Z" fill="#F5E74C"/>
<path d="M6.14405 14.8285C5.94821 14.8285 5.76869 14.7084 5.68709 14.5196C5.39333 13.7989 5.14853 13.0439 4.98534 12.2888C4.51206 10.2468 4.47942 8.08466 4.90374 6.02548C4.9527 5.75092 5.21381 5.57932 5.49125 5.6308C5.75237 5.68228 5.93189 5.95684 5.86661 6.24856C5.47493 8.1533 5.50757 10.161 5.94821 12.0486C6.11141 12.7521 6.32357 13.4557 6.601 14.1078C6.71524 14.3652 6.601 14.6741 6.33989 14.777C6.27461 14.8113 6.20933 14.8285 6.14405 14.8285ZM4.90374 1.52959H1.96616C1.68872 1.52959 1.47656 1.30651 1.47656 1.0148C1.47656 0.723078 1.68872 0.5 1.96616 0.5H4.90374C5.18117 0.5 5.39333 0.723078 5.39333 1.0148C5.39333 1.30651 5.18117 1.52959 4.90374 1.52959Z" fill="#F5E74C"/>
<path d="M10.1459 7.31101C10.0643 7.31101 9.96633 7.29385 9.90105 7.24237C9.67257 7.08793 9.59097 6.77905 9.73785 6.53882C10.4559 5.25183 11.8105 4.44531 13.2303 4.44531C13.5077 4.44531 13.7199 4.66839 13.7199 4.96011C13.7199 5.25183 13.5077 5.4749 13.2303 5.4749C12.1532 5.4749 11.125 6.0755 10.5702 7.07077C10.4722 7.22521 10.309 7.31101 10.1459 7.31101Z" fill="white"/>
</g>
<defs>
<clipPath id="clip0_1180_12593">
<rect width="20.8894" height="16.9727" fill="white" transform="translate(0.5 0.171875)"/>
</clipPath>
</defs>
</svg>
