<svg width="18" height="19" viewBox="0 0 18 19" fill="none" xmlns="http://www.w3.org/2000/svg">
<circle cx="9" cy="9.5" r="8.5" stroke="#444444"/>
<path d="M6.19141 7.91797H7.7793C7.81445 7.25586 8.25977 6.82812 8.93359 6.82812C9.60156 6.82812 10.0469 7.23242 10.0469 7.78906C10.0469 8.3457 9.81836 8.63281 9.0625 9.08398C8.25391 9.55859 7.93164 10.0859 8.00781 11.0059L8.01953 11.3457H9.57227V11.0352C9.57227 10.4609 9.78906 10.1738 10.5684 9.72266C11.3945 9.23633 11.8223 8.62109 11.8223 7.73633C11.8223 6.40039 10.7148 5.46875 9.03906 5.46875C7.24023 5.46875 6.2207 6.47656 6.19141 7.91797ZM8.81641 14.1465C9.34961 14.1465 9.77734 13.7422 9.77734 13.2266C9.77734 12.7109 9.34961 12.3066 8.81641 12.3066C8.28906 12.3066 7.86133 12.7109 7.86133 13.2266C7.86133 13.7422 8.28906 14.1465 8.81641 14.1465Z" fill="#F5E74C"/>
</svg>
