<svg width="23" height="24" viewBox="0 0 23 24" fill="none" xmlns="http://www.w3.org/2000/svg">
<g clip-path="url(#clip0_482_15223)">
<path d="M16.6773 0.765625H6.3472C2.98515 0.765625 0.25 3.50077 0.25 6.86283V17.1931C0.25 20.555 2.98515 23.2902 6.3472 23.2902H16.6775C20.0394 23.2902 22.7745 20.555 22.7745 17.1931V6.86283C22.7745 3.50077 20.0394 0.765625 16.6773 0.765625ZM21.454 17.1931C21.454 19.8269 19.3113 21.9697 16.6773 21.9697H6.3472C3.71328 21.9697 1.5705 19.8269 1.5705 17.1931V6.86283C1.5705 4.22891 3.71328 2.08613 6.3472 2.08613H16.6775C19.3113 2.08613 21.454 4.22891 21.454 6.86283V17.1931Z" fill="white"/>
<path d="M11.5105 5.86699C8.11439 5.86699 5.35156 8.62977 5.35156 12.0259C5.35156 15.422 8.11434 18.1848 11.5105 18.1848C14.9066 18.1848 17.6693 15.422 17.6693 12.0259C17.6693 8.62977 14.9066 5.86699 11.5105 5.86699ZM11.5105 16.8643C8.8427 16.8643 6.67207 14.6939 6.67207 12.0259C6.67207 9.35813 8.8427 7.1875 11.5105 7.1875C14.1784 7.1875 16.3488 9.35813 16.3488 12.0259C16.3488 14.6939 14.1784 16.8643 11.5105 16.8643ZM17.8166 3.67969C16.813 3.67969 15.9968 4.49616 15.9968 5.49956C15.9968 6.50318 16.813 7.31961 17.8166 7.31961C18.8203 7.31961 19.6366 6.50318 19.6366 5.4996C19.6366 4.49603 18.8202 3.67969 17.8166 3.67969ZM17.8166 5.99897C17.5413 5.99897 17.3172 5.77487 17.3172 5.49956C17.3172 5.22412 17.5413 5.00019 17.8166 5.00019C18.0921 5.00019 18.3162 5.22412 18.3162 5.49956C18.3162 5.77487 18.0921 5.99897 17.8166 5.99897Z" fill="white"/>
</g>
<defs>
<clipPath id="clip0_482_15223">
<rect width="22.5246" height="22.5246" fill="white" transform="translate(0.25 0.765625)"/>
</clipPath>
</defs>
</svg>
