<svg width="174" height="26" viewBox="0 0 174 26" fill="none" xmlns="http://www.w3.org/2000/svg">
<g clip-path="url(#clip0_1180_19581)">
<path d="M23.8411 18.3236C25.1667 12.054 26.4371 6.04867 27.7159 0C28.0839 0.124896 28.1328 0.494422 28.27 0.771051C30.1798 4.63559 32.0938 8.49911 33.9631 12.3833C34.2407 12.9592 34.5661 13.1264 35.1764 13.1161C37.3004 13.081 39.4254 13.1275 41.5494 13.0883C42.2189 13.0759 42.4747 13.2173 42.4643 13.947C42.4362 15.8452 42.4747 15.8452 40.5368 15.8452C38.1622 15.8452 35.7877 15.8256 33.4131 15.8597C32.8216 15.868 32.517 15.6564 32.2726 15.1434C31.313 13.1275 30.3202 11.1271 29.3304 9.12565C29.1984 8.85934 29.1444 8.53627 28.7638 8.29267C27.536 14.0854 26.3196 19.8264 25.071 25.713C24.4015 25.0194 24.101 24.2773 23.7101 23.6032C22.2162 21.0258 20.7388 18.4381 19.2844 15.8391C19.0078 15.3446 18.6928 15.1547 18.1137 15.1671C16.1779 15.2063 14.239 15.2135 12.3032 15.165C11.5796 15.1465 11.4111 15.389 11.4205 16.0692C11.4569 18.6446 11.4153 21.2209 11.4486 23.7952C11.4569 24.4631 11.3072 24.7645 10.5711 24.7067C9.7945 24.6458 9.00853 24.6674 8.2288 24.7015C7.68506 24.7252 7.54471 24.5054 7.53847 23.9944C7.52392 22.7919 7.49793 22.7919 6.26699 22.7919C6.17342 22.7919 6.07985 22.794 5.98628 22.7919C5.30116 22.7754 4.44033 23.0025 3.97977 22.6743C3.47138 22.312 3.81343 21.4036 3.80407 20.7368C3.79575 20.2156 3.57015 20.1185 3.12102 20.1309C2.30906 20.1526 1.49606 20.1206 0.684099 20.1433C0.231854 20.1557 -0.00206555 20.0525 1.37413e-05 19.5323C0.0156084 15.7152 0.0145688 11.8981 0.00209303 8.0821C0.00105339 7.62484 0.190269 7.49684 0.617562 7.50717C1.46071 7.52781 2.3049 7.49065 3.14806 7.52058C3.62837 7.5371 3.80407 7.38846 3.80199 6.89094C3.79887 6.24995 3.50361 5.4149 3.93715 5.01235C4.39979 4.58295 5.2471 4.91119 5.9239 4.86371C6.07985 4.85236 6.23996 4.83894 6.39174 4.86577C7.33886 5.03505 7.72041 4.66243 7.55407 3.71591C7.43555 3.04601 7.77447 2.84989 8.40761 2.88602C9.12393 2.92731 9.84752 2.93866 10.5618 2.88293C11.2916 2.82615 11.4558 3.13168 11.4475 3.80055C11.4153 6.40684 11.46 9.01417 11.4184 11.6205C11.407 12.3296 11.6284 12.5154 12.3219 12.5051C14.7588 12.4669 17.1957 12.5164 19.6326 12.4731C20.2991 12.4607 20.6494 12.7053 20.953 13.2544C21.8471 14.877 22.7849 16.477 23.8411 18.3236Z" fill="#F4E434"/>
<path d="M118.305 10.9116C118.305 13.7646 118.305 16.3647 118.305 18.9648C118.305 21.0127 118.287 23.0606 118.317 25.1074C118.325 25.7154 118.123 25.9383 117.509 25.9115C116.604 25.8733 115.697 25.8754 114.792 25.9115C114.241 25.9332 114.03 25.7835 114.031 25.19C114.051 18.3032 114.05 11.4153 114.031 4.52851C114.029 3.94326 114.23 3.81114 114.785 3.79875C118.265 3.71927 118.252 3.71514 120.238 6.54646C123.055 10.5607 125.894 14.5615 128.725 18.5664C128.812 18.6892 128.919 18.7976 129.032 18.9308C129.346 18.6531 129.198 18.3259 129.199 18.0493C129.21 13.6129 129.221 9.17649 129.192 4.74011C129.188 4.03203 129.344 3.73063 130.116 3.79565C130.921 3.86378 131.74 3.83281 132.55 3.80391C133.088 3.7843 133.337 3.92674 133.336 4.52542C133.321 11.4122 133.323 18.3001 133.334 25.1869C133.334 25.6937 133.188 25.9579 132.646 25.9032C132.585 25.897 132.519 25.894 132.459 25.9032C130.066 26.3068 128.509 25.4656 127.151 23.3289C124.54 19.2229 121.549 15.3542 118.714 11.3885C118.646 11.2935 118.561 11.2099 118.305 10.9126V10.9116Z" fill="#F4E434"/>
<path d="M48.9455 10.0426C48.9455 7.90181 48.9662 5.76207 48.933 3.6213C48.9236 3.00301 49.1274 2.80173 49.7356 2.83889C50.4509 2.88327 51.1744 2.88637 51.8887 2.83889C52.5218 2.79657 52.8566 2.97411 52.7318 3.64916C52.5603 4.57195 52.9658 4.88574 53.8484 4.73504C54.0002 4.70923 54.1603 4.72678 54.3163 4.73194C54.9983 4.75361 55.8528 4.53789 56.3165 4.86509C56.8353 5.23152 56.4849 6.13366 56.5005 6.7984C56.5141 7.35062 56.7542 7.48378 57.2491 7.46932C58.06 7.44558 58.873 7.47758 59.685 7.45694C60.132 7.44558 60.3795 7.54467 60.3784 8.06593C60.3639 11.8809 60.3659 15.697 60.3753 19.512C60.3763 20.0291 60.1091 20.1302 59.6683 20.122C58.8564 20.1055 58.0434 20.1375 57.2325 20.1106C56.7303 20.0941 56.5016 20.2324 56.5005 20.7847C56.5005 21.4205 56.8093 22.2607 56.3394 22.6457C55.856 23.041 55.0201 22.7376 54.3391 22.7737C54.152 22.784 53.9597 22.8016 53.7777 22.7706C52.9034 22.6209 52.5863 22.9977 52.7329 23.8307C52.8597 24.5553 52.5187 24.7421 51.8398 24.6895C51.1256 24.6348 50.402 24.6471 49.6867 24.6864C49.1212 24.7173 48.9122 24.5305 48.934 23.9514C48.9735 22.8986 48.9049 21.8406 48.959 20.7888C48.9943 20.1096 48.7323 19.9672 48.1023 19.9744C45.5105 20.0054 42.9176 19.962 40.3258 20.0043C39.6136 20.0157 39.4275 19.8041 39.4379 19.1146C39.466 17.332 39.4327 17.332 41.2011 17.332C43.4499 17.332 45.6986 17.3031 47.9474 17.3474C48.7074 17.3619 48.9829 17.1658 48.9631 16.3689C48.9101 14.2612 48.9455 12.1503 48.9455 10.0416V10.0426Z" fill="#F4E434"/>
<path d="M68.3223 14.7683C68.3223 11.4168 68.3389 8.06419 68.3088 4.71265C68.3025 4.04172 68.4647 3.78987 69.1904 3.794C74.1277 3.8229 79.0649 3.81774 84.0022 3.79812C84.6052 3.79606 84.836 3.95295 84.7986 4.58053C84.7466 5.44654 84.7466 6.31978 84.7986 7.18579C84.8381 7.83711 84.6218 8.0322 83.9627 8.026C80.5568 7.99607 77.1499 8.03323 73.7451 7.99607C72.9903 7.98781 72.6836 8.15606 72.7356 8.96324C72.8052 10.045 72.7938 11.137 72.7377 12.2198C72.7023 12.9083 72.9019 13.122 73.6172 13.1137C76.6477 13.0745 79.6794 13.1261 82.7099 13.0776C83.5042 13.0652 83.7496 13.2933 83.6778 14.0613C83.6113 14.7693 83.6217 15.4908 83.6768 16.201C83.7267 16.842 83.4616 16.9782 82.8721 16.9731C79.8415 16.9493 76.8089 16.9917 73.7794 16.9431C72.9612 16.9297 72.7117 17.1362 72.7335 17.9712C72.7938 20.3288 72.7376 22.6884 72.7657 25.0469C72.773 25.6776 72.6056 25.9501 71.9246 25.9129C71.0212 25.8634 70.1105 25.8603 69.207 25.9129C68.4969 25.9553 68.3025 25.6993 68.3088 25.0098C68.34 21.5963 68.3233 18.1818 68.3233 14.7683H68.3223Z" fill="#F4E434"/>
<path d="M100.757 16.6601C100.757 13.8691 100.742 11.079 100.769 8.28799C100.775 7.69034 100.609 7.47565 99.9836 7.48907C98.2672 7.52622 96.5497 7.47771 94.8332 7.51384C94.2167 7.52622 93.9869 7.32598 94.0192 6.71905C94.0545 6.03883 94.0701 5.35139 94.015 4.67426C93.9557 3.95069 94.2624 3.7938 94.9372 3.79793C99.2143 3.82374 103.491 3.81135 107.768 3.81135C108.861 3.81135 109.954 3.8289 111.046 3.80412C111.561 3.79277 111.798 3.95998 111.764 4.49569C111.702 5.44944 112.141 6.65092 111.594 7.29192C111.061 7.91536 109.832 7.45707 108.91 7.49423C107.913 7.53448 106.91 7.54687 105.914 7.48803C105.212 7.44674 105.02 7.66351 105.024 8.36437C105.056 12.9225 105.04 17.4807 105.04 22.0389C105.04 22.9999 104.995 23.964 105.055 24.9218C105.103 25.6671 104.912 25.9943 104.095 25.92C103.322 25.8487 102.533 25.8601 101.756 25.9179C100.994 25.9736 100.726 25.7362 100.738 24.9425C100.784 22.1834 100.756 19.4233 100.756 16.6643L100.757 16.6601Z" fill="#F4E434"/>
<path d="M91.7121 14.8568C91.7121 18.2063 91.6913 21.5558 91.7277 24.9052C91.736 25.6536 91.5635 25.9818 90.7515 25.9158C89.9447 25.8507 89.1255 25.8549 88.3177 25.9158C87.5754 25.9715 87.3727 25.7186 87.3758 24.9827C87.4059 19.2767 87.3924 13.5697 87.3924 7.86367C87.3924 6.80877 87.4309 5.75283 87.3789 4.70102C87.3456 4.02803 87.5161 3.74108 88.2501 3.79682C89.0881 3.85978 89.9385 3.85565 90.7775 3.79785C91.5021 3.7483 91.7392 3.9599 91.7298 4.71753C91.6872 8.09695 91.7111 11.4784 91.7111 14.8589L91.7121 14.8568Z" fill="#F4E434"/>
<path d="M145.438 8.00466C142.974 8.00466 140.509 7.98815 138.045 8.01602C137.435 8.02324 137.219 7.8457 137.253 7.22535C137.304 6.32941 137.298 5.42727 137.256 4.53132C137.227 3.94503 137.454 3.80362 138.011 3.80569C143.002 3.82323 147.993 3.82323 152.983 3.80569C153.545 3.80362 153.769 3.96877 153.746 4.54371C153.711 5.44069 153.705 6.34179 153.747 7.23774C153.779 7.87151 153.514 8.02118 152.923 8.01498C150.428 7.99021 147.933 8.00466 145.437 8.00363L145.438 8.00466Z" fill="#91F532"/>
<path d="M165.689 8.0046C163.224 8.0046 160.759 7.99015 158.295 8.01492C157.702 8.02111 157.455 7.87248 157.492 7.23561C157.546 6.3087 157.525 5.37662 157.498 4.44765C157.483 3.96252 157.663 3.80665 158.148 3.80769C163.203 3.82007 168.256 3.82214 173.311 3.80665C173.87 3.80459 174 4.04303 173.988 4.53435C173.965 5.43236 173.949 6.33244 173.992 7.22942C174.022 7.85286 173.778 8.02215 173.177 8.01595C170.681 7.98911 168.186 8.0046 165.689 8.0046Z" fill="#91F532"/>
<path d="M145.44 21.6962C147.936 21.6962 150.433 21.7117 152.929 21.6848C153.528 21.6786 153.777 21.8428 153.747 22.4683C153.704 23.3653 153.708 24.2664 153.747 25.1633C153.772 25.7455 153.538 25.9055 152.981 25.9034C147.988 25.8879 142.996 25.8869 138.002 25.9055C137.436 25.9076 137.229 25.7424 137.256 25.1675C137.297 24.2705 137.305 23.3684 137.254 22.4724C137.218 21.851 137.437 21.6766 138.046 21.6838C140.511 21.7117 142.977 21.6952 145.442 21.6952L145.44 21.6962Z" fill="#91F533"/>
<path d="M165.792 21.6956C168.227 21.6956 170.662 21.7193 173.096 21.6801C173.798 21.6688 174.039 21.8773 173.995 22.575C173.941 23.44 173.962 24.3112 173.99 25.1782C174.006 25.683 173.852 25.9039 173.305 25.9028C168.248 25.8894 163.191 25.8905 158.135 25.9028C157.637 25.9039 157.486 25.7191 157.498 25.2474C157.523 24.3184 157.545 23.3853 157.492 22.4584C157.454 21.8164 157.712 21.6791 158.301 21.6853C160.798 21.7101 163.295 21.6956 165.791 21.6956H165.792Z" fill="#91F533"/>
<path d="M145.425 16.8279C142.994 16.8279 140.561 16.8 138.129 16.8454C137.413 16.8588 137.205 16.6379 137.253 15.9536C137.309 15.1526 137.285 14.3434 137.26 13.5393C137.245 13.0738 137.386 12.8818 137.891 12.8828C142.973 12.8973 148.056 12.8952 153.138 12.8849C153.581 12.8849 153.754 13.0366 153.742 13.4774C153.722 14.2825 153.697 15.0907 153.75 15.8917C153.797 16.609 153.577 16.8609 152.815 16.8454C150.353 16.7979 147.889 16.8279 145.425 16.8279Z" fill="#91F533"/>
<path d="M165.797 16.8278C163.364 16.8278 160.93 16.7854 158.499 16.8505C157.633 16.8742 157.502 16.5904 157.492 15.8018C157.481 14.9554 157.481 14.8645 157.501 13.4803C157.49 13.0458 157.647 12.8837 158.095 12.8848C163.179 12.8951 168.263 12.8941 173.347 12.8868C173.751 12.8868 173.998 12.9653 173.988 13.4422C173.967 14.3402 173.955 15.2402 173.992 16.1362C174.017 16.7524 173.709 16.8391 173.19 16.836C170.726 16.8185 168.262 16.8278 165.798 16.8278H165.797Z" fill="#91F533"/>
</g>
<defs>
<clipPath id="clip0_1180_19581">
<rect width="174" height="26" fill="white"/>
</clipPath>
</defs>
</svg>
