<svg width="174" height="26" viewBox="0 0 174 26" fill="none" xmlns="http://www.w3.org/2000/svg">
<path d="M23.8411 18.3236C25.1667 12.054 26.4371 6.04867 27.7159 0C28.0839 0.124896 28.1328 0.494422 28.27 0.771051C30.1798 4.63559 32.0938 8.49911 33.9631 12.3833C34.2407 12.9592 34.5661 13.1264 35.1764 13.1161C37.3004 13.081 39.4254 13.1275 41.5494 13.0883C42.2189 13.0759 42.4747 13.2173 42.4643 13.947C42.4362 15.8452 42.4747 15.8452 40.5368 15.8452C38.1622 15.8452 35.7877 15.8256 33.4131 15.8597C32.8216 15.868 32.517 15.6564 32.2726 15.1434C31.313 13.1275 30.3202 11.1271 29.3304 9.12565C29.1984 8.85934 29.1444 8.53627 28.7638 8.29267C27.536 14.0854 26.3196 19.8264 25.071 25.713C24.4015 25.0194 24.101 24.2773 23.7101 23.6032C22.2162 21.0258 20.7388 18.4381 19.2844 15.8391C19.0078 15.3446 18.6928 15.1547 18.1137 15.1671C16.1779 15.2063 14.239 15.2135 12.3032 15.165C11.5796 15.1465 11.4111 15.389 11.4205 16.0692C11.4569 18.6446 11.4153 21.2209 11.4486 23.7952C11.4569 24.4631 11.3072 24.7645 10.5711 24.7067C9.7945 24.6458 9.00853 24.6674 8.2288 24.7015C7.68506 24.7252 7.54471 24.5054 7.53847 23.9944C7.52392 22.7919 7.49793 22.7919 6.26699 22.7919C6.17342 22.7919 6.07985 22.794 5.98628 22.7919C5.30116 22.7754 4.44033 23.0025 3.97977 22.6743C3.47138 22.312 3.81343 21.4036 3.80407 20.7368C3.79575 20.2156 3.57015 20.1185 3.12102 20.1309C2.30906 20.1526 1.49606 20.1206 0.684099 20.1433C0.231854 20.1557 -0.00206555 20.0525 1.37413e-05 19.5323C0.0156084 15.7152 0.0145688 11.8981 0.00209303 8.0821C0.00105339 7.62484 0.190269 7.49684 0.617562 7.50717C1.46071 7.52781 2.3049 7.49065 3.14806 7.52058C3.62837 7.5371 3.80407 7.38846 3.80199 6.89094C3.79887 6.24995 3.50361 5.4149 3.93715 5.01235C4.39979 4.58295 5.2471 4.91119 5.9239 4.86371C6.07985 4.85236 6.23996 4.83894 6.39174 4.86577C7.33886 5.03505 7.72041 4.66243 7.55407 3.71591C7.43555 3.04601 7.77447 2.84989 8.40761 2.88602C9.12393 2.92731 9.84752 2.93866 10.5618 2.88293C11.2916 2.82615 11.4558 3.13168 11.4475 3.80055C11.4153 6.40684 11.46 9.01417 11.4184 11.6205C11.407 12.3296 11.6284 12.5154 12.3219 12.5051C14.7588 12.4669 17.1957 12.5164 19.6326 12.4731C20.2991 12.4607 20.6494 12.7053 20.953 13.2544C21.8471 14.877 22.7849 16.477 23.8411 18.3236Z" fill="#F4E434"/>
<path d="M118.301 10.9111C118.301 13.7641 118.301 16.3642 118.301 18.9643C118.301 21.0122 118.283 23.0601 118.313 25.1069C118.321 25.7149 118.119 25.9378 117.505 25.911C116.6 25.8728 115.693 25.8749 114.788 25.911C114.237 25.9327 114.026 25.783 114.027 25.1895C114.047 18.3027 114.046 11.4148 114.027 4.52802C114.025 3.94277 114.226 3.81065 114.781 3.79826C118.261 3.71878 118.248 3.71465 120.234 6.54597C123.051 10.5602 125.89 14.561 128.721 18.5659C128.808 18.6887 128.915 18.7971 129.028 18.9303C129.342 18.6526 129.194 18.3254 129.195 18.0488C129.206 13.6124 129.218 9.17601 129.188 4.73963C129.184 4.03154 129.34 3.73014 130.112 3.79517C130.917 3.86329 131.736 3.83232 132.547 3.80342C133.084 3.78381 133.334 3.92625 133.332 4.52493C133.317 11.4117 133.319 18.2996 133.33 25.1864C133.33 25.6932 133.184 25.9575 132.642 25.9028C132.581 25.8966 132.515 25.8935 132.455 25.9028C130.062 26.3063 128.505 25.4651 127.147 23.3285C124.536 19.2224 121.545 15.3537 118.71 11.388C118.642 11.293 118.557 11.2094 118.301 10.9122V10.9111Z" fill="#F4E434"/>
<path d="M48.9455 10.0421C48.9455 7.90133 48.9662 5.76158 48.933 3.62081C48.9236 3.00252 49.1274 2.80124 49.7356 2.8384C50.4509 2.88279 51.1744 2.88588 51.8887 2.8384C52.5218 2.79608 52.8566 2.97362 52.7318 3.64868C52.5603 4.57146 52.9658 4.88525 53.8484 4.73455C54.0002 4.70874 54.1603 4.72629 54.3163 4.73145C54.9983 4.75313 55.8528 4.5374 56.3165 4.8646C56.8353 5.23103 56.4849 6.13317 56.5005 6.79791C56.5141 7.35013 56.7542 7.48329 57.2491 7.46884C58.06 7.4451 58.873 7.47709 59.685 7.45645C60.132 7.4451 60.3795 7.54419 60.3784 8.06545C60.3639 11.8804 60.3659 15.6965 60.3753 19.5115C60.3763 20.0286 60.1091 20.1298 59.6683 20.1215C58.8564 20.105 58.0434 20.137 57.2325 20.1101C56.7303 20.0936 56.5016 20.2319 56.5005 20.7842C56.5005 21.42 56.8093 22.2602 56.3394 22.6452C55.856 23.0406 55.0201 22.7371 54.3391 22.7732C54.152 22.7835 53.9597 22.8011 53.7777 22.7701C52.9034 22.6205 52.5863 22.9972 52.7329 23.8302C52.8597 24.5548 52.5187 24.7416 51.8398 24.689C51.1256 24.6343 50.402 24.6467 49.6867 24.6859C49.1212 24.7168 48.9122 24.53 48.934 23.951C48.9735 22.8981 48.9049 21.8401 48.959 20.7883C48.9943 20.1091 48.7323 19.9667 48.1023 19.9739C45.5105 20.0049 42.9176 19.9615 40.3258 20.0038C39.6136 20.0152 39.4275 19.8036 39.4379 19.1141C39.466 17.3315 39.4327 17.3315 41.2011 17.3315C43.4499 17.3315 45.6986 17.3026 47.9474 17.347C48.7074 17.3614 48.9829 17.1653 48.9631 16.3684C48.9101 14.2607 48.9455 12.1498 48.9455 10.0411V10.0421Z" fill="#F4E434"/>
<path d="M68.3223 14.7688C68.3223 11.4173 68.3389 8.06468 68.3088 4.71314C68.3025 4.04221 68.4647 3.79035 69.1904 3.79448C74.1277 3.82338 79.0649 3.81822 84.0022 3.79861C84.6052 3.79655 84.836 3.95344 84.7986 4.58102C84.7466 5.44703 84.7466 6.32027 84.7986 7.18628C84.8381 7.8376 84.6218 8.03268 83.9627 8.02649C80.5568 7.99656 77.1499 8.03372 73.7451 7.99656C72.9903 7.9883 72.6836 8.15655 72.7356 8.96372C72.8052 10.0455 72.7938 11.1375 72.7377 12.2203C72.7023 12.9088 72.9019 13.1224 73.6172 13.1142C76.6477 13.075 79.6794 13.1266 82.7099 13.0781C83.5042 13.0657 83.7496 13.2938 83.6778 14.0617C83.6113 14.7698 83.6217 15.4913 83.6768 16.2015C83.7267 16.8425 83.4616 16.9787 82.8721 16.9736C79.8415 16.9498 76.8089 16.9921 73.7794 16.9436C72.9612 16.9302 72.7117 17.1367 72.7335 17.9717C72.7938 20.3292 72.7376 22.6888 72.7657 25.0474C72.773 25.6781 72.6056 25.9506 71.9246 25.9134C71.0212 25.8639 70.1105 25.8608 69.207 25.9134C68.4969 25.9557 68.3025 25.6998 68.3088 25.0103C68.34 21.5968 68.3233 18.1823 68.3233 14.7688H68.3223Z" fill="#F4E434"/>
<path d="M100.757 16.6596C100.757 13.8686 100.742 11.0786 100.769 8.2875C100.775 7.68986 100.609 7.47516 99.9836 7.48858C98.2672 7.52574 96.5497 7.47722 94.8332 7.51335C94.2167 7.52574 93.9869 7.32549 94.0192 6.71856C94.0545 6.03834 94.0701 5.3509 94.015 4.67378C93.9557 3.95021 94.2624 3.79331 94.9372 3.79744C99.2143 3.82325 103.491 3.81086 107.768 3.81086C108.861 3.81086 109.954 3.82841 111.046 3.80363C111.561 3.79228 111.798 3.9595 111.764 4.49521C111.702 5.44896 112.141 6.65043 111.594 7.29143C111.061 7.91487 109.832 7.45658 108.91 7.49374C107.913 7.53399 106.91 7.54638 105.914 7.48754C105.212 7.44626 105.02 7.66302 105.024 8.36388C105.056 12.9221 105.04 17.4802 105.04 22.0384C105.04 22.9994 104.995 23.9635 105.055 24.9213C105.103 25.6666 104.912 25.9938 104.095 25.9195C103.322 25.8483 102.533 25.8596 101.756 25.9174C100.994 25.9732 100.726 25.7357 100.738 24.942C100.784 22.1829 100.756 19.4228 100.756 16.6638L100.757 16.6596Z" fill="#F4E434"/>
<path d="M91.716 14.8563C91.716 18.2058 91.6952 21.5553 91.7316 24.9047C91.74 25.6531 91.5674 25.9813 90.7554 25.9153C89.9486 25.8502 89.1294 25.8544 88.3216 25.9153C87.5793 25.971 87.3766 25.7181 87.3797 24.9822C87.4098 19.2762 87.3963 13.5692 87.3963 7.86318C87.3963 6.80828 87.4348 5.75234 87.3828 4.70053C87.3495 4.02754 87.52 3.74059 88.254 3.79633C89.092 3.85929 89.9424 3.85516 90.7814 3.79736C91.506 3.74781 91.7431 3.95941 91.7337 4.71705C91.6911 8.09646 91.715 11.4779 91.715 14.8584L91.716 14.8563Z" fill="#F4E434"/>
<path d="M145.438 8.00466C142.974 8.00466 140.509 7.98815 138.045 8.01602C137.435 8.02324 137.219 7.8457 137.253 7.22535C137.304 6.32941 137.298 5.42727 137.256 4.53132C137.227 3.94503 137.454 3.80362 138.011 3.80569C143.002 3.82323 147.993 3.82323 152.983 3.80569C153.545 3.80362 153.769 3.96877 153.746 4.54371C153.711 5.44069 153.705 6.34179 153.747 7.23774C153.779 7.87151 153.514 8.02118 152.923 8.01498C150.428 7.99021 147.933 8.00466 145.437 8.00363L145.438 8.00466Z" fill="#91F532"/>
<path d="M165.689 8.0046C163.224 8.0046 160.759 7.99015 158.295 8.01492C157.702 8.02111 157.455 7.87248 157.492 7.23561C157.546 6.3087 157.525 5.37662 157.498 4.44765C157.483 3.96252 157.663 3.80665 158.148 3.80769C163.203 3.82007 168.256 3.82214 173.311 3.80665C173.87 3.80459 174 4.04303 173.988 4.53435C173.965 5.43236 173.949 6.33244 173.992 7.22942C174.022 7.85286 173.778 8.02215 173.177 8.01595C170.681 7.98911 168.186 8.0046 165.689 8.0046Z" fill="#91F532"/>
<path d="M145.44 21.6957C147.936 21.6957 150.433 21.7112 152.929 21.6844C153.528 21.6782 153.777 21.8423 153.747 22.4678C153.704 23.3648 153.708 24.2659 153.747 25.1629C153.772 25.745 153.538 25.905 152.981 25.9029C147.988 25.8875 142.996 25.8864 138.002 25.905C137.436 25.9071 137.229 25.7419 137.256 25.167C137.297 24.27 137.305 23.3679 137.254 22.4719C137.218 21.8505 137.437 21.6761 138.046 21.6833C140.511 21.7112 142.977 21.6947 145.442 21.6947L145.44 21.6957Z" fill="#91F533"/>
<path d="M165.792 21.6956C168.227 21.6956 170.662 21.7193 173.096 21.6801C173.798 21.6688 174.039 21.8773 173.995 22.575C173.941 23.44 173.962 24.3112 173.99 25.1782C174.006 25.683 173.852 25.9039 173.305 25.9028C168.248 25.8894 163.191 25.8905 158.135 25.9028C157.637 25.9039 157.486 25.7191 157.498 25.2474C157.523 24.3184 157.545 23.3853 157.492 22.4584C157.454 21.8164 157.712 21.6791 158.301 21.6853C160.798 21.7101 163.295 21.6956 165.791 21.6956H165.792Z" fill="#91F533"/>
<path d="M145.425 16.8279C142.994 16.8279 140.561 16.8 138.129 16.8454C137.413 16.8588 137.205 16.6379 137.253 15.9536C137.309 15.1526 137.285 14.3434 137.26 13.5393C137.245 13.0738 137.386 12.8818 137.891 12.8828C142.973 12.8973 148.056 12.8952 153.138 12.8849C153.581 12.8849 153.754 13.0366 153.742 13.4774C153.722 14.2825 153.697 15.0907 153.75 15.8917C153.797 16.609 153.577 16.8609 152.815 16.8454C150.353 16.7979 147.889 16.8279 145.425 16.8279Z" fill="#91F533"/>
<path d="M165.797 16.8278C163.364 16.8278 160.93 16.7854 158.499 16.8505C157.633 16.8742 157.502 16.5904 157.492 15.8018C157.481 14.9554 157.481 14.8645 157.501 13.4803C157.49 13.0458 157.647 12.8837 158.095 12.8848C163.179 12.8951 168.263 12.8941 173.347 12.8868C173.751 12.8868 173.998 12.9653 173.988 13.4422C173.967 14.3402 173.955 15.2402 173.992 16.1362C174.017 16.7524 173.709 16.8391 173.19 16.836C170.726 16.8185 168.262 16.8278 165.798 16.8278H165.797Z" fill="#91F533"/>
</svg>
