<svg width="18" height="19" viewBox="0 0 18 19" fill="none" xmlns="http://www.w3.org/2000/svg">
<g clip-path="url(#clip0_1180_12140)">
<path fill-rule="evenodd" clip-rule="evenodd" d="M3.1645 1.18608C4.22539 0.139615 5.97231 0.325557 6.86059 1.50348L7.9607 2.95989C8.68423 3.91814 8.61972 5.25693 7.76108 6.10361L7.55361 6.30945C7.53018 6.39587 7.5278 6.48657 7.54664 6.57409C7.60156 6.92695 7.89881 7.67418 9.14363 8.90226C10.3884 10.1303 11.1468 10.4244 11.5077 10.4797C11.5986 10.4989 11.6927 10.4962 11.7823 10.472L12.138 10.1208C12.9016 9.36842 14.0732 9.22745 15.0181 9.73684L16.6831 10.6363C18.1101 11.4043 18.4702 13.3277 17.3021 14.4805L16.0633 15.7017C15.6728 16.0866 15.148 16.4074 14.5082 16.4671C12.9304 16.6133 9.25434 16.4264 5.39 12.6151C1.7837 9.05707 1.09155 5.95399 1.00351 4.42494C0.959924 3.65177 1.32779 2.99794 1.79678 2.53611L3.1645 1.18608ZM5.81453 2.28098C5.37257 1.69548 4.54967 1.64878 4.08591 2.10628L2.71731 3.45544C2.42964 3.73911 2.29191 4.05219 2.30935 4.35143C2.37908 5.56654 2.93698 8.36606 6.31228 11.6957C9.85321 15.188 13.123 15.2926 14.387 15.175C14.6451 15.1517 14.9013 15.0185 15.1411 14.7824L16.3789 13.5603C16.8828 13.0639 16.772 12.1593 16.059 11.7753L14.394 10.8767C13.9337 10.6294 13.395 10.7107 13.0603 11.041L12.6636 11.4328L12.2016 10.9727C12.6636 11.4328 12.6628 11.4337 12.6619 11.4337L12.661 11.4354L12.6584 11.438L12.6523 11.4432L12.6392 11.4553C12.6022 11.4889 12.5625 11.5195 12.5207 11.547C12.4509 11.5928 12.3585 11.6438 12.2426 11.6862C12.0072 11.7736 11.6952 11.8203 11.3099 11.7615C10.5541 11.6464 9.55246 11.1353 8.22135 9.82246C6.8911 8.50962 6.37156 7.52196 6.25475 6.77301C6.1946 6.39074 6.24255 6.08113 6.33146 5.84762C6.38077 5.71639 6.4508 5.59378 6.53893 5.48438L6.56682 5.45411L6.57903 5.44114L6.58426 5.43595L6.58687 5.43335L6.58862 5.43162L6.83967 5.18428C7.21277 4.81499 7.26507 4.20354 6.91377 3.73739L5.81453 2.28098Z" fill="#C4C4C4"/>
</g>
<defs>
<clipPath id="clip0_1180_12140">
<rect width="18" height="18" fill="white" transform="translate(0 0.5)"/>
</clipPath>
</defs>
</svg>
