<svg width="350" height="350" viewBox="0 0 350 350" fill="none" xmlns="http://www.w3.org/2000/svg">
<g clip-path="url(#clip0_5685_2266)">
<rect width="350" height="350" rx="15" fill="white"/>
<path d="M-1.29547 296.401L-0.816022 286.021C-0.78405 285.329 -0.0639537 284.908 0.484269 285.275C1.98251 286.278 2.9653 288.099 2.87165 290.173L2.75905 292.61C2.66476 294.652 1.53164 296.39 -0.0663948 297.262C-0.646808 297.579 -1.32752 297.095 -1.29547 296.401Z" fill="#F5E74C"/>
<path d="M-16.6366 311.323C-16.6954 312.594 -15.7784 313.671 -14.5873 313.728L-11.1581 313.887C-8.06467 314.033 -5.42641 311.47 -5.2768 308.162L-3.6931 273.877C-3.53751 270.574 -5.92328 267.773 -9.02156 267.633L-12.4508 267.475C-13.6421 267.422 -14.6542 268.409 -14.713 269.681L-16.6366 311.323Z" fill="#F5E74C"/>
<path d="M-17.8279 262.752C-17.7684 261.465 -18.6957 260.376 -19.9009 260.318L-25.7389 260.048C-28.8291 259.907 -31.4663 262.474 -31.6202 265.773L-33.8278 313.565C-33.9801 316.863 -31.5879 319.666 -28.4994 319.808L-22.6613 320.078C-21.4559 320.131 -20.4323 319.132 -20.3727 317.845L-17.8279 262.752Z" fill="#F5E74C"/>
<g clip-path="url(#clip1_5685_2266)">
<path d="M-1.06385 225.241L-0.649268 217.352C-0.621622 216.826 -0.0362006 216.508 0.407804 216.788C1.62123 217.553 2.41433 218.94 2.33324 220.516L2.23587 222.368C2.15434 223.92 1.2305 225.239 -0.0685167 225.898C-0.540324 226.138 -1.09156 225.768 -1.06385 225.241Z" fill="#F5E74C"/>
<path d="M-13.549 236.578C-13.5998 237.544 -12.8583 238.364 -11.8918 238.411L-9.10922 238.538C-6.59914 238.656 -4.45178 236.713 -4.32225 234.199L-2.95282 208.142C-2.81844 205.632 -4.74772 203.498 -7.26176 203.386L-10.0443 203.258C-11.011 203.216 -11.8348 203.964 -11.8856 204.93L-13.549 236.578Z" fill="#F5E74C"/>
<path d="M-14.3978 199.691C-14.3464 198.713 -15.0963 197.883 -16.0742 197.836L-20.8113 197.619C-23.3188 197.505 -25.4653 199.451 -25.5983 201.958L-27.5072 238.281C-27.6389 240.787 -25.7044 242.922 -23.1983 243.037L-18.4611 243.254C-17.483 243.297 -16.6499 242.54 -16.5983 241.562L-14.3978 199.691Z" fill="#F5E74C"/>
</g>
<path d="M16.3322 63.8339L18.9439 59.9694C19.1181 59.7117 19.4924 59.7352 19.6166 60.0172C19.9561 60.7876 19.9065 61.7401 19.3856 62.5127L18.7723 63.4202C18.2587 64.1803 17.4179 64.5568 16.6016 64.4809C16.3051 64.4534 16.1577 64.0923 16.3322 63.8339Z" fill="#F5E74C"/>
<path d="M2.24447 53.6948L-13.3313 42.1953C-13.6835 41.9353 -13.763 41.4195 -13.5089 41.0435L-11.055 37.4124C-10.8008 37.0364 -10.3092 36.9423 -9.95703 37.2024L5.61872 48.7019C5.97092 48.9619 6.05036 49.4777 5.79623 49.8538L3.3425 53.4846C3.08838 53.8606 2.59677 53.9548 2.24447 53.6948Z" fill="#F5E74C"/>
<path d="M6.95499 65.5259C6.63497 65.9994 6.73449 66.6487 7.17736 66.9771L8.45415 67.9198C9.6051 68.7714 11.2156 68.4649 12.0467 67.2324L20.6735 54.4673C21.5056 53.2384 21.2467 51.5489 20.0924 50.6985L18.8156 49.7559C18.3714 49.4294 17.7527 49.5484 17.4327 50.0219L6.95499 65.5259Z" fill="#F5E74C"/>
<path d="M17.8472 46.4375C18.171 45.9584 18.0705 45.3016 17.6225 44.9691L15.4488 43.3643C14.2979 42.5155 12.687 42.8237 11.8563 44.0517L-0.169108 61.8459C-0.998759 63.0735 -0.737955 64.7656 0.411996 65.6146L2.58563 67.2194C3.03516 67.5495 3.66097 67.429 3.98482 66.9499L17.8472 46.4375Z" fill="#F5E74C"/>
<g clip-path="url(#clip2_5685_2266)">
<path d="M13.2285 48.3105L15.3925 45.3735C15.5368 45.1776 15.8424 45.1985 15.9418 45.4151C16.2132 46.0072 16.1654 46.7356 15.7337 47.3227L15.2255 48.0125C14.8 48.5901 14.11 48.8718 13.4436 48.8076C13.2016 48.7843 13.0838 48.5069 13.2285 48.3105Z" fill="#F5E74C"/>
<path d="M1.79163 40.8962L-10.847 31.98C-11.1328 31.7784 -11.1938 31.3832 -10.9832 31.0974L-8.94994 28.3378C-8.73938 28.052 -8.33693 27.9838 -8.05114 28.1854L4.58746 37.1016C4.87325 37.3032 4.93417 37.6985 4.7236 37.9843L2.69049 40.7437C2.47993 41.0295 2.07749 41.0978 1.79163 40.8962Z" fill="#F5E74C"/>
<path d="M5.55214 49.6189C5.28698 49.9788 5.36328 50.4763 5.72263 50.731L6.75865 51.4619C7.69255 52.1222 9.0109 51.8998 9.69956 50.9631L16.8475 41.2616C17.537 40.3277 17.3385 39.0331 16.4018 38.3737L15.3658 37.6428C15.0054 37.3897 14.499 37.476 14.2338 37.8359L5.55214 49.6189Z" fill="#F5E74C"/>
<path d="M14.6001 35.2018C14.8684 34.8377 14.7914 34.3344 14.4279 34.0766L12.6641 32.8323C11.7302 32.1742 10.4115 32.3978 9.72321 33.3311L-0.240817 46.8547C-0.928248 47.7877 -0.728221 49.0843 0.204881 49.7425L1.96863 50.9868C2.33341 51.2428 2.84571 51.1553 3.11405 50.7912L14.6001 35.2018Z" fill="#F5E74C"/>
</g>
<path d="M325.985 61.4464L325.924 57.1704C325.92 56.8853 326.206 56.6946 326.44 56.8318C327.08 57.2065 327.529 57.9304 327.542 58.7845L327.557 59.7887C327.568 60.6296 327.146 61.3719 326.511 61.7698C326.281 61.9143 325.989 61.7322 325.985 61.4464Z" fill="#F5E74C"/>
<path d="M278.426 62.1695C278.43 62.4546 278.144 62.6453 277.91 62.5082C277.269 62.1335 276.82 61.4094 276.808 60.5555L276.793 59.5513C276.782 58.7104 277.204 57.9681 277.839 57.5702C278.069 57.4256 278.361 57.6077 278.365 57.8935L278.426 62.1695Z" fill="#F5E74C"/>
<path d="M310.83 62.3111L293.596 62.5548C293.206 62.5603 292.885 62.2274 292.879 61.8113L292.823 57.7937C292.817 57.3777 293.128 57.0359 293.518 57.0304L310.751 56.7867C311.141 56.7812 311.462 57.1142 311.468 57.5302L311.525 61.5476C311.53 61.9636 311.219 62.3055 310.83 62.3111Z" fill="#F5E74C"/>
<path d="M320.051 67.9767C320.058 68.5007 320.462 68.9201 320.952 68.9142L322.365 68.8943C323.64 68.8777 324.66 67.759 324.639 66.3964L324.44 52.2724C324.422 50.9117 323.372 49.8203 322.096 49.8398L320.683 49.8598C320.192 49.8678 319.801 50.2984 319.808 50.8223L320.051 67.9767Z" fill="#F5E74C"/>
<path d="M318.36 48.0774C318.353 47.5473 317.945 47.1229 317.448 47.1286L315.043 47.1626C313.77 47.1813 312.75 48.3013 312.769 49.6605L313.047 69.3489C313.067 70.7072 314.119 71.7995 315.391 71.7815L317.796 71.7475C318.293 71.7392 318.688 71.3035 318.681 70.7733L318.36 48.0774Z" fill="#F5E74C"/>
<path d="M285.99 71.2756C285.997 71.7993 286.401 72.2183 286.891 72.2115L289.307 72.1773C290.58 72.1587 291.599 71.0386 291.581 69.6795L291.302 49.991C291.282 48.6319 290.231 47.5405 288.958 47.5585L286.553 47.5925C286.057 47.6008 285.661 48.0367 285.669 48.5668L285.99 71.2756Z" fill="#F5E74C"/>
<path d="M284.294 51.167L284.539 68.5187C284.546 69.0422 284.155 69.4726 283.665 69.4806L282.252 69.5006C280.977 69.5199 279.926 68.4307 279.908 67.068L279.708 52.9441C279.688 51.5838 280.706 50.4628 281.982 50.4462L283.577 50.4236C283.967 50.4181 284.288 50.7509 284.294 51.167Z" fill="#F5E74C"/>
<g clip-path="url(#clip3_5685_2266)">
<path d="M264.512 46.7031L264.459 43.4535C264.456 43.2368 264.687 43.0917 264.877 43.1958C265.397 43.4802 265.762 44.0302 265.773 44.6792L265.786 45.4424C265.796 46.0815 265.454 46.6458 264.939 46.9486C264.752 47.0585 264.515 46.9203 264.512 46.7031Z" fill="#F5E74C"/>
<path d="M225.924 47.2459C225.928 47.4626 225.696 47.6076 225.506 47.5036C224.986 47.2192 224.621 46.6691 224.61 46.0202L224.598 45.257C224.587 44.6179 224.929 44.0536 225.444 43.7508C225.631 43.6408 225.868 43.7791 225.871 43.9963L225.924 47.2459Z" fill="#F5E74C"/>
<path d="M252.219 47.3511L238.235 47.5473C237.919 47.5518 237.658 47.299 237.653 46.9828L237.604 43.9294C237.599 43.6132 237.851 43.3532 238.167 43.3488L252.151 43.1525C252.468 43.1481 252.728 43.4009 252.733 43.7172L252.782 46.7703C252.787 47.0865 252.535 47.3466 252.219 47.3511Z" fill="#F5E74C"/>
<path d="M259.706 51.666C259.712 52.0642 260.04 52.3827 260.438 52.3779L261.584 52.3618C262.619 52.3484 263.446 51.4976 263.428 50.462L263.255 39.7277C263.239 38.6936 262.387 37.8648 261.351 37.8804L260.205 37.8965C259.807 37.9029 259.49 38.2304 259.496 38.6286L259.706 51.666Z" fill="#F5E74C"/>
<path d="M258.317 36.5391C258.311 36.1363 257.98 35.8139 257.577 35.8186L255.625 35.846C254.592 35.861 253.766 36.7129 253.782 37.7459L254.022 52.7091C254.039 53.7414 254.894 54.5708 255.926 54.5564L257.878 54.529C258.281 54.5224 258.601 54.1909 258.595 53.788L258.317 36.5391Z" fill="#F5E74C"/>
<path d="M232.068 54.1708C232.074 54.5688 232.402 54.8869 232.8 54.8815L234.76 54.8539C235.793 54.8389 236.619 53.987 236.603 52.9541L236.362 37.9909C236.345 36.9579 235.491 36.1291 234.459 36.1436L232.507 36.171C232.104 36.1777 231.783 36.5092 231.79 36.912L232.068 54.1708Z" fill="#F5E74C"/>
<path d="M230.678 38.8836L230.89 52.0708C230.896 52.4687 230.579 52.7961 230.181 52.8025L229.034 52.8186C228 52.8341 227.146 52.0069 227.131 50.9713L226.958 40.2371C226.94 39.2033 227.766 38.3507 228.801 38.3373L230.096 38.3191C230.412 38.3147 230.672 38.5674 230.678 38.8836Z" fill="#F5E74C"/>
</g>
<g clip-path="url(#clip4_5685_2266)">
<path d="M398.772 34.7692L391.317 40.8293C389.183 42.5639 386.036 42.2514 384.301 40.1174L379.459 34.1613L342.318 64.3523L347.16 70.3084C348.894 72.4423 348.557 75.5874 346.423 77.322L338.968 83.3821C336.834 85.1168 333.7 84.7932 331.966 82.6592L312.182 58.3216C310.448 56.1876 310.771 53.0536 312.905 51.319L320.36 45.2589C322.494 43.5243 325.642 43.8368 327.376 45.9708L332.229 51.9403L369.37 21.7494L364.518 15.7798C362.783 13.6458 363.12 10.5008 365.254 8.76619L372.709 2.70608C374.83 0.982443 377.977 1.29497 379.712 3.42893L399.495 27.7665C401.23 29.9005 400.893 33.0456 398.772 34.7692Z" fill="#F5E74C"/>
</g>
<g clip-path="url(#clip5_5685_2266)">
<path d="M8.05912 124.995L4.1857 127.958C3.07699 128.806 1.48476 128.6 0.636724 127.491L-1.73024 124.397L-21.0273 139.157L-18.6603 142.252C-17.8123 143.36 -18.0305 144.951 -19.1392 145.799L-23.0126 148.762C-24.1214 149.61 -25.7066 149.398 -26.5546 148.29L-36.2264 135.645C-37.0745 134.536 -36.8633 132.951 -35.7546 132.103L-31.8812 129.14C-30.7725 128.292 -29.1802 128.498 -28.3322 129.607L-25.9598 132.708L-6.66277 117.948L-9.03511 114.847C-9.88315 113.738 -9.66498 112.147 -8.55627 111.299L-4.68285 108.337C-3.58116 107.494 -1.98889 107.7 -1.14085 108.808L8.53098 121.453C9.37902 122.562 9.16081 124.153 8.05912 124.995Z" fill="#F5E74C"/>
</g>
<g clip-path="url(#clip6_5685_2266)">
<path d="M266.928 188.357L264.639 190.108C263.984 190.609 263.043 190.487 262.542 189.832L261.144 188.004L249.742 196.725L251.14 198.553C251.641 199.208 251.512 200.148 250.857 200.649L248.569 202.4C247.914 202.901 246.977 202.776 246.476 202.121L240.761 194.65C240.26 193.995 240.385 193.058 241.04 192.557L243.328 190.806C243.984 190.305 244.924 190.427 245.425 191.082L246.827 192.915L258.229 184.193L256.827 182.361C256.326 181.706 256.455 180.766 257.11 180.265L259.399 178.514C260.05 178.016 260.991 178.138 261.492 178.793L267.207 186.264C267.708 186.919 267.579 187.859 266.928 188.357Z" fill="#F5E74C"/>
</g>
<path d="M422.778 374.002L420.446 368.65C420.029 367.748 419.479 366.926 418.816 366.211L421.852 364.655C423.899 363.606 425.493 361.754 426.284 359.507C427.076 357.259 426.999 354.8 426.071 352.671L423.738 347.318C422.81 345.189 421.107 343.564 419.004 342.8C416.9 342.036 414.568 342.196 412.521 343.245L384.223 357.749L367.894 320.282L396.193 305.778C398.24 304.729 399.834 302.877 400.625 300.629C401.416 298.382 401.34 295.923 400.412 293.793L398.079 288.441C397.151 286.312 395.448 284.686 393.344 283.922C391.241 283.159 388.909 283.319 386.862 284.368L383.827 285.924C383.738 284.915 383.501 283.932 383.123 283.01L380.791 277.658C379.863 275.528 378.16 273.903 376.056 273.139C373.952 272.375 371.621 272.536 369.574 273.585L318.122 299.956C316.075 301.005 314.48 302.857 313.689 305.105C312.898 307.352 312.975 309.811 313.903 311.94L316.236 317.293C316.653 318.194 317.202 319.017 317.865 319.732L314.829 321.288C312.782 322.337 311.188 324.189 310.397 326.436C309.606 328.684 309.682 331.143 310.61 333.272L312.943 338.625C313.871 340.754 315.574 342.379 317.678 343.143C319.781 343.907 322.113 343.747 324.16 342.698L352.459 328.193L368.787 365.661L340.488 380.165C338.442 381.214 336.847 383.066 336.056 385.314C335.265 387.561 335.342 390.02 336.27 392.149L338.602 397.502C339.53 399.631 341.233 401.257 343.337 402.02C345.44 402.784 347.772 402.624 349.819 401.575L352.855 400.019C352.943 401.028 353.18 402.011 353.558 402.933L355.891 408.285C356.819 410.414 358.522 412.04 360.625 412.804C362.729 413.568 365.061 413.407 367.107 412.358L418.56 385.987C420.606 384.938 422.201 383.086 422.992 380.838C423.783 378.591 423.706 376.132 422.778 374.002Z" fill="#F5E74C"/>
<path d="M208.809 322.633L203.822 314.771L211.15 309.863C214.475 307.629 215.334 302.943 213.071 299.388L199.192 277.642L212.912 268.453L203.795 254.168L190.075 263.357L176.196 241.612C175.111 239.9 173.43 238.684 171.527 238.233C169.624 237.783 167.656 238.135 166.058 239.213L158.729 244.121L153.7 236.288C152.616 234.585 150.941 233.376 149.046 232.928C147.151 232.479 145.191 232.828 143.598 233.898L136.233 238.798C132.93 241.048 132.075 245.713 134.312 249.273L157.309 285.303L141.288 296.034C140.632 296.484 140.124 297.129 139.826 297.889L135.843 307.992C135.228 309.541 133.768 310.519 132.136 310.475L121.461 310.189C120.662 310.164 119.881 310.382 119.216 310.817L64.4208 347.519C63.7652 347.969 63.2572 348.614 62.9592 349.374L58.9338 359.506C58.3188 361.055 56.8583 362.033 55.2268 361.989L44.5949 361.675C43.7954 361.649 43.0152 361.868 42.3499 362.302L26.329 373.033L3.33235 337.002C2.24019 335.291 0.548836 334.083 -1.36068 333.652C-3.25231 333.209 -5.20715 333.551 -6.80483 334.604L-14.141 339.549C-15.7457 340.606 -16.8519 342.306 -17.2116 344.268C-17.5714 346.23 -17.1546 348.29 -16.0549 349.987L-11.0677 357.849L-18.3964 362.758C-21.7213 364.992 -22.5804 369.677 -20.317 373.233L-6.43808 394.978L-20.1581 404.168L-11.0408 418.452L2.67922 409.263L16.5581 431.008C17.6419 432.723 19.3225 433.941 21.2267 434.392C23.1309 434.842 25.0999 434.488 26.6962 433.407L34.0252 428.499L39.0553 436.332C40.132 438.045 41.8071 439.262 43.7058 439.711C45.6045 440.161 47.5682 439.804 49.1572 438.722L56.5219 433.822C59.8249 431.572 60.6802 426.908 58.4426 423.347L35.4464 387.317L51.4672 376.586C52.1121 376.134 52.8858 375.912 53.677 375.951L64.3518 376.237C65.9873 376.294 67.4543 375.312 68.0588 373.754L72.0778 363.659C72.3538 362.885 72.8664 362.234 73.5389 361.804L128.334 325.103C128.989 324.644 129.777 324.424 130.58 324.475L141.219 324.753C142.854 324.81 144.321 323.828 144.926 322.27L148.951 312.138C149.234 311.38 149.743 310.743 150.406 310.319L166.427 299.589L189.423 335.619C191.709 339.147 196.224 340.215 199.56 338.018L206.896 333.072C208.501 332.015 209.607 330.315 209.967 328.353C210.326 326.391 209.909 324.331 208.809 322.633ZM52.3913 427.4L45.0627 432.308L-10.047 345.963L-2.71841 341.055L52.3913 427.4ZM195.473 331.566L140.363 245.221L147.692 240.313L202.801 326.658L195.473 331.566Z" fill="#F5E74C"/>
<path d="M298.031 -48.8269L291.944 -55.3629L298.03 -61.8609C300.79 -64.8156 300.79 -69.598 298.03 -72.5523L281.117 -90.6108L292.51 -102.776L281.399 -114.639L270.006 -102.474L253.092 -120.533C251.767 -121.956 249.965 -122.757 248.085 -122.757C246.205 -122.757 244.403 -121.956 243.078 -120.533L236.991 -114.035L230.87 -120.533C229.548 -121.948 227.753 -122.743 225.881 -122.743C224.009 -122.743 222.214 -121.948 220.891 -120.533L214.77 -114.035C212.033 -111.069 212.033 -106.308 214.77 -103.343L242.795 -73.4218L229.49 -59.2169C228.948 -58.6245 228.579 -57.8763 228.428 -57.0635L226.411 -46.2587C226.098 -44.6015 224.885 -43.3065 223.333 -42.9718L213.177 -40.7808C212.416 -40.6205 211.715 -40.2265 211.16 -39.6474L165.656 8.93808C165.113 9.53044 164.744 10.2787 164.594 11.0915L162.542 21.9344C162.228 23.5915 161.015 24.8865 159.463 25.2212L149.343 27.3746C148.582 27.5349 147.881 27.9289 147.327 28.508L134.022 42.713L105.997 12.7916C104.666 11.37 102.855 10.5801 100.972 10.6005C99.1046 10.6054 97.3132 11.3921 95.9834 12.7916L89.8964 19.3271C88.5608 20.7328 87.8086 22.6516 87.8086 24.6541C87.8086 26.6565 88.5608 28.5753 89.8964 29.981L95.9825 36.517L89.8964 43.0149C87.1364 45.9697 87.1364 50.752 89.8964 53.7063L106.81 71.7648L95.4165 83.9296L106.528 95.7926L117.921 83.6277L134.835 101.686C136.159 103.113 137.961 103.915 139.842 103.915C141.723 103.915 143.526 103.113 144.85 101.686L150.936 95.1882L157.058 101.686C158.374 103.112 160.172 103.915 162.047 103.915C163.923 103.915 165.72 103.112 167.036 101.686L173.158 95.1882C175.894 92.2228 175.894 87.4617 173.158 84.4968L145.133 54.5754L158.438 40.3705C158.97 39.779 159.664 39.3819 160.419 39.2371L170.575 37.046C172.133 36.7237 173.352 35.423 173.654 33.7592L175.706 22.9544C175.833 22.1332 176.205 21.3779 176.767 20.801L222.273 -27.7836C222.813 -28.3835 223.521 -28.7811 224.29 -28.917L234.41 -31.108C235.968 -31.4304 237.186 -32.7311 237.488 -34.3949L239.541 -45.2377C239.676 -46.0448 240.048 -46.7855 240.602 -47.3535L253.906 -61.5585L281.931 -31.6371C284.708 -28.7155 289.168 -28.7155 291.945 -31.6371L298.031 -38.1731C299.367 -39.5788 300.119 -41.4976 300.119 -43.5C300.119 -45.5025 299.367 -47.4213 298.031 -48.8269ZM168.133 89.8618L162.047 96.3597L94.8857 24.6541L100.972 18.1561L168.133 89.8618ZM286.955 -37.0021L219.795 -108.707L225.881 -115.205L293.042 -43.4996L286.955 -37.0021Z" fill="#F5E74C"/>
<path d="M505.523 -111.061L499.437 -117.597L505.523 -124.095C508.283 -127.05 508.283 -131.832 505.523 -134.787L488.609 -152.845L500.003 -165.01L488.892 -176.873L477.498 -164.708L460.584 -182.767C459.259 -184.191 457.457 -184.991 455.577 -184.991C453.697 -184.991 451.895 -184.191 450.57 -182.767L444.483 -176.269L438.362 -182.767C437.04 -184.182 435.245 -184.977 433.373 -184.977C431.501 -184.977 429.706 -184.182 428.384 -182.767L422.262 -176.269C419.525 -173.304 419.525 -168.543 422.262 -165.578L450.287 -135.656L436.982 -121.451C436.44 -120.859 436.071 -120.111 435.921 -119.298L433.903 -108.493C433.59 -106.836 432.377 -105.541 430.825 -105.206L420.669 -103.015C419.908 -102.855 419.207 -102.461 418.653 -101.882L373.148 -53.2963C372.605 -52.7039 372.236 -51.9557 372.086 -51.1429L370.034 -40.3C369.72 -38.6429 368.508 -37.3479 366.955 -37.0132L356.835 -34.8598C356.074 -34.6995 355.373 -34.3055 354.819 -33.7264L341.514 -19.5214L313.489 -49.4428C312.158 -50.8644 310.347 -51.6542 308.464 -51.6339C306.597 -51.629 304.805 -50.8423 303.476 -49.4428L297.389 -42.9072C296.053 -41.5016 295.301 -39.5828 295.301 -37.5803C295.301 -35.5779 296.053 -33.6591 297.389 -32.2534L303.475 -25.7174L297.389 -19.2195C294.629 -16.2647 294.629 -11.4824 297.389 -8.52803L314.303 9.53041L302.909 21.6953L314.02 33.5582L325.414 21.3933L342.327 39.4518C343.651 40.8783 345.454 41.6809 347.335 41.6809C349.216 41.6809 351.018 40.8783 352.342 39.4518L358.428 32.9539L364.55 39.4518C365.867 40.8778 367.664 41.6809 369.539 41.6809C371.415 41.6809 373.212 40.8778 374.529 39.4518L380.65 32.9539C383.387 29.9885 383.387 25.2274 380.65 22.2624L352.625 -7.65895L365.93 -21.8639C366.462 -22.4554 367.156 -22.8525 367.912 -22.9973L378.067 -25.1884C379.626 -25.5107 380.844 -26.8114 381.146 -28.4752L383.198 -39.28C383.325 -40.1012 383.698 -40.8565 384.26 -41.4334L429.765 -90.018C430.305 -90.6179 431.013 -91.0154 431.782 -91.1514L441.902 -93.3424C443.46 -93.6647 444.678 -94.9655 444.981 -96.6292L447.033 -107.472C447.168 -108.279 447.54 -109.02 448.094 -109.588L461.399 -123.793L489.424 -93.8715C492.201 -90.9499 496.66 -90.9499 499.437 -93.8715L505.523 -100.407C506.86 -101.813 507.611 -103.732 507.611 -105.734C507.611 -107.737 506.859 -109.656 505.523 -111.061ZM375.625 27.6274L369.539 34.1253L302.378 -37.5803L308.464 -44.0782L375.625 27.6274ZM494.448 -99.2365L427.287 -170.942L433.373 -177.44L500.534 -105.734L494.448 -99.2365Z" fill="#F5E74C"/>
<path fill-rule="evenodd" clip-rule="evenodd" d="M64.0115 173.002C56.0531 172.983 48.0902 175.26 45.6277 179.916C42.3262 186.158 46.9818 194.878 50.2328 200.164C46.6867 203.922 44.4922 209.122 44.4922 214.866C44.4922 227.877 52.4543 232.627 64.0115 232.373C75.5686 232.627 83.5307 227.877 83.5307 214.866C83.5307 209.122 81.3363 203.922 77.7902 200.164C81.0412 194.878 85.6967 186.158 82.3953 179.916C79.9327 175.26 71.9698 172.983 64.0115 173.002ZM64.0115 194.12C60.7383 194.12 57.4651 194.984 54.5426 196.711C52.6261 193.563 48.4815 186.177 50.2489 182.836C51.688 180.115 57.8548 178.921 64.0115 178.99C70.1681 178.921 76.3349 180.115 77.7741 182.836C79.5414 186.177 75.3968 193.563 73.4803 196.711C70.5578 194.984 67.2846 194.12 64.0115 194.12ZM53.5738 203.73C53.8161 203.474 53.8171 203.057 53.5763 202.799C53.3354 202.542 52.9435 202.541 52.7014 202.797C49.6733 206.006 47.9865 210.32 47.9865 214.866C47.9865 215.231 48.2642 215.526 48.6069 215.526C48.9497 215.526 49.2274 215.231 49.2274 214.866C49.2274 210.67 50.7784 206.692 53.5738 203.73ZM49.5283 218.542C49.464 218.185 49.1395 217.951 48.8036 218.019C48.4676 218.087 48.2474 218.432 48.3115 218.789C48.7287 221.067 49.5975 223.169 51.1977 224.788C51.4453 225.039 51.8371 225.029 52.0726 224.765C52.3082 224.502 52.2984 224.085 52.0508 223.835C50.6483 222.415 49.8935 220.536 49.5283 218.542Z" fill="#F5E74C"/>
<path fill-rule="evenodd" clip-rule="evenodd" d="M24.6759 -33.3165C17.7009 -29.2251 11.7616 -23.1216 11.7147 -17.7747C11.6516 -10.6063 19.6757 -5.37703 24.9155 -2.42769C23.5133 2.69238 23.9471 8.37668 26.5486 13.4051C32.4409 24.7943 41.5614 24.8416 51.5626 18.6527C61.7943 12.9093 66.6129 4.64148 60.7206 -6.74766C58.1191 -11.7761 53.8435 -15.1947 49.0376 -16.6536C49.4892 -22.9594 49.6156 -32.9954 43.8988 -36.7552C39.6346 -39.5596 31.6334 -37.4418 24.6759 -33.3165ZM34.2391 -14.8318C31.3741 -13.142 28.9002 -10.6959 27.1245 -7.67487C24.021 -9.44165 17.0483 -13.7672 17.0821 -17.6044C17.1097 -20.7289 21.9671 -24.9574 27.3876 -28.075C32.7454 -31.3139 38.6842 -33.4523 41.176 -31.8137C44.2362 -29.8012 43.953 -21.1965 43.7014 -17.451C40.3607 -17.4547 37.1043 -16.5214 34.2391 -14.8318ZM29.4548 -1.03131C29.5508 -1.38073 29.3631 -1.7459 29.0355 -1.84709C28.708 -1.94828 28.3645 -1.74695 28.2685 -1.39771C27.0712 2.97432 27.5485 7.62174 29.6074 11.6013C29.7724 11.9203 30.1493 12.0355 30.4492 11.8586C30.7492 11.6816 30.8586 11.2798 30.6935 10.9607C28.7932 7.28753 28.3494 3.00481 29.4548 -1.03131ZM32.6215 14.0229C32.4035 13.7433 32.0134 13.7058 31.7502 13.9389C31.4871 14.1722 31.4505 14.588 31.6685 14.8675C33.0651 16.6458 34.7773 18.0371 36.9116 18.6287C37.2417 18.7201 37.5801 18.5088 37.6669 18.1567C37.7539 17.8046 37.5567 17.445 37.2265 17.3535C35.356 16.8351 33.8441 15.5796 32.6215 14.0229Z" fill="#F5E74C"/>
<path fill-rule="evenodd" clip-rule="evenodd" d="M243.962 273.491C238.075 273.477 232.185 275.162 230.363 278.609C227.921 283.231 231.365 289.687 233.77 293.601C231.147 296.383 229.523 300.233 229.523 304.486C229.523 314.12 235.413 317.636 243.962 317.448C252.511 317.636 258.401 314.12 258.401 304.486C258.401 300.233 256.778 296.383 254.155 293.601C256.56 289.687 260.004 283.231 257.561 278.609C255.74 275.162 249.849 273.477 243.962 273.491ZM243.962 289.126C241.541 289.126 239.12 289.766 236.958 291.045C235.54 288.714 232.474 283.245 233.782 280.771C234.846 278.757 239.408 277.873 243.962 277.924C248.517 277.873 253.078 278.757 254.143 280.771C255.45 283.245 252.384 288.714 250.967 291.045C248.805 289.766 246.384 289.126 243.962 289.126ZM236.241 296.241C236.421 296.051 236.421 295.743 236.243 295.552C236.065 295.361 235.775 295.36 235.596 295.55C233.356 297.926 232.108 301.12 232.108 304.486C232.108 304.756 232.314 304.975 232.567 304.975C232.821 304.975 233.026 304.756 233.026 304.486C233.026 301.379 234.174 298.434 236.241 296.241ZM233.249 307.208C233.201 306.943 232.961 306.77 232.713 306.82C232.464 306.871 232.301 307.126 232.349 307.391C232.657 309.077 233.3 310.633 234.484 311.832C234.667 312.018 234.957 312.01 235.131 311.815C235.305 311.62 235.298 311.312 235.115 311.126C234.077 310.075 233.519 308.684 233.249 307.208Z" fill="#F5E74C"/>
<path fill-rule="evenodd" clip-rule="evenodd" d="M307.602 100.489C298.88 100.468 290.154 102.964 287.455 108.068C283.837 114.91 288.939 124.468 292.502 130.263C288.616 134.382 286.211 140.082 286.211 146.379C286.211 160.641 294.937 165.847 307.602 165.568C320.267 165.847 328.993 160.641 328.993 146.379C328.993 140.082 326.588 134.382 322.702 130.263C326.265 124.468 331.367 114.91 327.749 108.068C325.05 102.964 316.323 100.468 307.602 100.489ZM307.602 123.637C304.015 123.637 300.428 124.584 297.225 126.478C295.125 123.027 290.583 114.931 292.52 111.268C294.097 108.286 300.855 106.977 307.602 107.053C314.349 106.977 321.107 108.286 322.684 111.268C324.621 114.931 320.079 123.027 317.979 126.478C314.776 124.584 311.189 123.637 307.602 123.637ZM296.163 134.171C296.429 133.891 296.43 133.434 296.166 133.151C295.902 132.869 295.473 132.868 295.207 133.149C291.889 136.666 290.04 141.395 290.04 146.379C290.04 146.778 290.345 147.102 290.72 147.102C291.096 147.102 291.4 146.778 291.4 146.379C291.4 141.779 293.1 137.419 296.163 134.171ZM291.73 150.408C291.66 150.016 291.304 149.76 290.936 149.834C290.568 149.909 290.326 150.288 290.397 150.679C290.854 153.176 291.806 155.48 293.559 157.255C293.831 157.529 294.26 157.518 294.518 157.229C294.776 156.941 294.766 156.484 294.494 156.21C292.957 154.654 292.13 152.593 291.73 150.408Z" fill="#F5E74C"/>
<path d="M198.005 144.223L192.523 144.285C190.954 144.302 189.659 143.045 189.641 141.476L189.592 137.096L162.28 137.401L162.329 141.781C162.346 143.35 161.079 144.636 159.51 144.653L154.028 144.714C152.459 144.732 151.173 143.475 151.156 141.906L150.956 124.009C150.938 122.439 152.196 121.154 153.765 121.136L159.247 121.075C160.816 121.058 162.112 122.315 162.129 123.884L162.178 128.274L189.49 127.969L189.441 123.579C189.424 122.01 190.691 120.724 192.26 120.707L197.742 120.646C199.302 120.628 200.597 121.885 200.614 123.454L200.814 141.351C200.832 142.92 199.565 144.206 198.005 144.223Z" fill="#F5E74C"/>
<path d="M83.8003 273.512C84.0841 273.471 84.3808 273.488 84.675 273.569L88.9364 274.734C90.1132 275.056 90.8114 276.289 90.4962 277.49L90.2118 278.576C90.0556 279.175 90.4044 279.791 90.9917 279.952L92.0559 280.246C93.2327 280.568 93.9309 281.802 93.6157 283.003L90.1902 296.046C89.8748 297.246 88.6655 297.959 87.4886 297.637L86.4243 297.347C85.8353 297.185 85.2291 297.541 85.0714 298.143L84.787 299.228C84.4716 300.429 83.2623 301.141 82.0854 300.82L77.824 299.655C76.6472 299.333 75.949 298.099 76.2642 296.898L78.3959 288.785C78.5536 288.184 78.222 287.512 77.6471 287.307C74.8453 286.306 71.3648 285.526 67.2201 285.526C63.0752 285.526 59.5947 286.306 56.7929 287.307C56.218 287.512 55.8865 288.184 56.0442 288.785L58.1759 296.898C58.4911 298.099 57.7929 299.333 56.6161 299.655L52.3547 300.82C51.1779 301.141 49.9686 300.429 49.6531 299.228L49.3687 298.143C49.211 297.541 48.6048 297.185 48.0158 297.347L46.9515 297.637C45.7746 297.959 44.5653 297.246 44.2499 296.046L40.8244 283.003C40.5092 281.802 41.2074 280.568 42.3842 280.246L43.4484 279.952C44.0357 279.791 44.3845 279.175 44.2283 278.576L43.944 277.49C43.6287 276.289 44.3269 275.056 45.5037 274.734L49.7651 273.569C50.942 273.247 52.1513 273.96 52.4667 275.16L54.3314 282.263C54.4891 282.863 55.0785 283.171 55.655 282.97C58.8402 281.861 62.7308 281.024 67.2201 281.024C71.7094 281.024 75.6 281.861 78.7852 282.97C79.3617 283.171 79.951 282.863 80.1087 282.263L81.9734 275.16C82.21 274.26 82.9488 273.633 83.8003 273.512Z" fill="#F5E74C"/>
<path d="M113.25 133.051C113.026 133.019 112.793 133.033 112.561 133.096L109.203 134.019C108.276 134.273 107.726 135.25 107.974 136.201L108.199 137.06C108.322 137.535 108.047 138.022 107.584 138.149L106.746 138.383C105.818 138.637 105.268 139.614 105.517 140.565L108.216 150.89C108.464 151.841 109.417 152.405 110.344 152.15L111.183 151.921C111.647 151.792 112.124 152.074 112.249 152.55L112.473 153.41C112.721 154.361 113.674 154.924 114.601 154.67L117.959 153.748C118.886 153.493 119.436 152.516 119.188 151.566L117.508 145.142C117.384 144.667 117.645 144.135 118.098 143.972C120.305 143.18 123.048 142.562 126.313 142.562C129.579 142.562 132.321 143.18 134.529 143.972C134.982 144.135 135.243 144.667 135.118 145.142L133.439 151.566C133.191 152.516 133.741 153.493 134.668 153.748L138.025 154.67C138.953 154.924 139.905 154.361 140.154 153.41L140.378 152.55C140.502 152.074 140.98 151.792 141.444 151.921L142.282 152.15C143.21 152.405 144.162 151.841 144.411 150.89L147.11 140.565C147.358 139.614 146.808 138.637 145.881 138.383L145.042 138.149C144.58 138.022 144.305 137.535 144.428 137.06L144.652 136.201C144.9 135.25 144.35 134.273 143.423 134.019L140.066 133.096C139.138 132.842 138.186 133.406 137.937 134.356L136.468 139.979C136.344 140.454 135.879 140.698 135.425 140.539C132.916 139.661 129.85 138.999 126.313 138.999C122.776 138.999 119.711 139.661 117.201 140.539C116.747 140.698 116.283 140.454 116.159 139.979L114.689 134.356C114.503 133.643 113.921 133.147 113.25 133.051Z" fill="#F5E74C"/>
</g>
<defs>
<clipPath id="clip0_5685_2266">
<rect width="350" height="350" rx="15" fill="white"/>
</clipPath>
<clipPath id="clip1_5685_2266">
<rect width="83.3781" height="83.9695" fill="white" transform="matrix(0.67009 0.739695 -0.739188 0.670072 -44.5938 160.18)"/>
</clipPath>
<clipPath id="clip2_5685_2266">
<rect width="37.8883" height="38.6823" fill="white" transform="matrix(0.152528 0.988304 -0.985791 0.167171 13.0469 12.5842)"/>
</clipPath>
<clipPath id="clip3_5685_2266">
<rect width="34.4706" height="34.3957" fill="white" transform="matrix(0.716089 0.694858 -0.694919 0.716196 244.801 21.0566)"/>
</clipPath>
<clipPath id="clip4_5685_2266">
<rect width="104.431" height="104.431" fill="white" transform="matrix(0.775974 -0.630765 -0.630765 -0.775974 348.445 123.475)"/>
</clipPath>
<clipPath id="clip5_5685_2266">
<rect width="53.0068" height="53.0068" fill="white" transform="matrix(0.794289 -0.60754 -0.60754 -0.794289 -18.7969 165.703)"/>
</clipPath>
<clipPath id="clip6_5685_2266">
<rect width="31.3199" height="31.3199" fill="white" transform="matrix(0.794289 -0.60754 -0.60754 -0.794289 251.059 212.41)"/>
</clipPath>
</defs>
</svg>
