<svg width="22" height="23" viewBox="0 0 22 23" fill="none" xmlns="http://www.w3.org/2000/svg">
<g clip-path="url(#clip0_482_15244)">
<path d="M18.0657 22.3913C13.3707 22.8922 8.63568 22.8922 3.94067 22.3913C3.02895 22.295 2.17777 21.8891 1.52904 21.2413C0.880309 20.5935 0.473233 19.7429 0.375674 18.8313C-0.125225 14.1363 -0.125225 9.40131 0.375674 4.7063C0.471954 3.79457 0.877836 2.94339 1.52565 2.29466C2.17347 1.64593 3.02408 1.23886 3.93567 1.1413C8.63068 0.6404 13.3657 0.6404 18.0607 1.1413C18.9724 1.23758 19.8236 1.64346 20.4723 2.29128C21.121 2.9391 21.5281 3.78971 21.6257 4.7013C22.1266 9.39631 22.1266 14.1313 21.6257 18.8263C21.5294 19.738 21.1235 20.5892 20.4757 21.2379C19.8279 21.8867 18.9773 22.2937 18.0657 22.3913Z" fill="white"/>
<path d="M9.34063 18.6406C8.17699 18.6406 7.06101 18.1784 6.23819 17.3556C5.41538 16.5327 4.95313 15.4168 4.95312 14.2531C4.95313 13.0895 5.41538 11.9735 6.23819 11.1507C7.06101 10.3279 8.17699 9.86563 9.34063 9.86563H10.4119V12.0069H9.34063C8.89562 12.0069 8.4606 12.1388 8.09059 12.3861C7.72058 12.6333 7.43219 12.9847 7.2619 13.3958C7.0916 13.807 7.04704 14.2594 7.13386 14.6958C7.22067 15.1323 7.43497 15.5332 7.74963 15.8479C8.0643 16.1625 8.46521 16.3768 8.90167 16.4636C9.33813 16.5505 9.79053 16.5059 10.2017 16.3356C10.6128 16.1653 10.9642 15.8769 11.2114 15.5069C11.4587 15.1369 11.5906 14.7019 11.5906 14.2569V4.89062H13.7319V5.96063C13.7319 6.55736 13.9689 7.12966 14.3909 7.55162C14.8128 7.97357 15.3851 8.21063 15.9819 8.21063H17.0531V10.3481H15.9744C15.1814 10.3493 14.4032 10.1331 13.7244 9.72313V14.2531C13.7234 15.4158 13.2613 16.5306 12.4395 17.3531C11.6177 18.1756 10.5033 18.6386 9.34063 18.6406Z" fill="#282828"/>
</g>
<defs>
<clipPath id="clip0_482_15244">
<rect width="22" height="22" fill="white" transform="translate(0 0.765625)"/>
</clipPath>
</defs>
</svg>
