<svg width="159" height="159" viewBox="0 0 159 159" fill="none" xmlns="http://www.w3.org/2000/svg">
<path d="M37.893 75.4798C46.2023 76.3819 53.7955 70.4194 54.7 61.927C55.6021 53.6176 49.6397 46.0244 41.1472 45.1199C32.8378 44.2178 25.2446 50.1803 24.3401 58.6727C23.438 66.9821 29.4005 74.5753 37.893 75.4798Z" stroke="#F5E74C" stroke-width="3.5"/>
<path d="M38.71 126.7V126.576L38.6924 126.453C38.4544 124.787 37.1559 122.87 34.88 122.87H6.08C3.9935 122.87 2.25 124.614 2.25 126.7V132.14C2.25 134.227 3.99351 135.97 6.08 135.97H34.88C36.9665 135.97 38.71 134.227 38.71 132.14V126.7Z" stroke="#F5E74C" stroke-width="3.5"/>
<path d="M8.32048 107.179L6.65699 106.636L6.63059 106.717L6.61215 106.8C5.8503 110.228 6.80394 113.798 8.86442 116.42L8.88749 116.45L8.91178 116.478C11.152 119.092 14.3511 120.609 17.7605 120.609H39.5205C39.994 120.609 40.3305 120.946 40.3305 121.419V148.459C40.3305 153.24 44.1281 157.249 49.1205 157.249C53.927 157.249 57.9105 153.266 57.9105 148.459V115.019C57.9105 109.367 54.0112 104.681 48.7379 103.485C50.1143 103.439 51.4436 103.022 52.7087 102.299L52.7377 102.282L52.766 102.264L62.8653 95.9708C65.4685 97.541 68.504 98.5293 71.8405 98.5293C81.447 98.5293 89.2705 90.7058 89.2705 81.0993C89.2705 71.5396 81.6531 63.5093 72.0005 63.5093C62.394 63.5093 54.5705 71.3328 54.5705 80.9393C54.5705 81.437 54.6196 81.8788 54.6582 82.2259L54.6609 82.2503L49.472 85.479C49.3085 85.3323 49.1281 85.1705 48.9334 84.996C48.0174 84.1751 46.7855 83.0734 45.5231 81.9513C44.2616 80.83 42.966 79.685 41.9238 78.7787C41.0273 77.9991 40.2027 77.2929 39.7937 76.9951C38.5327 75.9429 36.7381 75.2434 35.9155 74.9228C35.8292 74.8892 35.7536 74.8597 35.6904 74.8344L35.6646 74.8241L35.6385 74.8146C34.9799 74.5751 34.2284 74.2654 33.3271 73.8939C33.0841 73.7937 32.8301 73.689 32.5641 73.58C31.3366 73.0769 29.9079 72.5051 28.2703 71.9316C22.2821 69.7442 17.2646 73.8271 15.7737 78.4859L15.7708 78.4953L15.7679 78.5046C15.1331 80.5676 12.859 87.5895 10.7362 94.1182C9.67646 97.3775 8.65663 100.507 7.90173 102.822C7.52428 103.979 7.21308 104.933 6.99625 105.597L6.74529 106.365L6.67949 106.567L6.66266 106.619L6.65841 106.632L6.65734 106.635L6.65707 106.636C6.65702 106.636 6.65699 106.636 8.32048 107.179ZM43.1816 101.468C44.0833 102.241 45.2281 102.854 46.4342 103.194C46.3167 103.191 46.1988 103.189 46.0805 103.189H36.1885L38.2522 96.9981L43.1448 101.436L43.163 101.452L43.1816 101.468ZM72.0005 88.7893C67.7062 88.7893 64.3105 85.2721 64.3105 81.0993C64.3105 76.9458 67.847 73.4093 72.0005 73.4093C76.2947 73.4093 79.6905 76.9264 79.6905 81.0993C79.6905 85.2721 76.2947 88.7893 72.0005 88.7893Z" stroke="#F5E74C" stroke-width="3.5"/>
<path d="M72.0002 75.5093C68.9537 75.5093 66.4102 78.0528 66.4102 81.0993C66.4102 84.1458 68.9537 86.6893 72.0002 86.6893C75.0467 86.6893 77.5902 84.1458 77.5902 81.0993C77.5902 78.0528 75.0467 75.5093 72.0002 75.5093Z" stroke="#F5E74C" stroke-width="3.5"/>
<path d="M113.76 77.7307C122.22 77.7307 129.11 71.0541 129.11 62.5407C129.11 54.0813 122.434 47.1907 113.92 47.1907C105.461 47.1907 98.5703 53.8672 98.5703 62.3807C98.5703 70.6802 105.407 77.7307 113.76 77.7307Z" stroke="#F5E74C" stroke-width="3.5"/>
<path d="M101.268 46.1267L101.264 46.1187L101.261 46.1108L97.3232 37.7986C99.1213 34.3906 100.309 30.3986 100.309 26.22C100.309 12.6055 89.2775 1.75 75.839 1.75C62.2283 1.75 51.375 12.7755 51.369 26.2089C51.2027 39.8319 62.2406 50.85 75.839 50.85C79.9807 50.85 83.9935 49.8174 87.4621 47.8705L95.7457 51.6489C95.7469 51.6495 95.7481 51.65 95.7492 51.6506C99.3053 53.2883 102.909 49.6827 101.268 46.1267ZM86.389 26.22V26.1576L86.3846 26.0953C86.3087 25.0329 87.2418 23.97 88.639 23.97C89.9125 23.97 90.889 24.9465 90.889 26.22C90.889 27.4935 89.9125 28.47 88.639 28.47C87.3655 28.47 86.389 27.4935 86.389 26.22ZM73.589 26.22V26.1576L73.5846 26.0953C73.5087 25.0329 74.4418 23.97 75.839 23.97C77.1125 23.97 78.089 24.9465 78.089 26.22C78.089 27.4935 77.1125 28.47 75.839 28.47C74.5655 28.47 73.589 27.4935 73.589 26.22ZM60.789 26.22V26.1576L60.7846 26.0953C60.7087 25.0329 61.6418 23.97 63.039 23.97C64.3125 23.97 65.289 24.9465 65.289 26.22C65.289 27.4935 64.3125 28.47 63.039 28.47C61.7655 28.47 60.789 27.4935 60.789 26.22Z" stroke="#F5E74C" stroke-width="3.5"/>
<path d="M151.182 139.534L151.163 139.525L151.143 139.516L136.01 132.403L135.358 127.4C137.333 126.578 139.047 125.294 140.393 123.648L140.404 123.634L140.415 123.621C142.476 120.998 143.406 117.464 142.846 114.098C141.484 105.605 140.239 98.6968 139.132 93.42C138.033 88.1867 137.045 84.4369 136.174 82.3465L136.16 82.3113L136.144 82.2768C133.296 76.2022 126.183 73.7563 119.394 76.2575C115.936 77.5315 113.257 80.0799 111.332 82.4028C109.958 84.0608 108.786 85.8611 108.088 86.9336C107.846 87.3053 107.661 87.5896 107.544 87.7503L107.508 87.7999L107.475 87.8521C107.361 88.0349 107.245 88.222 107.129 88.4105C106.812 88.9239 106.489 89.4471 106.17 89.919C105.954 90.2373 105.77 90.4882 105.621 90.6635C105.581 90.7111 105.549 90.7458 105.526 90.7702C104.718 91.1 102.863 91.6305 100.561 92.2252C98.3262 92.8026 95.8433 93.3982 93.8894 93.867C93.7641 93.8971 93.641 93.9266 93.5203 93.9556C89.0467 94.9785 86.2537 99.4391 87.2478 104.026C88.0686 107.911 91.5338 110.53 95.359 110.53C95.3793 110.53 95.4002 110.53 95.4217 110.53C95.8589 110.53 96.5633 110.531 97.2984 110.297C97.6992 110.189 98.4166 110.015 99.3469 109.789C100.558 109.494 102.13 109.112 103.834 108.675C106.754 107.925 110.039 107.017 111.869 106.236C112.009 106.18 112.149 106.12 112.287 106.056L113.679 111.904L101.561 113.281L101.561 113.281L101.551 113.282C96.6537 113.87 93.0667 118.182 93.453 122.98L94.891 148.544C95.0986 153.534 99.2839 157.25 104.159 157.25H104.16H104.161H104.162H104.163H104.164H104.165H104.166H104.167H104.167H104.168H104.169H104.17H104.171H104.172H104.173H104.174H104.175H104.176H104.177H104.178H104.179H104.18H104.181H104.182H104.182H104.183H104.184H104.185H104.186H104.187H104.188H104.189H104.19H104.191H104.192H104.193H104.194H104.195H104.196H104.197H104.197H104.198H104.199H104.2H104.201H104.202H104.203H104.204H104.205H104.206H104.207H104.208H104.209H104.21H104.211H104.212H104.212H104.213H104.214H104.215H104.216H104.217H104.218H104.219H104.22H104.221H104.222H104.223H104.224H104.225H104.226H104.227H104.227H104.228H104.229H104.23H104.231H104.232H104.233H104.234H104.235H104.236H104.237H104.238H104.239H104.24H104.241H104.242H104.242H104.243H104.244H104.245H104.246H104.247H104.248H104.249H104.25H104.251H104.252H104.253H104.254H104.255H104.256H104.257H104.257H104.258H104.259H104.26H104.261H104.262H104.263H104.264H104.265H104.266H104.267H104.268H104.269H104.27H104.271H104.272H104.272H104.273H104.274H104.275H104.276H104.277H104.278H104.279H104.28H104.281H104.282H104.283H104.284H104.285H104.286H104.287H104.287H104.288H104.289H104.29H104.291H104.292H104.293H104.294H104.295H104.296H104.297H104.298H104.299H104.3H104.301H104.302H104.302H104.303H104.304H104.305H104.306H104.307H104.308H104.309H104.31H104.311H104.312H104.313H104.314H104.315H104.316H104.317H104.317H104.318H104.319H104.32H104.321H104.322H104.323H104.324H104.325H104.326H104.327H104.328H104.329H104.33H104.331H104.332H104.332H104.333H104.334H104.335H104.336H104.337H104.338H104.339H104.34H104.341H104.342H104.343H104.344H104.345H104.346H104.347H104.347H104.348H104.349H104.35H104.351H104.352H104.353H104.354H104.355H104.356H104.357H104.358H104.359H104.36H104.361H104.362H104.362H104.363H104.364H104.365H104.366H104.367H104.368H104.369H104.37H104.371H104.372H104.373H104.374H104.375H104.376H104.377H104.377H104.378H104.379H104.38H104.381H104.382H104.383H104.384H104.385H104.386H104.387H104.388H104.389H104.39H104.391H104.392H104.392H104.393H104.394H104.395H104.396H104.397H104.398H104.399H104.4H104.401H104.402H104.403H104.404H104.405H104.406H104.407H104.407H104.408H104.409H104.41H104.411H104.412H104.413H104.414H104.415H104.416H104.417H104.418H104.419H104.42H104.421H104.422H104.422H104.423H104.424H104.425H104.426H104.427H104.428H104.429H104.43H104.431H104.432H104.433H104.434H104.435H104.436H104.437H104.437H104.438H104.439H104.44H104.441H104.442H104.443H104.444H104.445H104.446H104.447H104.448H104.449H104.45H104.451H104.452H104.452H104.453H104.454H104.455H104.456H104.457H104.458H104.459H104.46H104.461H104.462H104.463H104.464H104.465H104.466H104.467H104.467H104.468H104.469H104.47H104.471H104.472H104.473H104.474H104.475H104.476H104.477H104.478H104.479H104.48H104.481H104.482H104.482H104.483H104.484H104.485H104.486H104.487H104.488H104.489H104.49H104.491H104.492H104.493H104.494H104.495H104.496H104.497H104.497H104.498H104.499H104.5H104.501H104.502H104.503H104.504H104.505H104.506H104.507H104.508H104.509H104.51H104.511H104.512H104.512H104.513H104.514H104.515H104.516H104.517H104.518H104.519H104.52H104.521H104.522H104.523H104.524H104.525H104.526H104.527H104.527H104.528H104.529H104.53H104.531H104.532H104.533H104.534H104.535H104.536H104.537H104.538H104.539H104.54H104.541H104.542H104.542H104.543H104.544H104.545H104.546H104.547H104.548H104.549H104.55H104.551H104.552H104.553H104.554H104.555H104.556H104.557H104.557H104.558H104.559H104.56H104.561H104.562H104.563H104.564H104.565H104.566H104.567H104.568H104.569H104.57H104.571H104.572H104.572H104.573H104.574H104.575H104.576H104.577H104.578H104.579H104.58H104.581H104.582H104.583H104.584H104.585H104.586H104.587H104.587H104.588H104.589H104.59H104.591H104.592H104.593H104.594H104.595H104.596H104.597H104.598H104.599H104.6H104.601H104.602H104.602H104.603H104.604H104.605H104.606H104.607H104.608H104.609H104.61H104.611H104.612H104.613H104.614H104.615H104.616H104.617H104.617H104.618H104.619H104.62H104.621H104.622H104.623H104.624H104.625H104.626H104.627H104.628H104.629H104.63H104.631H104.632H104.632H104.633H104.634H104.635H104.636H104.637H104.638H104.639H104.673L104.706 157.248C109.877 157.049 113.806 152.502 113.426 147.388L112.552 130.638L117.039 130.089L118.263 139.877C118.657 143.029 120.629 145.788 123.577 147.164C123.577 147.165 123.578 147.165 123.579 147.165L143.236 156.434C144.527 157.075 145.942 157.25 147.199 157.25C150.719 157.25 154.076 155.292 155.66 151.929C157.852 147.339 155.822 141.855 151.182 139.534Z" stroke="#F5E74C" stroke-width="3.5"/>
</svg>
