<svg width="155" height="153" viewBox="0 0 155 153" fill="none" xmlns="http://www.w3.org/2000/svg">
<path d="M38.0801 70.7399C45.4401 71.5399 52.1601 66.2599 52.9601 58.7399C53.7601 51.3799 48.4801 44.6599 40.9601 43.8599C33.6001 43.0599 26.8801 48.3399 26.0801 55.8599C25.2801 63.2199 30.5601 69.9399 38.0801 70.7399Z" fill="#F5E74C"/>
<path d="M38.71 123.7V123.576L38.6924 123.453C38.4544 121.787 37.1559 119.87 34.88 119.87H6.08C3.9935 119.87 2.25 121.614 2.25 123.7V129.14C2.25 131.227 3.99351 132.97 6.08 132.97H34.88C36.9665 132.97 38.71 131.227 38.71 129.14V123.7Z" stroke="#F5E74C" stroke-width="3.5"/>
<path d="M72.0005 62.2593C63.3605 62.2593 56.3205 69.2993 56.3205 77.9393C56.3205 78.7393 56.4805 79.3793 56.4805 80.1793L49.2805 84.6593C49.2805 84.6593 39.6805 76.0193 38.7205 75.3793C37.6005 74.4193 35.8405 73.7793 35.0405 73.4593C33.2805 72.8193 30.8805 71.6993 27.6805 70.5793C22.8805 68.8193 18.7205 72.0193 17.4405 76.0193C16.1605 80.1793 8.32048 104.179 8.32048 104.179C7.68048 107.059 8.48048 110.099 10.2405 112.339C12.1605 114.579 14.8805 115.859 17.7605 115.859H39.5205C40.9605 115.859 42.0805 116.979 42.0805 118.419V145.459C42.0805 149.299 45.1205 152.499 49.1205 152.499C52.9605 152.499 56.1605 149.299 56.1605 145.459V112.019C56.1605 106.419 51.6805 101.939 46.0805 101.939H33.7605L37.4405 90.8993L44.3205 97.1393C45.4405 98.0993 47.0405 98.7393 48.4805 98.7393C49.6005 98.7393 50.7205 98.4193 51.8405 97.7793L62.8805 90.8993C65.4405 92.6593 68.4805 93.7793 71.8405 93.7793C80.4805 93.7793 87.5205 86.7393 87.5205 78.0993C87.5205 69.4593 80.6405 62.2593 72.0005 62.2593ZM72.0005 87.5393C66.7205 87.5393 62.5605 83.2193 62.5605 78.0993C62.5605 72.9793 66.8805 68.6593 72.0005 68.6593C77.2805 68.6593 81.4405 72.9793 81.4405 78.0993C81.4405 83.2193 77.2805 87.5393 72.0005 87.5393Z" fill="#F5E74C"/>
<path d="M72.0002 72.5093C68.9537 72.5093 66.4102 75.0528 66.4102 78.0993C66.4102 81.1458 68.9537 83.6893 72.0002 83.6893C75.0467 83.6893 77.5902 81.1458 77.5902 78.0993C77.5902 75.0528 75.0467 72.5093 72.0002 72.5093Z" stroke="#F5E74C" stroke-width="3.5"/>
<path d="M113.76 72.9807C121.28 72.9807 127.36 67.0607 127.36 59.5407C127.36 52.0207 121.44 45.9407 113.92 45.9407C106.4 45.9407 100.32 51.8607 100.32 59.3807C100.32 66.7407 106.4 72.9807 113.76 72.9807Z" fill="#91F533"/>
<path d="M75.839 46.1C79.999 46.1 83.999 44.98 87.359 42.9L96.479 47.06C98.559 48.02 100.639 45.94 99.679 43.86L95.359 34.74C97.279 31.38 98.559 27.38 98.559 23.22C98.559 10.58 88.319 0.5 75.839 0.5C63.199 0.5 53.119 10.74 53.119 23.22C52.959 35.86 63.199 46.1 75.839 46.1ZM88.639 19.22C90.879 19.22 92.639 20.98 92.639 23.22C92.639 25.46 90.879 27.22 88.639 27.22C86.399 27.22 84.639 25.46 84.639 23.22C84.479 20.98 86.399 19.22 88.639 19.22ZM75.839 19.22C78.079 19.22 79.839 20.98 79.839 23.22C79.839 25.46 78.079 27.22 75.839 27.22C73.599 27.22 71.839 25.46 71.839 23.22C71.679 20.98 73.599 19.22 75.839 19.22ZM63.039 19.22C65.279 19.22 67.039 20.98 67.039 23.22C67.039 25.46 65.279 27.22 63.039 27.22C60.799 27.22 59.039 25.46 59.039 23.22C58.879 20.98 60.799 19.22 63.039 19.22Z" fill="#91F533"/>
<path d="M150.399 138.1L134.399 130.58L133.439 123.22C135.679 122.58 137.599 121.3 139.039 119.54C140.799 117.3 141.599 114.26 141.119 111.38C138.399 94.4196 136.159 83.8596 134.559 80.0196C132.159 74.8996 126.079 72.6596 119.999 74.8996C113.919 77.1396 110.239 84.0196 108.959 85.7796C108.159 87.0596 107.039 88.9796 106.399 89.2996C104.639 90.0996 97.919 91.6996 93.919 92.6596C90.399 93.4596 88.159 96.9796 88.959 100.66C89.599 103.7 92.319 105.78 95.359 105.78C95.839 105.78 96.319 105.78 96.799 105.62C98.559 105.14 107.839 103.06 111.199 101.62C111.999 101.3 112.799 100.82 113.439 100.34L115.839 110.42L101.759 112.02C97.759 112.5 94.879 116.02 95.199 119.86L96.639 145.46C96.799 149.46 100.159 152.5 104.159 152.5C104.319 152.5 104.479 152.5 104.639 152.5C108.799 152.34 111.999 148.66 111.679 144.5L110.719 126.1L118.559 125.14L119.999 136.66C120.319 139.22 121.919 141.46 124.319 142.58L143.999 151.86C144.959 152.34 146.079 152.5 147.199 152.5C150.079 152.5 152.799 150.9 154.079 148.18C155.839 144.5 154.239 140.02 150.399 138.1Z" fill="#91F533"/>
</svg>
