<svg width="22" height="23" viewBox="0 0 22 23" fill="none" xmlns="http://www.w3.org/2000/svg">
<path d="M20.7895 1.9758C19.983 1.16907 19.0113 0.765625 17.8751 0.765625H4.12497C2.98879 0.765625 2.01706 1.16907 1.21018 1.9758C0.403442 2.78269 0 3.75437 0 4.8906V18.6405C0 19.7767 0.403442 20.7485 1.21018 21.5553C2.01706 22.3622 2.98879 22.7657 4.12497 22.7657H17.8749C19.0111 22.7657 19.9828 22.3622 20.7894 21.5553C21.5963 20.7485 21.9997 19.7767 21.9997 18.6405V4.8906C21.9996 3.75437 21.5962 2.78254 20.7895 1.9758ZM16.8294 9.23054C16.839 9.31648 16.8438 9.44516 16.8438 9.61733C16.8438 10.4194 16.7268 11.2239 16.4929 12.0306C16.2591 12.8376 15.901 13.611 15.4186 14.351C14.9366 15.0909 14.3613 15.7452 13.693 16.3133C13.0245 16.8811 12.2226 17.3349 11.2866 17.6736C10.3511 18.0129 9.3483 18.1825 8.27895 18.1825C6.61762 18.1825 5.0803 17.7334 3.66705 16.8362C3.89621 16.8647 4.13506 16.8791 4.38318 16.8791C5.76779 16.8791 7.01389 16.4494 8.12157 15.5898C7.47236 15.5805 6.89218 15.3802 6.38138 14.9882C5.87043 14.5968 5.51485 14.1003 5.31428 13.4987C5.56246 13.5369 5.74863 13.5558 5.87274 13.5558C6.08279 13.5558 6.32635 13.5177 6.60317 13.4415C5.90615 13.3076 5.319 12.9618 4.84156 12.4031C4.36402 11.8445 4.12533 11.2072 4.12533 10.4911V10.4624C4.63126 10.701 5.1087 10.8251 5.55754 10.8348C4.6886 10.2522 4.25416 9.41681 4.25416 8.32829C4.25416 7.79351 4.39252 7.28748 4.66944 6.81004C5.4237 7.73632 6.34055 8.47623 7.41939 9.03002C8.49833 9.58377 9.65382 9.89425 10.8855 9.96102C10.8379 9.77962 10.8139 9.55035 10.8139 9.27353C10.8139 8.44267 11.1076 7.73381 11.6949 7.14651C12.282 6.55925 12.991 6.26552 13.8216 6.26552C14.7003 6.26552 15.4309 6.58072 16.0133 7.21097C16.6722 7.08686 17.3123 6.84325 17.9327 6.48054C17.6941 7.21559 17.2498 7.77425 16.6008 8.15622C17.2213 8.07013 17.7988 7.90789 18.3334 7.6692C17.9324 8.28028 17.4309 8.80066 16.8294 9.23054Z" fill="white"/>
</svg>
