<svg width="31" height="23" viewBox="0 0 31 23" fill="none" xmlns="http://www.w3.org/2000/svg">
<path d="M30.3613 4.20809C30.0041 2.86197 28.957 1.80086 27.6291 1.43839C25.2032 0.765625 15.4996 0.765625 15.4996 0.765625C15.4996 0.765625 5.79643 0.765625 3.37058 1.41291C2.06824 1.77499 0.995635 2.86222 0.638408 4.20809C0 6.66671 0 11.7657 0 11.7657C0 11.7657 0 16.8903 0.638408 19.3232C0.995974 20.6691 2.04271 21.7302 3.37077 22.0927C5.82196 22.7656 15.5 22.7656 15.5 22.7656C15.5 22.7656 25.2032 22.7656 27.6291 22.1183C28.9572 21.7561 30.0041 20.695 30.3617 19.349C30.9999 16.8902 30.9999 11.7915 30.9999 11.7915C30.9999 11.7915 31.0254 6.66667 30.3613 4.20809ZM12.4102 16.4762V7.05501L20.4792 11.7656L12.4102 16.4762Z" fill="white"/>
</svg>
