<svg width="18" height="18" viewBox="0 0 18 18" fill="none" xmlns="http://www.w3.org/2000/svg">
<path d="M16.7406 3.66477L16.74 3.66421C16.7372 3.66083 16.7332 3.65971 16.7304 3.65689C16.3923 3.32898 15.9398 3.14542 15.4688 3.14502H2.53125C2.04075 3.14502 1.59694 3.34133 1.26844 3.65689C1.26619 3.65971 1.26225 3.66083 1.25944 3.66421L1.25887 3.66477C1.08329 3.83448 0.943605 4.03776 0.848134 4.26252C0.752662 4.48728 0.703349 4.72895 0.703125 4.97314V13.0265C0.70372 13.5111 0.896517 13.9758 1.23923 14.3185C1.58194 14.6612 2.04658 14.854 2.53125 14.8546H15.4688C15.9534 14.854 16.4181 14.6612 16.7608 14.3185C17.1035 13.9758 17.2963 13.5111 17.2969 13.0265V4.97314C17.2969 4.46014 17.0826 3.99721 16.7406 3.66477ZM15.4688 3.98877C15.5424 3.98877 15.6133 3.99833 15.6819 4.01352L9.63956 9.17952C9.46177 9.33311 9.23467 9.41763 8.99972 9.41763C8.76477 9.41763 8.53766 9.33311 8.35988 9.17952L2.31806 4.01352C2.38669 3.99833 2.45756 3.98877 2.53125 3.98877H15.4688ZM16.4531 13.027C16.4531 13.5698 16.0116 14.0114 15.4688 14.0114H2.53125C1.98844 14.0114 1.54688 13.5698 1.54688 13.027V4.97314C1.54688 4.82071 1.58456 4.67839 1.64644 4.54958L7.81144 9.82133C8.15625 10.1155 8.57812 10.2629 9 10.2629C9.42188 10.2629 9.84375 10.1155 10.188 9.82133L16.353 4.55014C16.4149 4.67896 16.4526 4.82183 16.4526 4.97371L16.4531 13.027Z" fill="#C4C4C4"/>
</svg>
